<svg xmlns="http://www.w3.org/2000/svg" width="1030" height="294" viewBox="0 0 1030 294">
  <g id="t1-i2" transform="translate(790.379 -506.235)">
    <rect id="Rectángulo_5142" data-name="Rectángulo 5142" width="1030" height="294" transform="translate(-790.379 506.235)" fill="none"/>
    <g id="Group_59125" data-name="Group 59125">
      <rect id="Rectangle_7545" data-name="Rectangle 7545" width="301.821" height="234.321" transform="translate(-749.695 521.677)" fill="#e2f8fa"/>
      <path id="Rectangle_7545_-_Outline" data-name="Rectangle 7545 - Outline" d="M0-.75H301.821a.75.75,0,0,1,.75.75V234.321a.75.75,0,0,1-.75.75H0a.75.75,0,0,1-.75-.75V0A.75.75,0,0,1,0-.75ZM301.071.75H.75V233.571H301.071Z" transform="translate(-749.695 521.677)" fill="#039be5"/>
      <path id="Path_102156" data-name="Path 102156" d="M-697.091,586.542v27.819c0,3.7,9.089,6.7,20.3,6.7s20.3-3,20.3-6.7V586.542Z" fill="#fff5d4"/>
      <path id="Path_102156_-_Outline" data-name="Path 102156 - Outline" d="M-697.591,586.042h41.6v28.319a3.9,3.9,0,0,1-1.788,3,15.07,15.07,0,0,1-4.5,2.21,48.165,48.165,0,0,1-14.511,1.988,48.165,48.165,0,0,1-14.511-1.988,15.07,15.07,0,0,1-4.5-2.21,3.9,3.9,0,0,1-1.788-3Zm40.6,1h-39.6v27.319c0,1.533,2.042,3.087,5.6,4.262a47.157,47.157,0,0,0,14.2,1.937,47.157,47.157,0,0,0,14.2-1.937c3.56-1.175,5.6-2.728,5.6-4.262Z" fill="#ffa726"/>
      <ellipse id="Ellipse_4058" data-name="Ellipse 4058" cx="20.3" cy="6.699" rx="20.3" ry="6.699" transform="translate(-697.091 579.843)" fill="#fff5d4"/>
      <path id="Ellipse_4058_-_Outline" data-name="Ellipse 4058 - Outline" d="M20.3-.5A48.168,48.168,0,0,1,34.81,1.487a15.067,15.067,0,0,1,4.5,2.21,3.9,3.9,0,0,1,1.788,3,3.9,3.9,0,0,1-1.788,3,15.067,15.067,0,0,1-4.5,2.21A48.168,48.168,0,0,1,20.3,13.9,48.168,48.168,0,0,1,5.789,11.911a15.067,15.067,0,0,1-4.5-2.21A3.9,3.9,0,0,1-.5,6.7a3.9,3.9,0,0,1,1.788-3,15.067,15.067,0,0,1,4.5-2.21A48.168,48.168,0,0,1,20.3-.5Zm0,13.4a47.16,47.16,0,0,0,14.2-1.937c3.56-1.175,5.6-2.728,5.6-4.262s-2.042-3.087-5.6-4.262A47.16,47.16,0,0,0,20.3.5,47.159,47.159,0,0,0,6.1,2.437C2.542,3.612.5,5.165.5,6.7s2.042,3.087,5.6,4.262A47.16,47.16,0,0,0,20.3,12.9Z" transform="translate(-697.091 579.843)" fill="#ffa726"/>
      <path id="Path_102157" data-name="Path 102157" d="M-282.278,596.007l-30.234-42.83v41.786H-432.3v87.75h119.784V724.5l30.234-42.83,30.234-42.83Z" fill="#4dd0e1"/>
      <path id="Path_102157_-_Outline" data-name="Path 102157 - Outline" d="M-312.512,552.427a.75.75,0,0,1,.613.318l60.468,85.661a.75.75,0,0,1,0,.865L-311.9,724.931a.75.75,0,0,1-.84.282.75.75,0,0,1-.523-.715V683.463H-432.3a.75.75,0,0,1-.75-.75v-87.75a.75.75,0,0,1,.75-.75h119.034V553.177a.75.75,0,0,1,.523-.715A.749.749,0,0,1-312.512,552.427Zm59.55,86.411-58.8-83.3v39.423a.75.75,0,0,1-.75.75H-431.546v86.25h119.034a.75.75,0,0,1,.75.75v39.422Z" fill="#039be5"/>
      <path id="Path_102158" data-name="Path 102158" d="M-113.825,535.558h-43.336l-11.061,19.158,11.061,19.158h43.336l11.061-19.158Z" fill="#ed1c24"/>
      <path id="Path_102158_-_Outline" data-name="Path 102158 - Outline" d="M-157.45,535.058h43.914l11.35,19.658-11.35,19.658H-157.45l-11.35-19.658Zm43.336,1h-42.759l-10.772,18.658,10.772,18.658h42.759l10.772-18.658Z" fill="#891c24"/>
      <g id="Group_59102" data-name="Group 59102">
        <rect id="Rectangle_7546" data-name="Rectangle 7546" width="130.339" height="8.357" transform="translate(-663.364 708.025)" fill="#ccc"/>
        <path id="Rectangle_7546_-_Outline" data-name="Rectangle 7546 - Outline" d="M-.5-.5H130.839V8.857H-.5ZM129.839.5H.5V7.857H129.839Z" transform="translate(-663.364 708.025)" fill="gray"/>
        <rect id="Rectangle_7547" data-name="Rectangle 7547" width="109.125" height="8.357" transform="translate(-652.757 708.025)" fill="#ccc"/>
        <path id="Rectangle_7547_-_Outline" data-name="Rectangle 7547 - Outline" d="M-.5-.5H109.625V8.857H-.5ZM108.625.5H.5V7.857H108.625Z" transform="translate(-652.757 708.025)" fill="gray"/>
        <rect id="Rectangle_7548" data-name="Rectangle 7548" width="89.839" height="8.357" transform="translate(-643.114 708.025)" fill="#ccc"/>
        <path id="Rectangle_7548_-_Outline" data-name="Rectangle 7548 - Outline" d="M-.5-.5H90.339V8.857H-.5ZM89.339.5H.5V7.857H89.339Z" transform="translate(-643.114 708.025)" fill="gray"/>
        <rect id="Rectangle_7549" data-name="Rectangle 7549" width="72.482" height="8.357" transform="translate(-634.436 708.025)" fill="#ccc"/>
        <path id="Rectangle_7549_-_Outline" data-name="Rectangle 7549 - Outline" d="M-.5-.5H72.982V8.857H-.5ZM71.982.5H.5V7.857H71.982Z" transform="translate(-634.436 708.025)" fill="gray"/>
        <rect id="Rectangle_7550" data-name="Rectangle 7550" width="52.232" height="8.357" transform="translate(-624.311 708.025)" fill="#ccc"/>
        <path id="Rectangle_7550_-_Outline" data-name="Rectangle 7550 - Outline" d="M-.5-.5H52.732V8.857H-.5ZM51.732.5H.5V7.857H51.732Z" transform="translate(-624.311 708.025)" fill="gray"/>
        <rect id="Rectangle_7551" data-name="Rectangle 7551" width="34.232" height="8.357" transform="translate(-615.311 708.025)" fill="#ccc"/>
        <path id="Rectangle_7551_-_Outline" data-name="Rectangle 7551 - Outline" d="M-.5-.5H34.732V8.857H-.5ZM33.732.5H.5V7.857H33.732Z" transform="translate(-615.311 708.025)" fill="gray"/>
        <rect id="Rectangle_7552" data-name="Rectangle 7552" width="12.375" height="8.357" transform="translate(-604.382 708.025)" fill="#ccc"/>
        <path id="Rectangle_7552_-_Outline" data-name="Rectangle 7552 - Outline" d="M-.5-.5H12.875V8.857H-.5ZM11.875.5H.5V7.857H11.875Z" transform="translate(-604.382 708.025)" fill="gray"/>
        <rect id="Rectangle_7553" data-name="Rectangle 7553" width="141.75" height="34.071" transform="translate(-667.382 673.954)" fill="#4dd0e1"/>
        <path id="Rectangle_7553_-_Outline" data-name="Rectangle 7553 - Outline" d="M-.5-.5H142.25V34.571H-.5ZM141.25.5H.5V33.571H141.25Z" transform="translate(-667.382 673.954)" fill="#039be5"/>
        <rect id="Rectangle_7554" data-name="Rectangle 7554" width="27.241" height="4.339" transform="translate(-661.677 680.061)" fill="#ccc"/>
        <path id="Rectangle_7554_-_Outline" data-name="Rectangle 7554 - Outline" d="M-.5-.5H27.741V4.839H-.5ZM26.741.5H.5V3.839H26.741Z" transform="translate(-661.677 680.061)" fill="gray"/>
        <rect id="Rectangle_7555" data-name="Rectangle 7555" width="27.241" height="4.339" transform="translate(-661.677 684.4)" fill="#ccc"/>
        <path id="Rectangle_7555_-_Outline" data-name="Rectangle 7555 - Outline" d="M-.5-.5H27.741V4.839H-.5ZM26.741.5H.5V3.839H26.741Z" transform="translate(-661.677 684.4)" fill="gray"/>
        <rect id="Rectangle_7556" data-name="Rectangle 7556" width="27.241" height="4.339" transform="translate(-661.677 688.74)" fill="#ccc"/>
        <path id="Rectangle_7556_-_Outline" data-name="Rectangle 7556 - Outline" d="M-.5-.5H27.741V4.839H-.5ZM26.741.5H.5V3.839H26.741Z" transform="translate(-661.677 688.74)" fill="gray"/>
        <rect id="Rectangle_7557" data-name="Rectangle 7557" width="27.241" height="4.339" transform="translate(-661.677 693.079)" fill="#ccc"/>
        <path id="Rectangle_7557_-_Outline" data-name="Rectangle 7557 - Outline" d="M-.5-.5H27.741V4.839H-.5ZM26.741.5H.5V3.839H26.741Z" transform="translate(-661.677 693.079)" fill="gray"/>
        <rect id="Rectangle_7558" data-name="Rectangle 7558" width="27.241" height="4.339" transform="translate(-661.677 697.418)" fill="#ccc"/>
        <path id="Rectangle_7558_-_Outline" data-name="Rectangle 7558 - Outline" d="M-.5-.5H27.741V4.839H-.5ZM26.741.5H.5V3.839H26.741Z" transform="translate(-661.677 697.418)" fill="gray"/>
        <rect id="Rectangle_7559" data-name="Rectangle 7559" width="27.241" height="4.339" transform="translate(-628.168 680.061)" fill="#ccc"/>
        <path id="Rectangle_7559_-_Outline" data-name="Rectangle 7559 - Outline" d="M-.5-.5H27.741V4.839H-.5ZM26.741.5H.5V3.839H26.741Z" transform="translate(-628.168 680.061)" fill="gray"/>
        <rect id="Rectangle_7560" data-name="Rectangle 7560" width="27.241" height="4.339" transform="translate(-628.168 684.4)" fill="#ccc"/>
        <path id="Rectangle_7560_-_Outline" data-name="Rectangle 7560 - Outline" d="M-.5-.5H27.741V4.839H-.5ZM26.741.5H.5V3.839H26.741Z" transform="translate(-628.168 684.4)" fill="gray"/>
        <rect id="Rectangle_7561" data-name="Rectangle 7561" width="27.241" height="4.339" transform="translate(-628.168 688.74)" fill="#ccc"/>
        <path id="Rectangle_7561_-_Outline" data-name="Rectangle 7561 - Outline" d="M-.5-.5H27.741V4.839H-.5ZM26.741.5H.5V3.839H26.741Z" transform="translate(-628.168 688.74)" fill="gray"/>
        <rect id="Rectangle_7562" data-name="Rectangle 7562" width="27.241" height="4.339" transform="translate(-628.168 693.079)" fill="#ccc"/>
        <path id="Rectangle_7562_-_Outline" data-name="Rectangle 7562 - Outline" d="M-.5-.5H27.741V4.839H-.5ZM26.741.5H.5V3.839H26.741Z" transform="translate(-628.168 693.079)" fill="gray"/>
        <rect id="Rectangle_7563" data-name="Rectangle 7563" width="27.241" height="4.339" transform="translate(-628.168 697.418)" fill="#ccc"/>
        <path id="Rectangle_7563_-_Outline" data-name="Rectangle 7563 - Outline" d="M-.5-.5H27.741V4.839H-.5ZM26.741.5H.5V3.839H26.741Z" transform="translate(-628.168 697.418)" fill="gray"/>
        <rect id="Rectangle_7564" data-name="Rectangle 7564" width="27.241" height="4.339" transform="translate(-594.659 680.061)" fill="#ccc"/>
        <path id="Rectangle_7564_-_Outline" data-name="Rectangle 7564 - Outline" d="M-.5-.5H27.741V4.839H-.5ZM26.741.5H.5V3.839H26.741Z" transform="translate(-594.659 680.061)" fill="gray"/>
        <rect id="Rectangle_7565" data-name="Rectangle 7565" width="27.241" height="4.339" transform="translate(-594.659 684.4)" fill="#ccc"/>
        <path id="Rectangle_7565_-_Outline" data-name="Rectangle 7565 - Outline" d="M-.5-.5H27.741V4.839H-.5ZM26.741.5H.5V3.839H26.741Z" transform="translate(-594.659 684.4)" fill="gray"/>
        <rect id="Rectangle_7566" data-name="Rectangle 7566" width="27.241" height="4.339" transform="translate(-594.659 688.74)" fill="#ccc"/>
        <path id="Rectangle_7566_-_Outline" data-name="Rectangle 7566 - Outline" d="M-.5-.5H27.741V4.839H-.5ZM26.741.5H.5V3.839H26.741Z" transform="translate(-594.659 688.74)" fill="gray"/>
        <rect id="Rectangle_7567" data-name="Rectangle 7567" width="27.241" height="4.339" transform="translate(-594.659 693.079)" fill="#ccc"/>
        <path id="Rectangle_7567_-_Outline" data-name="Rectangle 7567 - Outline" d="M-.5-.5H27.741V4.839H-.5ZM26.741.5H.5V3.839H26.741Z" transform="translate(-594.659 693.079)" fill="gray"/>
        <rect id="Rectangle_7568" data-name="Rectangle 7568" width="27.241" height="4.339" transform="translate(-594.659 697.418)" fill="#ccc"/>
        <path id="Rectangle_7568_-_Outline" data-name="Rectangle 7568 - Outline" d="M-.5-.5H27.741V4.839H-.5ZM26.741.5H.5V3.839H26.741Z" transform="translate(-594.659 697.418)" fill="gray"/>
        <rect id="Rectangle_7569" data-name="Rectangle 7569" width="27.241" height="4.339" transform="translate(-561.15 680.061)" fill="#ccc"/>
        <path id="Rectangle_7569_-_Outline" data-name="Rectangle 7569 - Outline" d="M-.5-.5H27.741V4.839H-.5ZM26.741.5H.5V3.839H26.741Z" transform="translate(-561.15 680.061)" fill="gray"/>
        <rect id="Rectangle_7570" data-name="Rectangle 7570" width="27.241" height="4.339" transform="translate(-561.15 684.4)" fill="#ccc"/>
        <path id="Rectangle_7570_-_Outline" data-name="Rectangle 7570 - Outline" d="M-.5-.5H27.741V4.839H-.5ZM26.741.5H.5V3.839H26.741Z" transform="translate(-561.15 684.4)" fill="gray"/>
        <rect id="Rectangle_7571" data-name="Rectangle 7571" width="27.241" height="4.339" transform="translate(-561.15 688.74)" fill="#ccc"/>
        <path id="Rectangle_7571_-_Outline" data-name="Rectangle 7571 - Outline" d="M-.5-.5H27.741V4.839H-.5ZM26.741.5H.5V3.839H26.741Z" transform="translate(-561.15 688.74)" fill="gray"/>
        <rect id="Rectangle_7572" data-name="Rectangle 7572" width="27.241" height="4.339" transform="translate(-561.15 693.079)" fill="#ccc"/>
        <path id="Rectangle_7572_-_Outline" data-name="Rectangle 7572 - Outline" d="M-.5-.5H27.741V4.839H-.5ZM26.741.5H.5V3.839H26.741Z" transform="translate(-561.15 693.079)" fill="gray"/>
        <rect id="Rectangle_7573" data-name="Rectangle 7573" width="27.241" height="4.339" transform="translate(-561.15 697.418)" fill="#ccc"/>
        <path id="Rectangle_7573_-_Outline" data-name="Rectangle 7573 - Outline" d="M-.5-.5H27.741V4.839H-.5ZM26.741.5H.5V3.839H26.741Z" transform="translate(-561.15 697.418)" fill="gray"/>
      </g>
      <rect id="Rectangle_7574" data-name="Rectangle 7574" width="73.621" height="19.158" transform="translate(39.124 533.556)" fill="#e2f8fa"/>
      <path id="Rectangle_7574_-_Outline" data-name="Rectangle 7574 - Outline" d="M0-.75H73.621a.75.75,0,0,1,.75.75V19.158a.75.75,0,0,1-.75.75H0a.75.75,0,0,1-.75-.75V0A.75.75,0,0,1,0-.75ZM72.871.75H.75V18.408H72.871Z" transform="translate(39.124 533.556)" fill="#4dd0e1"/>
      <rect id="Rectangle_7575" data-name="Rectangle 7575" width="73.621" height="19.158" transform="translate(115.311 533.556)" fill="#58edf9"/>
      <path id="Rectangle_7575_-_Outline" data-name="Rectangle 7575 - Outline" d="M-.5-.5H74.121V19.658H-.5ZM73.121.5H.5V18.658H73.121Z" transform="translate(115.311 533.556)" fill="#039be5"/>
      <rect id="Rectangle_7576" data-name="Rectangle 7576" width="149.807" height="19.158" transform="translate(39.124 554.716)" fill="#ffca28"/>
      <path id="Rectangle_7576_-_Outline" data-name="Rectangle 7576 - Outline" d="M-.5-.5H150.307V19.658H-.5ZM149.307.5H.5V18.658H149.307Z" transform="translate(39.124 554.716)" fill="#ffa726"/>
      <g id="Group_59106" data-name="Group 59106">
        <g id="Group_59103" data-name="Group 59103">
          <path id="Path_102159" data-name="Path 102159" d="M-71.2,555.215h-1.5a.5.5,0,0,1-.5-.5.5.5,0,0,1,.5-.5h1.5a.5.5,0,0,1,.5.5A.5.5,0,0,1-71.2,555.215Z" fill="#039be5"/>
        </g>
        <g id="Group_59104" data-name="Group 59104">
          <path id="Path_102160" data-name="Path 102160" d="M2.033,555.215H-1.018a.5.5,0,0,1-.5-.5.5.5,0,0,1,.5-.5H2.033a.5.5,0,1,1,0,1Zm-6.1,0H-7.121a.5.5,0,0,1-.5-.5.5.5,0,0,1,.5-.5H-4.07a.5.5,0,0,1,.5.5A.5.5,0,0,1-4.07,555.215Zm-6.1,0h-3.052a.5.5,0,0,1-.5-.5.5.5,0,0,1,.5-.5h3.052a.5.5,0,0,1,.5.5A.5.5,0,0,1-10.172,555.215Zm-6.1,0h-3.05a.5.5,0,0,1-.5-.5.5.5,0,0,1,.5-.5h3.05a.5.5,0,0,1,.5.5A.5.5,0,0,1-16.276,555.215Zm-6.1,0H-25.43a.5.5,0,0,1-.5-.5.5.5,0,0,1,.5-.5h3.052a.5.5,0,0,1,.5.5A.5.5,0,0,1-22.378,555.215Zm-6.1,0h-3.051a.5.5,0,0,1-.5-.5.5.5,0,0,1,.5-.5h3.051a.5.5,0,0,1,.5.5A.5.5,0,0,1-28.481,555.215Zm-6.1,0h-3.051a.5.5,0,0,1-.5-.5.5.5,0,0,1,.5-.5h3.051a.5.5,0,0,1,.5.5A.5.5,0,0,1-34.584,555.215Zm-6.1,0h-3.052a.5.5,0,0,1-.5-.5.5.5,0,0,1,.5-.5h3.052a.5.5,0,0,1,.5.5A.5.5,0,0,1-40.687,555.215Zm-6.1,0h-3.052a.5.5,0,0,1-.5-.5.5.5,0,0,1,.5-.5h3.052a.5.5,0,0,1,.5.5A.5.5,0,0,1-46.789,555.215Zm-6.1,0h-3.051a.5.5,0,0,1-.5-.5.5.5,0,0,1,.5-.5h3.051a.5.5,0,0,1,.5.5A.5.5,0,0,1-52.893,555.215Zm-6.1,0h-3.052a.5.5,0,0,1-.5-.5.5.5,0,0,1,.5-.5h3.052a.5.5,0,0,1,.5.5A.5.5,0,0,1-58.995,555.215Zm-6.1,0H-68.15a.5.5,0,0,1-.5-.5.5.5,0,0,1,.5-.5H-65.1a.5.5,0,0,1,.5.5A.5.5,0,0,1-65.1,555.215Z" fill="#12263f"/>
        </g>
        <g id="Group_59105" data-name="Group 59105">
          <path id="Path_102161" data-name="Path 102161" d="M6.585,555.215h-1.5a.5.5,0,0,1,0-1h1.5a.5.5,0,0,1,0,1Z" fill="#039be5"/>
        </g>
      </g>
      <g id="Group_59110" data-name="Group 59110">
        <g id="Group_59107" data-name="Group 59107">
          <path id="Path_102162" data-name="Path 102162" d="M-231.832,756.75a.75.75,0,0,1-.75-.75v-2.5a.75.75,0,0,1,.75-.75.75.75,0,0,1,.75.75V756A.75.75,0,0,1-231.832,756.75Z" fill="#12263f"/>
        </g>
        <g id="Group_59108" data-name="Group 59108">
          <path id="Path_102163" data-name="Path 102163" d="M-231.832,749.154a.75.75,0,0,1-.75-.75v-5.1a.75.75,0,0,1,.75-.75.75.75,0,0,1,.75.75v5.1A.75.75,0,0,1-231.832,749.154Zm0-10.193a.75.75,0,0,1-.75-.75v-5.095a.75.75,0,0,1,.75-.75.75.75,0,0,1,.75.75v5.095A.75.75,0,0,1-231.832,738.961Zm0-10.191a.75.75,0,0,1-.75-.75v-5.1a.75.75,0,0,1,.75-.75.75.75,0,0,1,.75.75v5.1A.75.75,0,0,1-231.832,728.77Zm0-10.192a.75.75,0,0,1-.75-.75v-5.1a.75.75,0,0,1,.75-.75.75.75,0,0,1,.75.75v5.1A.75.75,0,0,1-231.832,718.578Zm0-10.193a.75.75,0,0,1-.75-.75v-5.1a.75.75,0,0,1,.75-.75.75.75,0,0,1,.75.75v5.1A.75.75,0,0,1-231.832,708.385Zm0-10.191a.75.75,0,0,1-.75-.75v-5.1a.75.75,0,0,1,.75-.75.75.75,0,0,1,.75.75v5.1A.75.75,0,0,1-231.832,698.194Zm0-10.193a.75.75,0,0,1-.75-.75v-5.095a.75.75,0,0,1,.75-.75.75.75,0,0,1,.75.75v5.095A.75.75,0,0,1-231.832,688Zm0-10.192a.75.75,0,0,1-.75-.75v-5.1a.75.75,0,0,1,.75-.75.75.75,0,0,1,.75.75v5.1A.75.75,0,0,1-231.832,677.809Zm0-10.191a.75.75,0,0,1-.75-.75v-5.1a.75.75,0,0,1,.75-.75.75.75,0,0,1,.75.75v5.1A.75.75,0,0,1-231.832,667.618Zm0-10.193a.75.75,0,0,1-.75-.75V651.58a.75.75,0,0,1,.75-.75.75.75,0,0,1,.75.75v5.095A.75.75,0,0,1-231.832,657.425Zm0-10.192a.75.75,0,0,1-.75-.75v-5.1a.75.75,0,0,1,.75-.75.75.75,0,0,1,.75.75v5.1A.75.75,0,0,1-231.832,647.233Zm0-10.191a.75.75,0,0,1-.75-.75v-5.1a.75.75,0,0,1,.75-.75.75.75,0,0,1,.75.75v5.1A.75.75,0,0,1-231.832,637.042Zm0-10.193a.75.75,0,0,1-.75-.75V621a.75.75,0,0,1,.75-.75.75.75,0,0,1,.75.75v5.1A.75.75,0,0,1-231.832,626.849Zm0-10.192a.75.75,0,0,1-.75-.75v-5.1a.75.75,0,0,1,.75-.75.75.75,0,0,1,.75.75v5.1A.75.75,0,0,1-231.832,616.657Zm0-10.192a.75.75,0,0,1-.75-.75v-5.1a.75.75,0,0,1,.75-.75.75.75,0,0,1,.75.75v5.1A.75.75,0,0,1-231.832,606.465Zm0-10.192a.75.75,0,0,1-.75-.75v-5.1a.75.75,0,0,1,.75-.75.75.75,0,0,1,.75.75v5.1A.75.75,0,0,1-231.832,596.273Zm0-10.192a.75.75,0,0,1-.75-.75v-5.1a.75.75,0,0,1,.75-.75.75.75,0,0,1,.75.75v5.1A.75.75,0,0,1-231.832,586.081Zm0-10.192a.75.75,0,0,1-.75-.75v-5.1a.75.75,0,0,1,.75-.75.75.75,0,0,1,.75.75v5.1A.75.75,0,0,1-231.832,575.889Zm0-10.192a.75.75,0,0,1-.75-.75v-5.1a.75.75,0,0,1,.75-.75.75.75,0,0,1,.75.75v5.1A.75.75,0,0,1-231.832,565.7Zm0-10.193a.75.75,0,0,1-.75-.75v-5.1a.75.75,0,0,1,.75-.75.75.75,0,0,1,.75.75v5.1A.75.75,0,0,1-231.832,555.5Zm0-10.192a.75.75,0,0,1-.75-.75v-5.1a.75.75,0,0,1,.75-.75.75.75,0,0,1,.75.75v5.1A.75.75,0,0,1-231.832,545.312Zm0-10.191a.75.75,0,0,1-.75-.75v-5.1a.75.75,0,0,1,.75-.75.75.75,0,0,1,.75.75v5.1A.75.75,0,0,1-231.832,535.121Z" fill="#12263f"/>
        </g>
        <g id="Group_59109" data-name="Group 59109">
          <path id="Path_102164" data-name="Path 102164" d="M-231.832,524.928a.75.75,0,0,1-.75-.75v-2.5a.75.75,0,0,1,.75-.75.75.75,0,0,1,.75.75v2.5A.75.75,0,0,1-231.832,524.928Z" fill="#12263f"/>
        </g>
      </g>
      <g id="Group_59111" data-name="Group 59111">
        <path id="Path_102165" data-name="Path 102165" d="M16.543,554.716,6.268,550.644v8.143Z" fill="#12263f"/>
      </g>
      <g id="Group_59112" data-name="Group 59112">
        <path id="Line_144" data-name="Line 144" d="M76.929.5H0v-1H76.929Z" transform="translate(-556.945 627.427)" fill="#039be5"/>
        <path id="Line_145" data-name="Line 145" d="M76.929.5H0v-1H76.929Z" transform="translate(-556.945 618.106)" fill="#039be5"/>
        <path id="Line_146" data-name="Line 146" d="M76.929.5H0v-1H76.929Z" transform="translate(-556.945 608.784)" fill="#039be5"/>
        <path id="Line_147" data-name="Line 147" d="M76.929.5H0v-1H76.929Z" transform="translate(-556.945 599.463)" fill="#039be5"/>
        <path id="Line_148" data-name="Line 148" d="M.5,62.571h-1V0h1Z" transform="translate(-532.463 582.749)" fill="#039be5"/>
        <path id="Line_149" data-name="Line 149" d="M.5,62.571h-1V0h1Z" transform="translate(-523.141 582.749)" fill="#039be5"/>
        <path id="Line_150" data-name="Line 150" d="M.5,62.571h-1V0h1Z" transform="translate(-513.82 582.749)" fill="#039be5"/>
        <path id="Line_151" data-name="Line 151" d="M.5,62.571h-1V0h1Z" transform="translate(-504.498 582.749)" fill="#039be5"/>
        <rect id="Rectangle_7577" data-name="Rectangle 7577" width="51.107" height="41.786" transform="translate(-543.981 592.713)" fill="#4dd0e1"/>
        <path id="Rectangle_7577_-_Outline" data-name="Rectangle 7577 - Outline" d="M-.5-.5H51.607V42.286H-.5ZM50.607.5H.5V41.286H50.607Z" transform="translate(-543.981 592.713)" fill="#039be5"/>
        <rect id="Rectangle_7578" data-name="Rectangle 7578" width="36.964" height="30.222" transform="translate(-536.909 598.495)" fill="#58edf9"/>
        <path id="Rectangle_7578_-_Outline" data-name="Rectangle 7578 - Outline" d="M-.5-.5H37.464V30.722H-.5ZM36.464.5H.5V29.722H36.464Z" transform="translate(-536.909 598.495)" fill="#039be5"/>
      </g>
      <g id="Group_59113" data-name="Group 59113">
        <path id="Line_152" data-name="Line 152" d="M76.929.5H0v-1H76.929Z" transform="translate(-603.873 574.82)" fill="#039be5"/>
        <path id="Line_153" data-name="Line 153" d="M76.929.5H0v-1H76.929Z" transform="translate(-603.873 565.499)" fill="#039be5"/>
        <path id="Line_154" data-name="Line 154" d="M76.929.5H0v-1H76.929Z" transform="translate(-603.873 556.177)" fill="#039be5"/>
        <path id="Line_155" data-name="Line 155" d="M76.929.5H0v-1H76.929Z" transform="translate(-603.873 546.856)" fill="#039be5"/>
        <path id="Line_156" data-name="Line 156" d="M.5,62.571h-1V0h1Z" transform="translate(-579.391 530.142)" fill="#039be5"/>
        <path id="Line_157" data-name="Line 157" d="M.5,62.571h-1V0h1Z" transform="translate(-570.07 530.142)" fill="#039be5"/>
        <path id="Line_158" data-name="Line 158" d="M.5,62.571h-1V0h1Z" transform="translate(-560.748 530.142)" fill="#039be5"/>
        <path id="Line_159" data-name="Line 159" d="M.5,62.571h-1V0h1Z" transform="translate(-551.427 530.142)" fill="#039be5"/>
        <rect id="Rectangle_7579" data-name="Rectangle 7579" width="51.107" height="41.786" transform="translate(-590.909 540.106)" fill="#4dd0e1"/>
        <path id="Rectangle_7579_-_Outline" data-name="Rectangle 7579 - Outline" d="M-.5-.5H51.607V42.286H-.5ZM50.607.5H.5V41.286H50.607Z" transform="translate(-590.909 540.106)" fill="#039be5"/>
        <rect id="Rectangle_7580" data-name="Rectangle 7580" width="36.964" height="30.222" transform="translate(-583.838 545.887)" fill="#58edf9"/>
        <path id="Rectangle_7580_-_Outline" data-name="Rectangle 7580 - Outline" d="M-.5-.5H37.464V30.722H-.5ZM36.464.5H.5V29.722H36.464Z" transform="translate(-583.838 545.887)" fill="#039be5"/>
      </g>
      <path id="Path_102166" data-name="Path 102166" d="M-667.509,599.764v27.819c0,3.7,9.089,6.7,20.3,6.7s20.3-3,20.3-6.7V599.764h-40.6Z" fill="#fff5d4"/>
      <path id="Path_102166_-_Outline" data-name="Path 102166 - Outline" d="M-668.009,599.264h41.6v28.319a3.9,3.9,0,0,1-1.788,3,15.067,15.067,0,0,1-4.5,2.21,48.171,48.171,0,0,1-14.511,1.987,48.171,48.171,0,0,1-14.511-1.987,15.067,15.067,0,0,1-4.5-2.21,3.9,3.9,0,0,1-1.788-3Zm40.6,1h-39.6v27.319c0,1.534,2.042,3.087,5.6,4.262a47.16,47.16,0,0,0,14.2,1.937,47.16,47.16,0,0,0,14.2-1.937c3.56-1.175,5.6-2.728,5.6-4.262Z" fill="#ffa726"/>
      <ellipse id="Ellipse_4059" data-name="Ellipse 4059" cx="20.3" cy="6.699" rx="20.3" ry="6.699" transform="translate(-667.509 593.065)" fill="#fff5d4"/>
      <path id="Ellipse_4059_-_Outline" data-name="Ellipse 4059 - Outline" d="M20.3-.5A48.168,48.168,0,0,1,34.81,1.487a15.067,15.067,0,0,1,4.5,2.21,3.9,3.9,0,0,1,1.788,3,3.9,3.9,0,0,1-1.788,3,15.067,15.067,0,0,1-4.5,2.21A48.168,48.168,0,0,1,20.3,13.9,48.168,48.168,0,0,1,5.789,11.911a15.067,15.067,0,0,1-4.5-2.21A3.9,3.9,0,0,1-.5,6.7a3.9,3.9,0,0,1,1.788-3,15.067,15.067,0,0,1,4.5-2.21A48.168,48.168,0,0,1,20.3-.5Zm0,13.4a47.16,47.16,0,0,0,14.2-1.937c3.56-1.175,5.6-2.728,5.6-4.262s-2.042-3.087-5.6-4.262A47.16,47.16,0,0,0,20.3.5,47.159,47.159,0,0,0,6.1,2.437C2.542,3.612.5,5.165.5,6.7s2.042,3.087,5.6,4.262A47.16,47.16,0,0,0,20.3,12.9Z" transform="translate(-667.509 593.065)" fill="#ffa726"/>
      <path id="Path_102167" data-name="Path 102167" d="M-727.32,599.764v27.819c0,3.7,9.089,6.7,20.3,6.7s20.3-3,20.3-6.7V599.764Z" fill="#fff5d4"/>
      <path id="Path_102167_-_Outline" data-name="Path 102167 - Outline" d="M-727.82,599.264h41.6v28.319a3.9,3.9,0,0,1-1.788,3,15.067,15.067,0,0,1-4.5,2.21,48.17,48.17,0,0,1-14.511,1.987,48.171,48.171,0,0,1-14.511-1.987,15.067,15.067,0,0,1-4.5-2.21,3.9,3.9,0,0,1-1.788-3Zm40.6,1h-39.6v27.319c0,1.534,2.042,3.087,5.6,4.262a47.16,47.16,0,0,0,14.2,1.937,47.16,47.16,0,0,0,14.2-1.937c3.561-1.175,5.6-2.728,5.6-4.262Z" fill="#ffa726"/>
      <ellipse id="Ellipse_4060" data-name="Ellipse 4060" cx="20.3" cy="6.699" rx="20.3" ry="6.699" transform="translate(-727.32 593.065)" fill="#fff5d4"/>
      <path id="Ellipse_4060_-_Outline" data-name="Ellipse 4060 - Outline" d="M20.3-.5A48.168,48.168,0,0,1,34.81,1.487a15.067,15.067,0,0,1,4.5,2.21,3.9,3.9,0,0,1,1.788,3,3.9,3.9,0,0,1-1.788,3,15.067,15.067,0,0,1-4.5,2.21A48.168,48.168,0,0,1,20.3,13.9,48.168,48.168,0,0,1,5.789,11.911a15.067,15.067,0,0,1-4.5-2.21A3.9,3.9,0,0,1-.5,6.7a3.9,3.9,0,0,1,1.788-3,15.067,15.067,0,0,1,4.5-2.21A48.168,48.168,0,0,1,20.3-.5Zm0,13.4a47.16,47.16,0,0,0,14.2-1.937c3.56-1.175,5.6-2.728,5.6-4.262s-2.042-3.087-5.6-4.262A47.16,47.16,0,0,0,20.3.5,47.159,47.159,0,0,0,6.1,2.437C2.542,3.612.5,5.165.5,6.7s2.042,3.087,5.6,4.262A47.16,47.16,0,0,0,20.3,12.9Z" transform="translate(-727.32 593.065)" fill="#ffa726"/>
      <path id="Path_102168" data-name="Path 102168" d="M-697.091,613.708v27.819c0,3.7,9.089,6.7,20.3,6.7s20.3-3,20.3-6.7V613.708Z" fill="#fff5d4"/>
      <path id="Path_102168_-_Outline" data-name="Path 102168 - Outline" d="M-697.591,613.208h41.6v28.319a3.9,3.9,0,0,1-1.788,3,15.07,15.07,0,0,1-4.5,2.21,48.165,48.165,0,0,1-14.511,1.988,48.165,48.165,0,0,1-14.511-1.988,15.07,15.07,0,0,1-4.5-2.21,3.9,3.9,0,0,1-1.788-3Zm40.6,1h-39.6v27.319c0,1.533,2.042,3.087,5.6,4.262a47.157,47.157,0,0,0,14.2,1.937,47.157,47.157,0,0,0,14.2-1.937c3.56-1.175,5.6-2.728,5.6-4.262Z" fill="#ffa726"/>
      <ellipse id="Ellipse_4061" data-name="Ellipse 4061" cx="20.3" cy="6.699" rx="20.3" ry="6.699" transform="translate(-697.091 607.009)" fill="#fff5d4"/>
      <path id="Ellipse_4061_-_Outline" data-name="Ellipse 4061 - Outline" d="M20.3-.5A48.168,48.168,0,0,1,34.81,1.487a15.067,15.067,0,0,1,4.5,2.21,3.9,3.9,0,0,1,1.788,3,3.9,3.9,0,0,1-1.788,3,15.067,15.067,0,0,1-4.5,2.21A48.168,48.168,0,0,1,20.3,13.9,48.168,48.168,0,0,1,5.789,11.911a15.067,15.067,0,0,1-4.5-2.21A3.9,3.9,0,0,1-.5,6.7a3.9,3.9,0,0,1,1.788-3,15.067,15.067,0,0,1,4.5-2.21A48.168,48.168,0,0,1,20.3-.5Zm0,13.4a47.16,47.16,0,0,0,14.2-1.937c3.56-1.175,5.6-2.728,5.6-4.262s-2.042-3.087-5.6-4.262A47.16,47.16,0,0,0,20.3.5,47.159,47.159,0,0,0,6.1,2.437C2.542,3.612.5,5.165.5,6.7s2.042,3.087,5.6,4.262A47.16,47.16,0,0,0,20.3,12.9Z" transform="translate(-697.091 607.009)" fill="#ffa726"/>
      <g id="Group_59114" data-name="Group 59114">
        <rect id="Rectangle_7581" data-name="Rectangle 7581" width="130.339" height="8.357" transform="translate(-610.489 725.061)" fill="#ccc"/>
        <path id="Rectangle_7581_-_Outline" data-name="Rectangle 7581 - Outline" d="M-.5-.5H130.839V8.857H-.5ZM129.839.5H.5V7.857H129.839Z" transform="translate(-610.489 725.061)" fill="gray"/>
        <rect id="Rectangle_7582" data-name="Rectangle 7582" width="109.125" height="8.357" transform="translate(-599.882 725.061)" fill="#ccc"/>
        <path id="Rectangle_7582_-_Outline" data-name="Rectangle 7582 - Outline" d="M-.5-.5H109.625V8.857H-.5ZM108.625.5H.5V7.857H108.625Z" transform="translate(-599.882 725.061)" fill="gray"/>
        <rect id="Rectangle_7583" data-name="Rectangle 7583" width="89.839" height="8.357" transform="translate(-590.239 725.061)" fill="#ccc"/>
        <path id="Rectangle_7583_-_Outline" data-name="Rectangle 7583 - Outline" d="M-.5-.5H90.339V8.857H-.5ZM89.339.5H.5V7.857H89.339Z" transform="translate(-590.239 725.061)" fill="gray"/>
        <rect id="Rectangle_7584" data-name="Rectangle 7584" width="72.482" height="8.357" transform="translate(-581.561 725.061)" fill="#ccc"/>
        <path id="Rectangle_7584_-_Outline" data-name="Rectangle 7584 - Outline" d="M-.5-.5H72.982V8.857H-.5ZM71.982.5H.5V7.857H71.982Z" transform="translate(-581.561 725.061)" fill="gray"/>
        <rect id="Rectangle_7585" data-name="Rectangle 7585" width="52.232" height="8.357" transform="translate(-571.436 725.061)" fill="#ccc"/>
        <path id="Rectangle_7585_-_Outline" data-name="Rectangle 7585 - Outline" d="M-.5-.5H52.732V8.857H-.5ZM51.732.5H.5V7.857H51.732Z" transform="translate(-571.436 725.061)" fill="gray"/>
        <rect id="Rectangle_7586" data-name="Rectangle 7586" width="34.232" height="8.357" transform="translate(-562.436 725.061)" fill="#ccc"/>
        <path id="Rectangle_7586_-_Outline" data-name="Rectangle 7586 - Outline" d="M-.5-.5H34.732V8.857H-.5ZM33.732.5H.5V7.857H33.732Z" transform="translate(-562.436 725.061)" fill="gray"/>
        <rect id="Rectangle_7587" data-name="Rectangle 7587" width="12.375" height="8.357" transform="translate(-551.507 725.061)" fill="#ccc"/>
        <path id="Rectangle_7587_-_Outline" data-name="Rectangle 7587 - Outline" d="M-.5-.5H12.875V8.857H-.5ZM11.875.5H.5V7.857H11.875Z" transform="translate(-551.507 725.061)" fill="gray"/>
        <rect id="Rectangle_7588" data-name="Rectangle 7588" width="141.75" height="34.071" transform="translate(-614.507 690.99)" fill="#4dd0e1"/>
        <path id="Rectangle_7588_-_Outline" data-name="Rectangle 7588 - Outline" d="M-.5-.5H142.25V34.571H-.5ZM141.25.5H.5V33.571H141.25Z" transform="translate(-614.507 690.99)" fill="#039be5"/>
        <rect id="Rectangle_7589" data-name="Rectangle 7589" width="27.241" height="4.339" transform="translate(-608.802 697.097)" fill="#ccc"/>
        <path id="Rectangle_7589_-_Outline" data-name="Rectangle 7589 - Outline" d="M-.5-.5H27.741V4.839H-.5ZM26.741.5H.5V3.839H26.741Z" transform="translate(-608.802 697.097)" fill="gray"/>
        <rect id="Rectangle_7590" data-name="Rectangle 7590" width="27.241" height="4.339" transform="translate(-608.802 701.436)" fill="#ccc"/>
        <path id="Rectangle_7590_-_Outline" data-name="Rectangle 7590 - Outline" d="M-.5-.5H27.741V4.839H-.5ZM26.741.5H.5V3.839H26.741Z" transform="translate(-608.802 701.436)" fill="gray"/>
        <rect id="Rectangle_7591" data-name="Rectangle 7591" width="27.241" height="4.339" transform="translate(-608.802 705.775)" fill="#ccc"/>
        <path id="Rectangle_7591_-_Outline" data-name="Rectangle 7591 - Outline" d="M-.5-.5H27.741V4.839H-.5ZM26.741.5H.5V3.839H26.741Z" transform="translate(-608.802 705.775)" fill="gray"/>
        <rect id="Rectangle_7592" data-name="Rectangle 7592" width="27.241" height="4.339" transform="translate(-608.802 710.115)" fill="#ccc"/>
        <path id="Rectangle_7592_-_Outline" data-name="Rectangle 7592 - Outline" d="M-.5-.5H27.741V4.839H-.5ZM26.741.5H.5V3.839H26.741Z" transform="translate(-608.802 710.115)" fill="gray"/>
        <rect id="Rectangle_7593" data-name="Rectangle 7593" width="27.241" height="4.339" transform="translate(-608.802 714.454)" fill="#ccc"/>
        <path id="Rectangle_7593_-_Outline" data-name="Rectangle 7593 - Outline" d="M-.5-.5H27.741V4.839H-.5ZM26.741.5H.5V3.839H26.741Z" transform="translate(-608.802 714.454)" fill="gray"/>
        <rect id="Rectangle_7594" data-name="Rectangle 7594" width="27.241" height="4.339" transform="translate(-575.293 697.097)" fill="#ccc"/>
        <path id="Rectangle_7594_-_Outline" data-name="Rectangle 7594 - Outline" d="M-.5-.5H27.741V4.839H-.5ZM26.741.5H.5V3.839H26.741Z" transform="translate(-575.293 697.097)" fill="gray"/>
        <rect id="Rectangle_7595" data-name="Rectangle 7595" width="27.241" height="4.339" transform="translate(-575.293 701.436)" fill="#ccc"/>
        <path id="Rectangle_7595_-_Outline" data-name="Rectangle 7595 - Outline" d="M-.5-.5H27.741V4.839H-.5ZM26.741.5H.5V3.839H26.741Z" transform="translate(-575.293 701.436)" fill="gray"/>
        <rect id="Rectangle_7596" data-name="Rectangle 7596" width="27.241" height="4.339" transform="translate(-575.293 705.775)" fill="#ccc"/>
        <path id="Rectangle_7596_-_Outline" data-name="Rectangle 7596 - Outline" d="M-.5-.5H27.741V4.839H-.5ZM26.741.5H.5V3.839H26.741Z" transform="translate(-575.293 705.775)" fill="gray"/>
        <rect id="Rectangle_7597" data-name="Rectangle 7597" width="27.241" height="4.339" transform="translate(-575.293 710.115)" fill="#ccc"/>
        <path id="Rectangle_7597_-_Outline" data-name="Rectangle 7597 - Outline" d="M-.5-.5H27.741V4.839H-.5ZM26.741.5H.5V3.839H26.741Z" transform="translate(-575.293 710.115)" fill="gray"/>
        <rect id="Rectangle_7598" data-name="Rectangle 7598" width="27.241" height="4.339" transform="translate(-575.293 714.454)" fill="#ccc"/>
        <path id="Rectangle_7598_-_Outline" data-name="Rectangle 7598 - Outline" d="M-.5-.5H27.741V4.839H-.5ZM26.741.5H.5V3.839H26.741Z" transform="translate(-575.293 714.454)" fill="gray"/>
        <rect id="Rectangle_7599" data-name="Rectangle 7599" width="27.241" height="4.339" transform="translate(-541.784 697.097)" fill="#ccc"/>
        <path id="Rectangle_7599_-_Outline" data-name="Rectangle 7599 - Outline" d="M-.5-.5H27.741V4.839H-.5ZM26.741.5H.5V3.839H26.741Z" transform="translate(-541.784 697.097)" fill="gray"/>
        <rect id="Rectangle_7600" data-name="Rectangle 7600" width="27.241" height="4.339" transform="translate(-541.784 701.436)" fill="#ccc"/>
        <path id="Rectangle_7600_-_Outline" data-name="Rectangle 7600 - Outline" d="M-.5-.5H27.741V4.839H-.5ZM26.741.5H.5V3.839H26.741Z" transform="translate(-541.784 701.436)" fill="gray"/>
        <rect id="Rectangle_7601" data-name="Rectangle 7601" width="27.241" height="4.339" transform="translate(-541.784 705.775)" fill="#ccc"/>
        <path id="Rectangle_7601_-_Outline" data-name="Rectangle 7601 - Outline" d="M-.5-.5H27.741V4.839H-.5ZM26.741.5H.5V3.839H26.741Z" transform="translate(-541.784 705.775)" fill="gray"/>
        <rect id="Rectangle_7602" data-name="Rectangle 7602" width="27.241" height="4.339" transform="translate(-541.784 710.115)" fill="#ccc"/>
        <path id="Rectangle_7602_-_Outline" data-name="Rectangle 7602 - Outline" d="M-.5-.5H27.741V4.839H-.5ZM26.741.5H.5V3.839H26.741Z" transform="translate(-541.784 710.115)" fill="gray"/>
        <rect id="Rectangle_7603" data-name="Rectangle 7603" width="27.241" height="4.339" transform="translate(-541.784 714.454)" fill="#ccc"/>
        <path id="Rectangle_7603_-_Outline" data-name="Rectangle 7603 - Outline" d="M-.5-.5H27.741V4.839H-.5ZM26.741.5H.5V3.839H26.741Z" transform="translate(-541.784 714.454)" fill="gray"/>
        <rect id="Rectangle_7604" data-name="Rectangle 7604" width="27.241" height="4.339" transform="translate(-508.275 697.097)" fill="#ccc"/>
        <path id="Rectangle_7604_-_Outline" data-name="Rectangle 7604 - Outline" d="M-.5-.5H27.741V4.839H-.5ZM26.741.5H.5V3.839H26.741Z" transform="translate(-508.275 697.097)" fill="gray"/>
        <rect id="Rectangle_7605" data-name="Rectangle 7605" width="27.241" height="4.339" transform="translate(-508.275 701.436)" fill="#ccc"/>
        <path id="Rectangle_7605_-_Outline" data-name="Rectangle 7605 - Outline" d="M-.5-.5H27.741V4.839H-.5ZM26.741.5H.5V3.839H26.741Z" transform="translate(-508.275 701.436)" fill="gray"/>
        <rect id="Rectangle_7606" data-name="Rectangle 7606" width="27.241" height="4.339" transform="translate(-508.275 705.775)" fill="#ccc"/>
        <path id="Rectangle_7606_-_Outline" data-name="Rectangle 7606 - Outline" d="M-.5-.5H27.741V4.839H-.5ZM26.741.5H.5V3.839H26.741Z" transform="translate(-508.275 705.775)" fill="gray"/>
        <rect id="Rectangle_7607" data-name="Rectangle 7607" width="27.241" height="4.339" transform="translate(-508.275 710.115)" fill="#ccc"/>
        <path id="Rectangle_7607_-_Outline" data-name="Rectangle 7607 - Outline" d="M-.5-.5H27.741V4.839H-.5ZM26.741.5H.5V3.839H26.741Z" transform="translate(-508.275 710.115)" fill="gray"/>
        <rect id="Rectangle_7608" data-name="Rectangle 7608" width="27.241" height="4.339" transform="translate(-508.275 714.454)" fill="#ccc"/>
        <path id="Rectangle_7608_-_Outline" data-name="Rectangle 7608 - Outline" d="M-.5-.5H27.741V4.839H-.5ZM26.741.5H.5V3.839H26.741Z" transform="translate(-508.275 714.454)" fill="gray"/>
      </g>
      <path id="Path_102179" data-name="Path 102179" d="M3.508,0H1.164V-11.375H3.508Zm4.1-8.453.07.977a2.951,2.951,0,0,1,2.43-1.133,2.453,2.453,0,0,1,2,.789,3.682,3.682,0,0,1,.672,2.359V0H10.523V-5.406a1.465,1.465,0,0,0-.312-1.043,1.4,1.4,0,0,0-1.039-.324,1.553,1.553,0,0,0-1.43.813V0H5.484V-8.453ZM15.109,0V-6.8H13.852V-8.453h1.258v-.719a2.918,2.918,0,0,1,.816-2.207,3.162,3.162,0,0,1,2.285-.785,5.278,5.278,0,0,1,1.148.156l-.023,1.75a2.878,2.878,0,0,0-.687-.07q-1.273,0-1.273,1.2v.68h1.68V-6.8h-1.68V0Zm9.867-6.336a6.134,6.134,0,0,0-.812-.062,1.654,1.654,0,0,0-1.68.867V0H20.227V-8.453h2.133l.063,1.008A2.092,2.092,0,0,1,24.3-8.609a2.366,2.366,0,0,1,.7.1ZM30.727,0A2.507,2.507,0,0,1,30.5-.758a2.732,2.732,0,0,1-2.133.914,3,3,0,0,1-2.059-.719,2.312,2.312,0,0,1-.816-1.812,2.389,2.389,0,0,1,1-2.062,4.915,4.915,0,0,1,2.879-.727h1.039v-.484a1.393,1.393,0,0,0-.3-.937,1.183,1.183,0,0,0-.949-.352,1.345,1.345,0,0,0-.895.273.929.929,0,0,0-.324.75H25.68a2.268,2.268,0,0,1,.453-1.359,3,3,0,0,1,1.281-.98,4.669,4.669,0,0,1,1.859-.355,3.689,3.689,0,0,1,2.48.785,2.747,2.747,0,0,1,.918,2.207v3.664a4.041,4.041,0,0,0,.336,1.82V0ZM28.859-1.57a1.945,1.945,0,0,0,.922-.223,1.462,1.462,0,0,0,.625-.6V-3.844h-.844q-1.7,0-1.8,1.172l-.008.133a.9.9,0,0,0,.3.7A1.153,1.153,0,0,0,28.859-1.57ZM38.3.156A4.15,4.15,0,0,1,35.27-.984,4.054,4.054,0,0,1,34.1-4.023v-.219a5.106,5.106,0,0,1,.492-2.277,3.612,3.612,0,0,1,1.395-1.547,3.914,3.914,0,0,1,2.059-.543,3.508,3.508,0,0,1,2.73,1.094,4.444,4.444,0,0,1,1,3.1v.922H36.391a2.1,2.1,0,0,0,.66,1.328,2,2,0,0,0,1.395.5,2.437,2.437,0,0,0,2.039-.945l1.109,1.242A3.389,3.389,0,0,1,40.219-.246,4.511,4.511,0,0,1,38.3.156Zm-.258-6.945a1.411,1.411,0,0,0-1.09.455,2.357,2.357,0,0,0-.535,1.3h3.141v-.181a1.681,1.681,0,0,0-.406-1.165A1.456,1.456,0,0,0,38.039-6.789Zm9.594,4.453a.727.727,0,0,0-.41-.652,4.659,4.659,0,0,0-1.316-.426q-3.016-.633-3.016-2.562a2.323,2.323,0,0,1,.934-1.879,3.766,3.766,0,0,1,2.441-.754,4.053,4.053,0,0,1,2.574.758A2.388,2.388,0,0,1,49.8-5.883H47.547a1.092,1.092,0,0,0-.312-.8A1.322,1.322,0,0,0,46.258-7a1.351,1.351,0,0,0-.883.258.814.814,0,0,0-.312.656.7.7,0,0,0,.355.605,3.657,3.657,0,0,0,1.2.4,9.8,9.8,0,0,1,1.422.379A2.336,2.336,0,0,1,49.828-2.43a2.2,2.2,0,0,1-.992,1.871,4.28,4.28,0,0,1-2.562.715,4.47,4.47,0,0,1-1.887-.379,3.166,3.166,0,0,1-1.293-1.039,2.414,2.414,0,0,1-.469-1.426h2.141a1.179,1.179,0,0,0,.445.922,1.766,1.766,0,0,0,1.109.32,1.635,1.635,0,0,0,.98-.246A.766.766,0,0,0,47.633-2.336Zm6.352-8.2v2.078H55.43V-6.8H53.984v4.219a1.007,1.007,0,0,0,.18.672.9.9,0,0,0,.688.2,3.6,3.6,0,0,0,.664-.055V-.047a4.648,4.648,0,0,1-1.367.2,2.156,2.156,0,0,1-2.422-2.4V-6.8H50.492V-8.453h1.234v-2.078Zm7.453,4.2a6.134,6.134,0,0,0-.812-.062,1.654,1.654,0,0,0-1.68.867V0H56.688V-8.453H58.82l.063,1.008a2.092,2.092,0,0,1,1.883-1.164,2.366,2.366,0,0,1,.7.1ZM67.586-.859A2.831,2.831,0,0,1,65.273.156,2.67,2.67,0,0,1,63.2-.625a3.335,3.335,0,0,1-.73-2.289V-8.453h2.258v5.467q0,1.322,1.2,1.322a1.63,1.63,0,0,0,1.578-.8V-8.453h2.266V0H67.648Zm7.406-.8a1.481,1.481,0,0,0,1.016-.344,1.2,1.2,0,0,0,.406-.914h2.117a2.9,2.9,0,0,1-.469,1.574A3.093,3.093,0,0,1,76.8-.238a3.949,3.949,0,0,1-1.77.395A3.67,3.67,0,0,1,72.172-1,4.56,4.56,0,0,1,71.125-4.18v-.148a4.508,4.508,0,0,1,1.039-3.117,3.627,3.627,0,0,1,2.852-1.164,3.555,3.555,0,0,1,2.543.9,3.2,3.2,0,0,1,.973,2.4H76.414a1.551,1.551,0,0,0-.406-1.072,1.354,1.354,0,0,0-1.031-.412,1.36,1.36,0,0,0-1.191.575,3.333,3.333,0,0,0-.4,1.866v.235a3.375,3.375,0,0,0,.4,1.878A1.377,1.377,0,0,0,74.992-1.664Zm7.531-8.867v2.078h1.445V-6.8H82.523v4.219a1.007,1.007,0,0,0,.18.672.9.9,0,0,0,.688.2,3.6,3.6,0,0,0,.664-.055V-.047a4.648,4.648,0,0,1-1.367.2,2.156,2.156,0,0,1-2.422-2.4V-6.8H79.031V-8.453h1.234v-2.078ZM90.289-.859A2.831,2.831,0,0,1,87.977.156,2.67,2.67,0,0,1,85.9-.625a3.335,3.335,0,0,1-.73-2.289V-8.453H87.43v5.467q0,1.322,1.2,1.322a1.63,1.63,0,0,0,1.578-.8V-8.453h2.266V0H90.352ZM98.93-6.336a6.134,6.134,0,0,0-.812-.062,1.654,1.654,0,0,0-1.68.867V0H94.18V-8.453h2.133l.063,1.008a2.092,2.092,0,0,1,1.883-1.164,2.366,2.366,0,0,1,.7.1ZM104.68,0a2.507,2.507,0,0,1-.227-.758,2.732,2.732,0,0,1-2.133.914,3,3,0,0,1-2.059-.719,2.312,2.312,0,0,1-.816-1.812,2.389,2.389,0,0,1,1-2.062,4.915,4.915,0,0,1,2.879-.727h1.039v-.484a1.393,1.393,0,0,0-.3-.937,1.183,1.183,0,0,0-.949-.352,1.345,1.345,0,0,0-.895.273.929.929,0,0,0-.324.75H99.633a2.268,2.268,0,0,1,.453-1.359,3,3,0,0,1,1.281-.98,4.669,4.669,0,0,1,1.859-.355,3.689,3.689,0,0,1,2.48.785,2.747,2.747,0,0,1,.918,2.207v3.664a4.041,4.041,0,0,0,.336,1.82V0Zm-1.867-1.57a1.945,1.945,0,0,0,.922-.223,1.462,1.462,0,0,0,.625-.6V-3.844h-.844q-1.7,0-1.8,1.172l-.008.133a.9.9,0,0,0,.3.7A1.153,1.153,0,0,0,102.813-1.57Zm9.18-2.719a5.094,5.094,0,0,1,.887-3.148A2.877,2.877,0,0,1,115.3-8.609a2.589,2.589,0,0,1,2.039.922V-12h2.266V0H117.57l-.109-.9A2.657,2.657,0,0,1,115.289.156a2.869,2.869,0,0,1-2.395-1.176A5.258,5.258,0,0,1,111.992-4.289Zm2.258.168a3.337,3.337,0,0,0,.414,1.823,1.349,1.349,0,0,0,1.2.634,1.511,1.511,0,0,0,1.477-.884V-5.889a1.489,1.489,0,0,0-1.461-.884Q114.25-6.773,114.25-4.121Zm11,4.277a4.15,4.15,0,0,1-3.027-1.141,4.054,4.054,0,0,1-1.168-3.039v-.219a5.106,5.106,0,0,1,.492-2.277,3.612,3.612,0,0,1,1.395-1.547A3.914,3.914,0,0,1,125-8.609a3.508,3.508,0,0,1,2.73,1.094,4.444,4.444,0,0,1,1,3.1v.922h-5.383A2.1,2.1,0,0,0,124-2.164a2,2,0,0,0,1.395.5,2.437,2.437,0,0,0,2.039-.945l1.109,1.242a3.389,3.389,0,0,1-1.375,1.121A4.511,4.511,0,0,1,125.25.156Zm-.258-6.945a1.411,1.411,0,0,0-1.09.455,2.357,2.357,0,0,0-.535,1.3h3.141v-.181a1.681,1.681,0,0,0-.406-1.165A1.456,1.456,0,0,0,124.992-6.789Zm17.242-2.687H138.75V0h-2.344V-9.477h-3.437v-1.9h9.266ZM146.063,0h-2.344V-11.375h2.344Z" transform="translate(-672.393 783.459)" fill="#12263f"/>
      <path id="Path_102181" data-name="Path 102181" d="M4.078-11.375,7-3.125l2.906-8.25h3.078V0H10.633V-3.109l.234-5.367L7.8,0H6.188L3.125-8.469l.234,5.359V0H1.016V-11.375ZM19.781,0a2.507,2.507,0,0,1-.227-.758,2.732,2.732,0,0,1-2.133.914,3,3,0,0,1-2.059-.719,2.312,2.312,0,0,1-.816-1.812,2.389,2.389,0,0,1,1-2.062,4.915,4.915,0,0,1,2.879-.727h1.039v-.484a1.393,1.393,0,0,0-.3-.937,1.183,1.183,0,0,0-.949-.352,1.345,1.345,0,0,0-.895.273.929.929,0,0,0-.324.75H14.734a2.268,2.268,0,0,1,.453-1.359,3,3,0,0,1,1.281-.98,4.669,4.669,0,0,1,1.859-.355,3.689,3.689,0,0,1,2.48.785,2.747,2.747,0,0,1,.918,2.207v3.664a4.041,4.041,0,0,0,.336,1.82V0ZM17.914-1.57a1.945,1.945,0,0,0,.922-.223,1.462,1.462,0,0,0,.625-.6V-3.844h-.844q-1.7,0-1.8,1.172l-.008.133a.9.9,0,0,0,.3.7A1.153,1.153,0,0,0,17.914-1.57ZM18.773-12h2.461L19.07-9.578H17.234Zm4.336,7.7A5.053,5.053,0,0,1,24-7.453,2.9,2.9,0,0,1,26.43-8.609,2.6,2.6,0,0,1,28.594-7.57l.148-.883h1.984V3.25H28.461V-.727a2.6,2.6,0,0,1-2.047.883,2.878,2.878,0,0,1-2.406-1.172A5.3,5.3,0,0,1,23.109-4.3Zm2.258.16A3.315,3.315,0,0,0,25.793-2.3a1.363,1.363,0,0,0,1.2.634,1.518,1.518,0,0,0,1.469-.829v-3.5a1.506,1.506,0,0,0-1.453-.8,1.38,1.38,0,0,0-1.211.634A3.661,3.661,0,0,0,25.367-4.144Zm12.2,3.285A2.831,2.831,0,0,1,35.25.156a2.67,2.67,0,0,1-2.074-.781,3.335,3.335,0,0,1-.73-2.289V-8.453H34.7v5.467q0,1.322,1.2,1.322a1.63,1.63,0,0,0,1.578-.8V-8.453H39.75V0H37.625ZM43.836,0H41.57V-8.453h2.266Zm-2.4-10.641a1.112,1.112,0,0,1,.34-.836A1.277,1.277,0,0,1,42.7-11.8a1.28,1.28,0,0,1,.922.328,1.105,1.105,0,0,1,.344.836,1.108,1.108,0,0,1-.348.844,1.283,1.283,0,0,1-.918.328,1.283,1.283,0,0,1-.918-.328A1.108,1.108,0,0,1,41.438-10.641Zm6.336,2.188.07.977a2.951,2.951,0,0,1,2.43-1.133,2.453,2.453,0,0,1,2,.789,3.682,3.682,0,0,1,.672,2.359V0H50.688V-5.406a1.465,1.465,0,0,0-.312-1.043,1.4,1.4,0,0,0-1.039-.324,1.553,1.553,0,0,0-1.43.813V0H45.648V-8.453ZM59.555,0a2.507,2.507,0,0,1-.227-.758A2.732,2.732,0,0,1,57.2.156a3,3,0,0,1-2.059-.719,2.312,2.312,0,0,1-.816-1.812,2.389,2.389,0,0,1,1-2.062A4.915,4.915,0,0,1,58.2-5.164h1.039v-.484a1.393,1.393,0,0,0-.3-.937,1.183,1.183,0,0,0-.949-.352,1.345,1.345,0,0,0-.895.273.929.929,0,0,0-.324.75H54.508a2.268,2.268,0,0,1,.453-1.359,3,3,0,0,1,1.281-.98A4.669,4.669,0,0,1,58.1-8.609a3.689,3.689,0,0,1,2.48.785A2.747,2.747,0,0,1,61.5-5.617v3.664a4.041,4.041,0,0,0,.336,1.82V0ZM57.688-1.57a1.945,1.945,0,0,0,.922-.223,1.462,1.462,0,0,0,.625-.6V-3.844h-.844q-1.7,0-1.8,1.172l-.008.133a.9.9,0,0,0,.3.7A1.153,1.153,0,0,0,57.688-1.57Zm10.125-.766a.727.727,0,0,0-.41-.652,4.659,4.659,0,0,0-1.316-.426Q63.07-4.047,63.07-5.977A2.323,2.323,0,0,1,64-7.855a3.766,3.766,0,0,1,2.441-.754,4.053,4.053,0,0,1,2.574.758,2.388,2.388,0,0,1,.965,1.969H67.727a1.092,1.092,0,0,0-.312-.8A1.322,1.322,0,0,0,66.438-7a1.351,1.351,0,0,0-.883.258.814.814,0,0,0-.312.656.7.7,0,0,0,.355.605,3.657,3.657,0,0,0,1.2.4,9.8,9.8,0,0,1,1.422.379A2.336,2.336,0,0,1,70.008-2.43a2.2,2.2,0,0,1-.992,1.871,4.28,4.28,0,0,1-2.562.715,4.47,4.47,0,0,1-1.887-.379,3.166,3.166,0,0,1-1.293-1.039A2.414,2.414,0,0,1,62.8-2.687h2.141a1.179,1.179,0,0,0,.445.922,1.766,1.766,0,0,0,1.109.32,1.635,1.635,0,0,0,.98-.246A.766.766,0,0,0,67.813-2.336Zm10.8-.422,1.57-5.7h2.359L79.688,0H77.531L74.68-8.453h2.359ZM85.914,0H83.648V-8.453h2.266Zm-2.4-10.641a1.112,1.112,0,0,1,.34-.836,1.277,1.277,0,0,1,.926-.328,1.28,1.28,0,0,1,.922.328,1.105,1.105,0,0,1,.344.836A1.108,1.108,0,0,1,85.7-9.8a1.283,1.283,0,0,1-.918.328,1.283,1.283,0,0,1-.918-.328A1.108,1.108,0,0,1,83.516-10.641Zm9.008,4.3a6.134,6.134,0,0,0-.812-.062,1.654,1.654,0,0,0-1.68.867V0H87.773V-8.453h2.133l.063,1.008a2.092,2.092,0,0,1,1.883-1.164,2.366,2.366,0,0,1,.7.1Zm4.18-4.2v2.078h1.445V-6.8H96.7v4.219a1.007,1.007,0,0,0,.18.672.9.9,0,0,0,.688.2,3.6,3.6,0,0,0,.664-.055V-.047a4.648,4.648,0,0,1-1.367.2,2.156,2.156,0,0,1-2.422-2.4V-6.8H93.211V-8.453h1.234v-2.078Zm7.766,9.672A2.831,2.831,0,0,1,102.156.156a2.67,2.67,0,0,1-2.074-.781,3.335,3.335,0,0,1-.73-2.289V-8.453h2.258v5.467q0,1.322,1.2,1.322a1.63,1.63,0,0,0,1.578-.8V-8.453h2.266V0h-2.125ZM113.258,0a2.507,2.507,0,0,1-.227-.758A2.732,2.732,0,0,1,110.9.156a3,3,0,0,1-2.059-.719,2.312,2.312,0,0,1-.816-1.812,2.389,2.389,0,0,1,1-2.062,4.915,4.915,0,0,1,2.879-.727h1.039v-.484a1.393,1.393,0,0,0-.3-.937,1.183,1.183,0,0,0-.949-.352,1.345,1.345,0,0,0-.895.273.929.929,0,0,0-.324.75h-2.258a2.268,2.268,0,0,1,.453-1.359,3,3,0,0,1,1.281-.98,4.669,4.669,0,0,1,1.859-.355,3.689,3.689,0,0,1,2.48.785,2.747,2.747,0,0,1,.918,2.207v3.664a4.041,4.041,0,0,0,.336,1.82V0Zm-1.867-1.57a1.945,1.945,0,0,0,.922-.223,1.462,1.462,0,0,0,.625-.6V-3.844h-.844q-1.7,0-1.8,1.172l-.008.133a.9.9,0,0,0,.3.7A1.153,1.153,0,0,0,111.391-1.57ZM119.32,0h-2.266V-12h2.266Zm5.75.156a4.15,4.15,0,0,1-3.027-1.141,4.054,4.054,0,0,1-1.168-3.039v-.219a5.106,5.106,0,0,1,.492-2.277,3.612,3.612,0,0,1,1.395-1.547,3.914,3.914,0,0,1,2.059-.543,3.508,3.508,0,0,1,2.73,1.094,4.444,4.444,0,0,1,1,3.1v.922h-5.383a2.1,2.1,0,0,0,.66,1.328,2,2,0,0,0,1.395.5,2.437,2.437,0,0,0,2.039-.945l1.109,1.242a3.389,3.389,0,0,1-1.375,1.121A4.511,4.511,0,0,1,125.07.156Zm-.258-6.945a1.411,1.411,0,0,0-1.09.455,2.357,2.357,0,0,0-.535,1.3h3.141v-.181a1.681,1.681,0,0,0-.406-1.165A1.456,1.456,0,0,0,124.813-6.789Zm9.594,4.453a.727.727,0,0,0-.41-.652,4.659,4.659,0,0,0-1.316-.426q-3.016-.633-3.016-2.562a2.323,2.323,0,0,1,.934-1.879,3.766,3.766,0,0,1,2.441-.754,4.053,4.053,0,0,1,2.574.758,2.388,2.388,0,0,1,.965,1.969H134.32a1.092,1.092,0,0,0-.312-.8A1.322,1.322,0,0,0,133.031-7a1.351,1.351,0,0,0-.883.258.814.814,0,0,0-.312.656.7.7,0,0,0,.355.605,3.657,3.657,0,0,0,1.2.4,9.8,9.8,0,0,1,1.422.379A2.336,2.336,0,0,1,136.6-2.43a2.205,2.205,0,0,1-.992,1.871,4.28,4.28,0,0,1-2.562.715,4.47,4.47,0,0,1-1.887-.379,3.166,3.166,0,0,1-1.293-1.039,2.414,2.414,0,0,1-.469-1.426h2.141a1.179,1.179,0,0,0,.445.922,1.766,1.766,0,0,0,1.109.32,1.635,1.635,0,0,0,.98-.246A.766.766,0,0,0,134.406-2.336Z" transform="translate(-204.088 783.459)" fill="#12263f"/>
      <path id="Path_102184" data-name="Path 102184" d="M3.258-11.375,6.977-2.094,10.7-11.375h1.945V0h-1.5V-4.43l.141-4.781L7.547,0H6.4L2.672-9.187,2.82-4.43V0H1.32V-11.375Zm15.8,9.383,3.25-9.383h1.641L19.727,0H18.4L14.188-11.375H15.82Z" transform="translate(-147.568 559.391)" fill="#fff"/>
      <path id="Path_102193" data-name="Path 102193" d="M7.6-2.977H2.836L1.766,0H.219L4.563-11.375H5.875L10.227,0H8.688ZM3.289-4.2H7.156L5.219-9.523Zm9.969-.25V0h-1.5V-11.375h4.2a4.215,4.215,0,0,1,2.926.953A3.231,3.231,0,0,1,19.938-7.9,3.189,3.189,0,0,1,18.9-5.348a4.4,4.4,0,0,1-2.965.895Zm0-1.227h2.7A2.7,2.7,0,0,0,17.8-6.247a2.075,2.075,0,0,0,.641-1.64A2.143,2.143,0,0,0,17.8-9.515a2.525,2.525,0,0,0-1.758-.634H13.258ZM23.352-4.453V0h-1.5V-11.375h4.2a4.215,4.215,0,0,1,2.926.953A3.231,3.231,0,0,1,30.031-7.9,3.189,3.189,0,0,1,29-5.348a4.4,4.4,0,0,1-2.965.895Zm0-1.227h2.7a2.7,2.7,0,0,0,1.844-.567,2.075,2.075,0,0,0,.641-1.64,2.143,2.143,0,0,0-.641-1.628,2.525,2.525,0,0,0-1.758-.634H23.352ZM36.32,0H34.867V-9.633l-2.914,1.07V-9.875l4.141-1.555h.227Z" transform="translate(56.13 547.811)"/>
      <path id="Path_102194" data-name="Path 102194" d="M7.6-2.977H2.836L1.766,0H.219L4.563-11.375H5.875L10.227,0H8.688ZM3.289-4.2H7.156L5.219-9.523Zm9.969-.25V0h-1.5V-11.375h4.2a4.215,4.215,0,0,1,2.926.953A3.231,3.231,0,0,1,19.938-7.9,3.189,3.189,0,0,1,18.9-5.348a4.4,4.4,0,0,1-2.965.895Zm0-1.227h2.7A2.7,2.7,0,0,0,17.8-6.247a2.075,2.075,0,0,0,.641-1.64A2.143,2.143,0,0,0,17.8-9.515a2.525,2.525,0,0,0-1.758-.634H13.258ZM23.352-4.453V0h-1.5V-11.375h4.2a4.215,4.215,0,0,1,2.926.953A3.231,3.231,0,0,1,30.031-7.9,3.189,3.189,0,0,1,29-5.348a4.4,4.4,0,0,1-2.965.895Zm0-1.227h2.7a2.7,2.7,0,0,0,1.844-.567,2.075,2.075,0,0,0,.641-1.64,2.143,2.143,0,0,0-.641-1.628,2.525,2.525,0,0,0-1.758-.634H23.352ZM39.023,0H31.57V-1.039l3.938-4.375a9.355,9.355,0,0,0,1.207-1.613,2.693,2.693,0,0,0,.332-1.285,2.041,2.041,0,0,0-.539-1.461,1.885,1.885,0,0,0-1.437-.57,2.232,2.232,0,0,0-1.676.613,2.343,2.343,0,0,0-.6,1.707H31.352a3.355,3.355,0,0,1,1.012-2.539,3.751,3.751,0,0,1,2.707-.969,3.6,3.6,0,0,1,2.508.832A2.838,2.838,0,0,1,38.5-8.484q0,1.68-2.141,4l-3.047,3.3h5.711Z" transform="translate(132.317 547.812)"/>
      <path id="Path_102192" data-name="Path 102192" d="M4.672-5.07A7.053,7.053,0,0,1,1.863-6.434a2.6,2.6,0,0,1-.879-2,2.751,2.751,0,0,1,1.074-2.223,4.269,4.269,0,0,1,2.793-.879,4.66,4.66,0,0,1,2.09.453,3.436,3.436,0,0,1,1.422,1.25,3.2,3.2,0,0,1,.5,1.742H7.359A2.08,2.08,0,0,0,6.7-9.713,2.669,2.669,0,0,0,4.852-10.3a2.732,2.732,0,0,0-1.73.489A1.632,1.632,0,0,0,2.5-8.458,1.468,1.468,0,0,0,3.09-7.28,5.785,5.785,0,0,0,5.1-6.4a9.316,9.316,0,0,1,2.219.88A3.367,3.367,0,0,1,8.5-4.4a2.861,2.861,0,0,1,.387,1.508A2.658,2.658,0,0,1,7.813-.676,4.6,4.6,0,0,1,4.93.156,5.347,5.347,0,0,1,2.742-.293a3.681,3.681,0,0,1-1.566-1.23A3,3,0,0,1,.625-3.3H2.133a1.959,1.959,0,0,0,.762,1.629,3.207,3.207,0,0,0,2.035.6,2.948,2.948,0,0,0,1.82-.484,1.573,1.573,0,0,0,.633-1.32A1.545,1.545,0,0,0,6.8-4.168,6.755,6.755,0,0,0,4.672-5.07Zm14.891-.25A7.037,7.037,0,0,1,19-2.4,4.261,4.261,0,0,1,17.406-.5,4.385,4.385,0,0,1,15,.156,4.347,4.347,0,0,1,12.617-.5,4.363,4.363,0,0,1,11-2.387a6.752,6.752,0,0,1-.59-2.832v-.82a6.953,6.953,0,0,1,.57-2.9A4.347,4.347,0,0,1,12.6-10.863a4.329,4.329,0,0,1,2.387-.668,4.41,4.41,0,0,1,2.41.66A4.253,4.253,0,0,1,19-8.957a7.071,7.071,0,0,1,.563,2.918ZM18.07-6.055a5.1,5.1,0,0,0-.812-3.105,2.68,2.68,0,0,0-2.273-1.082A2.651,2.651,0,0,0,12.746-9.16a5,5,0,0,0-.84,3v.836a5.107,5.107,0,0,0,.824,3.082A2.662,2.662,0,0,0,15-1.117a2.652,2.652,0,0,0,2.25-1.059,5.079,5.079,0,0,0,.82-3.035Z" transform="translate(103.782 568.97)"/>
      <path id="Path_102169" data-name="Path 102169" d="M-113.825,620.68h-43.336l-11.061,19.158L-157.161,659h43.336l11.061-19.158Z" fill="#ed1c24"/>
      <path id="Path_102169_-_Outline" data-name="Path 102169 - Outline" d="M-157.45,620.18h43.914l11.35,19.658-11.35,19.658H-157.45l-11.35-19.658Zm43.336,1h-42.759l-10.772,18.658,10.772,18.658h42.759l10.772-18.658Z" fill="#891c24"/>
      <rect id="Rectangle_7609" data-name="Rectangle 7609" width="73.621" height="19.158" transform="translate(39.124 618.679)" fill="#e2f8fa"/>
      <path id="Rectangle_7609_-_Outline" data-name="Rectangle 7609 - Outline" d="M0-.75H73.621a.75.75,0,0,1,.75.75V19.158a.75.75,0,0,1-.75.75H0a.75.75,0,0,1-.75-.75V0A.75.75,0,0,1,0-.75ZM72.871.75H.75V18.408H72.871Z" transform="translate(39.124 618.679)" fill="#4dd0e1"/>
      <rect id="Rectangle_7610" data-name="Rectangle 7610" width="73.621" height="19.158" transform="translate(115.311 618.679)" fill="#58edf9"/>
      <path id="Rectangle_7610_-_Outline" data-name="Rectangle 7610 - Outline" d="M-.5-.5H74.121V19.658H-.5ZM73.121.5H.5V18.658H73.121Z" transform="translate(115.311 618.679)" fill="#039be5"/>
      <rect id="Rectangle_7611" data-name="Rectangle 7611" width="149.807" height="19.158" transform="translate(39.124 639.838)" fill="#ffca28"/>
      <path id="Rectangle_7611_-_Outline" data-name="Rectangle 7611 - Outline" d="M-.5-.5H150.307V19.658H-.5ZM149.307.5H.5V18.658H149.307Z" transform="translate(39.124 639.838)" fill="#ffa726"/>
      <g id="Group_59118" data-name="Group 59118">
        <g id="Group_59115" data-name="Group 59115">
          <path id="Path_102170" data-name="Path 102170" d="M-71.2,640.338h-1.5a.5.5,0,0,1-.5-.5.5.5,0,0,1,.5-.5h1.5a.5.5,0,0,1,.5.5A.5.5,0,0,1-71.2,640.338Z" fill="#039be5"/>
        </g>
        <g id="Group_59116" data-name="Group 59116">
          <path id="Path_102171" data-name="Path 102171" d="M2.033,640.338H-1.018a.5.5,0,0,1-.5-.5.5.5,0,0,1,.5-.5H2.033a.5.5,0,1,1,0,1Zm-6.1,0H-7.121a.5.5,0,0,1-.5-.5.5.5,0,0,1,.5-.5H-4.07a.5.5,0,0,1,.5.5A.5.5,0,0,1-4.07,640.338Zm-6.1,0h-3.052a.5.5,0,0,1-.5-.5.5.5,0,0,1,.5-.5h3.052a.5.5,0,0,1,.5.5A.5.5,0,0,1-10.172,640.338Zm-6.1,0h-3.05a.5.5,0,0,1-.5-.5.5.5,0,0,1,.5-.5h3.05a.5.5,0,0,1,.5.5A.5.5,0,0,1-16.276,640.338Zm-6.1,0H-25.43a.5.5,0,0,1-.5-.5.5.5,0,0,1,.5-.5h3.052a.5.5,0,0,1,.5.5A.5.5,0,0,1-22.378,640.338Zm-6.1,0h-3.051a.5.5,0,0,1-.5-.5.5.5,0,0,1,.5-.5h3.051a.5.5,0,0,1,.5.5A.5.5,0,0,1-28.481,640.338Zm-6.1,0h-3.051a.5.5,0,0,1-.5-.5.5.5,0,0,1,.5-.5h3.051a.5.5,0,0,1,.5.5A.5.5,0,0,1-34.584,640.338Zm-6.1,0h-3.052a.5.5,0,0,1-.5-.5.5.5,0,0,1,.5-.5h3.052a.5.5,0,0,1,.5.5A.5.5,0,0,1-40.687,640.338Zm-6.1,0h-3.052a.5.5,0,0,1-.5-.5.5.5,0,0,1,.5-.5h3.052a.5.5,0,0,1,.5.5A.5.5,0,0,1-46.789,640.338Zm-6.1,0h-3.051a.5.5,0,0,1-.5-.5.5.5,0,0,1,.5-.5h3.051a.5.5,0,0,1,.5.5A.5.5,0,0,1-52.893,640.338Zm-6.1,0h-3.052a.5.5,0,0,1-.5-.5.5.5,0,0,1,.5-.5h3.052a.5.5,0,0,1,.5.5A.5.5,0,0,1-58.995,640.338Zm-6.1,0H-68.15a.5.5,0,0,1-.5-.5.5.5,0,0,1,.5-.5H-65.1a.5.5,0,0,1,.5.5A.5.5,0,0,1-65.1,640.338Z" fill="#12263f"/>
        </g>
        <g id="Group_59117" data-name="Group 59117">
          <path id="Path_102172" data-name="Path 102172" d="M6.585,640.338h-1.5a.5.5,0,0,1,0-1h1.5a.5.5,0,0,1,0,1Z" fill="#039be5"/>
        </g>
      </g>
      <g id="Group_59119" data-name="Group 59119">
        <path id="Path_102173" data-name="Path 102173" d="M16.543,639.838,6.268,635.767v8.143Z" fill="#12263f"/>
      </g>
      <path id="Path_102183" data-name="Path 102183" d="M3.258-11.375,6.977-2.094,10.7-11.375h1.945V0h-1.5V-4.43l.141-4.781L7.547,0H6.4L2.672-9.187,2.82-4.43V0H1.32V-11.375Zm15.8,9.383,3.25-9.383h1.641L19.727,0H18.4L14.188-11.375H15.82Z" transform="translate(-147.568 644.514)" fill="#fff"/>
      <path id="Path_102189" data-name="Path 102189" d="M7.6-2.977H2.836L1.766,0H.219L4.563-11.375H5.875L10.227,0H8.688ZM3.289-4.2H7.156L5.219-9.523Zm9.969-.25V0h-1.5V-11.375h4.2a4.215,4.215,0,0,1,2.926.953A3.231,3.231,0,0,1,19.938-7.9,3.189,3.189,0,0,1,18.9-5.348a4.4,4.4,0,0,1-2.965.895Zm0-1.227h2.7A2.7,2.7,0,0,0,17.8-6.247a2.075,2.075,0,0,0,.641-1.64A2.143,2.143,0,0,0,17.8-9.515a2.525,2.525,0,0,0-1.758-.634H13.258ZM23.352-4.453V0h-1.5V-11.375h4.2a4.215,4.215,0,0,1,2.926.953A3.231,3.231,0,0,1,30.031-7.9,3.189,3.189,0,0,1,29-5.348a4.4,4.4,0,0,1-2.965.895Zm0-1.227h2.7a2.7,2.7,0,0,0,1.844-.567,2.075,2.075,0,0,0,.641-1.64,2.143,2.143,0,0,0-.641-1.628,2.525,2.525,0,0,0-1.758-.634H23.352ZM36.32,0H34.867V-9.633l-2.914,1.07V-9.875l4.141-1.555h.227Z" transform="translate(56.13 632.934)"/>
      <path id="Path_102190" data-name="Path 102190" d="M7.6-2.977H2.836L1.766,0H.219L4.563-11.375H5.875L10.227,0H8.688ZM3.289-4.2H7.156L5.219-9.523Zm9.969-.25V0h-1.5V-11.375h4.2a4.215,4.215,0,0,1,2.926.953A3.231,3.231,0,0,1,19.938-7.9,3.189,3.189,0,0,1,18.9-5.348a4.4,4.4,0,0,1-2.965.895Zm0-1.227h2.7A2.7,2.7,0,0,0,17.8-6.247a2.075,2.075,0,0,0,.641-1.64A2.143,2.143,0,0,0,17.8-9.515a2.525,2.525,0,0,0-1.758-.634H13.258ZM23.352-4.453V0h-1.5V-11.375h4.2a4.215,4.215,0,0,1,2.926.953A3.231,3.231,0,0,1,30.031-7.9,3.189,3.189,0,0,1,29-5.348a4.4,4.4,0,0,1-2.965.895Zm0-1.227h2.7a2.7,2.7,0,0,0,1.844-.567,2.075,2.075,0,0,0,.641-1.64,2.143,2.143,0,0,0-.641-1.628,2.525,2.525,0,0,0-1.758-.634H23.352ZM39.023,0H31.57V-1.039l3.938-4.375a9.355,9.355,0,0,0,1.207-1.613,2.693,2.693,0,0,0,.332-1.285,2.041,2.041,0,0,0-.539-1.461,1.885,1.885,0,0,0-1.437-.57,2.232,2.232,0,0,0-1.676.613,2.343,2.343,0,0,0-.6,1.707H31.352a3.355,3.355,0,0,1,1.012-2.539,3.751,3.751,0,0,1,2.707-.969,3.6,3.6,0,0,1,2.508.832A2.838,2.838,0,0,1,38.5-8.484q0,1.68-2.141,4l-3.047,3.3h5.711Z" transform="translate(132.317 632.934)"/>
      <path id="Path_102191" data-name="Path 102191" d="M4.672-5.07A7.053,7.053,0,0,1,1.863-6.434a2.6,2.6,0,0,1-.879-2,2.751,2.751,0,0,1,1.074-2.223,4.269,4.269,0,0,1,2.793-.879,4.66,4.66,0,0,1,2.09.453,3.436,3.436,0,0,1,1.422,1.25,3.2,3.2,0,0,1,.5,1.742H7.359A2.08,2.08,0,0,0,6.7-9.713,2.669,2.669,0,0,0,4.852-10.3a2.732,2.732,0,0,0-1.73.489A1.632,1.632,0,0,0,2.5-8.458,1.468,1.468,0,0,0,3.09-7.28,5.785,5.785,0,0,0,5.1-6.4a9.316,9.316,0,0,1,2.219.88A3.367,3.367,0,0,1,8.5-4.4a2.861,2.861,0,0,1,.387,1.508A2.658,2.658,0,0,1,7.813-.676,4.6,4.6,0,0,1,4.93.156,5.347,5.347,0,0,1,2.742-.293a3.681,3.681,0,0,1-1.566-1.23A3,3,0,0,1,.625-3.3H2.133a1.959,1.959,0,0,0,.762,1.629,3.207,3.207,0,0,0,2.035.6,2.948,2.948,0,0,0,1.82-.484,1.573,1.573,0,0,0,.633-1.32A1.545,1.545,0,0,0,6.8-4.168,6.755,6.755,0,0,0,4.672-5.07Zm14.891-.25A7.037,7.037,0,0,1,19-2.4,4.261,4.261,0,0,1,17.406-.5,4.385,4.385,0,0,1,15,.156,4.347,4.347,0,0,1,12.617-.5,4.363,4.363,0,0,1,11-2.387a6.752,6.752,0,0,1-.59-2.832v-.82a6.953,6.953,0,0,1,.57-2.9A4.347,4.347,0,0,1,12.6-10.863a4.329,4.329,0,0,1,2.387-.668,4.41,4.41,0,0,1,2.41.66A4.253,4.253,0,0,1,19-8.957a7.071,7.071,0,0,1,.563,2.918ZM18.07-6.055a5.1,5.1,0,0,0-.812-3.105,2.68,2.68,0,0,0-2.273-1.082A2.651,2.651,0,0,0,12.746-9.16a5,5,0,0,0-.84,3v.836a5.107,5.107,0,0,0,.824,3.082A2.662,2.662,0,0,0,15-1.117a2.652,2.652,0,0,0,2.25-1.059,5.079,5.079,0,0,0,.82-3.035Z" transform="translate(103.782 654.093)"/>
      <path id="Path_102174" data-name="Path 102174" d="M-113.825,700.636h-43.336l-11.061,19.158,11.061,19.158h43.336l11.061-19.158Z" fill="#ed1c24"/>
      <path id="Path_102174_-_Outline" data-name="Path 102174 - Outline" d="M-157.45,700.136h43.914l11.35,19.658-11.35,19.658H-157.45l-11.35-19.658Zm43.336,1h-42.759l-10.772,18.658,10.772,18.658h42.759l10.772-18.658Z" fill="#891c24"/>
      <rect id="Rectangle_7612" data-name="Rectangle 7612" width="73.621" height="19.158" transform="translate(39.124 698.635)" fill="#e2f8fa"/>
      <path id="Rectangle_7612_-_Outline" data-name="Rectangle 7612 - Outline" d="M0-.75H73.621a.75.75,0,0,1,.75.75V19.158a.75.75,0,0,1-.75.75H0a.75.75,0,0,1-.75-.75V0A.75.75,0,0,1,0-.75ZM72.871.75H.75V18.408H72.871Z" transform="translate(39.124 698.635)" fill="#4dd0e1"/>
      <rect id="Rectangle_7613" data-name="Rectangle 7613" width="73.621" height="19.158" transform="translate(115.311 698.635)" fill="#58edf9"/>
      <path id="Rectangle_7613_-_Outline" data-name="Rectangle 7613 - Outline" d="M-.5-.5H74.121V19.658H-.5ZM73.121.5H.5V18.658H73.121Z" transform="translate(115.311 698.635)" fill="#039be5"/>
      <rect id="Rectangle_7614" data-name="Rectangle 7614" width="149.807" height="19.158" transform="translate(39.124 719.794)" fill="#ffca28"/>
      <path id="Rectangle_7614_-_Outline" data-name="Rectangle 7614 - Outline" d="M-.5-.5H150.307V19.658H-.5ZM149.307.5H.5V18.658H149.307Z" transform="translate(39.124 719.794)" fill="#ffa726"/>
      <g id="Group_59123" data-name="Group 59123">
        <g id="Group_59120" data-name="Group 59120">
          <path id="Path_102175" data-name="Path 102175" d="M-71.2,720.293h-1.5a.5.5,0,0,1-.5-.5.5.5,0,0,1,.5-.5h1.5a.5.5,0,0,1,.5.5A.5.5,0,0,1-71.2,720.293Z" fill="#12263f"/>
        </g>
        <g id="Group_59121" data-name="Group 59121">
          <path id="Path_102176" data-name="Path 102176" d="M2.033,720.293H-1.018a.5.5,0,0,1-.5-.5.5.5,0,0,1,.5-.5H2.033a.5.5,0,1,1,0,1Zm-6.1,0H-7.121a.5.5,0,0,1-.5-.5.5.5,0,0,1,.5-.5H-4.07a.5.5,0,0,1,.5.5A.5.5,0,0,1-4.07,720.293Zm-6.1,0h-3.052a.5.5,0,0,1-.5-.5.5.5,0,0,1,.5-.5h3.052a.5.5,0,0,1,.5.5A.5.5,0,0,1-10.172,720.293Zm-6.1,0h-3.05a.5.5,0,0,1-.5-.5.5.5,0,0,1,.5-.5h3.05a.5.5,0,0,1,.5.5A.5.5,0,0,1-16.276,720.293Zm-6.1,0H-25.43a.5.5,0,0,1-.5-.5.5.5,0,0,1,.5-.5h3.052a.5.5,0,0,1,.5.5A.5.5,0,0,1-22.378,720.293Zm-6.1,0h-3.051a.5.5,0,0,1-.5-.5.5.5,0,0,1,.5-.5h3.051a.5.5,0,0,1,.5.5A.5.5,0,0,1-28.481,720.293Zm-6.1,0h-3.051a.5.5,0,0,1-.5-.5.5.5,0,0,1,.5-.5h3.051a.5.5,0,0,1,.5.5A.5.5,0,0,1-34.584,720.293Zm-6.1,0h-3.052a.5.5,0,0,1-.5-.5.5.5,0,0,1,.5-.5h3.052a.5.5,0,0,1,.5.5A.5.5,0,0,1-40.687,720.293Zm-6.1,0h-3.052a.5.5,0,0,1-.5-.5.5.5,0,0,1,.5-.5h3.052a.5.5,0,0,1,.5.5A.5.5,0,0,1-46.789,720.293Zm-6.1,0h-3.051a.5.5,0,0,1-.5-.5.5.5,0,0,1,.5-.5h3.051a.5.5,0,0,1,.5.5A.5.5,0,0,1-52.893,720.293Zm-6.1,0h-3.052a.5.5,0,0,1-.5-.5.5.5,0,0,1,.5-.5h3.052a.5.5,0,0,1,.5.5A.5.5,0,0,1-58.995,720.293Zm-6.1,0H-68.15a.5.5,0,0,1-.5-.5.5.5,0,0,1,.5-.5H-65.1a.5.5,0,0,1,.5.5A.5.5,0,0,1-65.1,720.293Z" fill="#12263f"/>
        </g>
        <g id="Group_59122" data-name="Group 59122">
          <path id="Path_102177" data-name="Path 102177" d="M6.585,720.293h-1.5a.5.5,0,0,1,0-1h1.5a.5.5,0,0,1,0,1Z" fill="#12263f"/>
        </g>
      </g>
      <g id="Group_59124" data-name="Group 59124">
        <path id="Path_102178" data-name="Path 102178" d="M16.543,719.794,6.268,715.723v8.143Z" fill="#12263f"/>
      </g>
      <path id="Path_102182" data-name="Path 102182" d="M3.258-11.375,6.977-2.094,10.7-11.375h1.945V0h-1.5V-4.43l.141-4.781L7.547,0H6.4L2.672-9.187,2.82-4.43V0H1.32V-11.375Zm15.8,9.383,3.25-9.383h1.641L19.727,0H18.4L14.188-11.375H15.82Z" transform="translate(-147.568 724.47)" fill="#fff"/>
      <path id="Path_102187" data-name="Path 102187" d="M7.6-2.977H2.836L1.766,0H.219L4.563-11.375H5.875L10.227,0H8.688ZM3.289-4.2H7.156L5.219-9.523Zm9.969-.25V0h-1.5V-11.375h4.2a4.215,4.215,0,0,1,2.926.953A3.231,3.231,0,0,1,19.938-7.9,3.189,3.189,0,0,1,18.9-5.348a4.4,4.4,0,0,1-2.965.895Zm0-1.227h2.7A2.7,2.7,0,0,0,17.8-6.247a2.075,2.075,0,0,0,.641-1.64A2.143,2.143,0,0,0,17.8-9.515a2.525,2.525,0,0,0-1.758-.634H13.258ZM23.352-4.453V0h-1.5V-11.375h4.2a4.215,4.215,0,0,1,2.926.953A3.231,3.231,0,0,1,30.031-7.9,3.189,3.189,0,0,1,29-5.348a4.4,4.4,0,0,1-2.965.895Zm0-1.227h2.7a2.7,2.7,0,0,0,1.844-.567,2.075,2.075,0,0,0,.641-1.64,2.143,2.143,0,0,0-.641-1.628,2.525,2.525,0,0,0-1.758-.634H23.352ZM36.32,0H34.867V-9.633l-2.914,1.07V-9.875l4.141-1.555h.227Z" transform="translate(56.13 712.889)"/>
      <path id="Path_102188" data-name="Path 102188" d="M7.6-2.977H2.836L1.766,0H.219L4.563-11.375H5.875L10.227,0H8.688ZM3.289-4.2H7.156L5.219-9.523Zm9.969-.25V0h-1.5V-11.375h4.2a4.215,4.215,0,0,1,2.926.953A3.231,3.231,0,0,1,19.938-7.9,3.189,3.189,0,0,1,18.9-5.348a4.4,4.4,0,0,1-2.965.895Zm0-1.227h2.7A2.7,2.7,0,0,0,17.8-6.247a2.075,2.075,0,0,0,.641-1.64A2.143,2.143,0,0,0,17.8-9.515a2.525,2.525,0,0,0-1.758-.634H13.258ZM23.352-4.453V0h-1.5V-11.375h4.2a4.215,4.215,0,0,1,2.926.953A3.231,3.231,0,0,1,30.031-7.9,3.189,3.189,0,0,1,29-5.348a4.4,4.4,0,0,1-2.965.895Zm0-1.227h2.7a2.7,2.7,0,0,0,1.844-.567,2.075,2.075,0,0,0,.641-1.64,2.143,2.143,0,0,0-.641-1.628,2.525,2.525,0,0,0-1.758-.634H23.352ZM39.023,0H31.57V-1.039l3.938-4.375a9.355,9.355,0,0,0,1.207-1.613,2.693,2.693,0,0,0,.332-1.285,2.041,2.041,0,0,0-.539-1.461,1.885,1.885,0,0,0-1.437-.57,2.232,2.232,0,0,0-1.676.613,2.343,2.343,0,0,0-.6,1.707H31.352a3.355,3.355,0,0,1,1.012-2.539,3.751,3.751,0,0,1,2.707-.969,3.6,3.6,0,0,1,2.508.832A2.838,2.838,0,0,1,38.5-8.484q0,1.68-2.141,4l-3.047,3.3h5.711Z" transform="translate(132.317 712.89)"/>
      <path id="Path_102186" data-name="Path 102186" d="M4.672-5.07A7.053,7.053,0,0,1,1.863-6.434a2.6,2.6,0,0,1-.879-2,2.751,2.751,0,0,1,1.074-2.223,4.269,4.269,0,0,1,2.793-.879,4.66,4.66,0,0,1,2.09.453,3.436,3.436,0,0,1,1.422,1.25,3.2,3.2,0,0,1,.5,1.742H7.359A2.08,2.08,0,0,0,6.7-9.713,2.669,2.669,0,0,0,4.852-10.3a2.732,2.732,0,0,0-1.73.489A1.632,1.632,0,0,0,2.5-8.458,1.468,1.468,0,0,0,3.09-7.28,5.785,5.785,0,0,0,5.1-6.4a9.316,9.316,0,0,1,2.219.88A3.367,3.367,0,0,1,8.5-4.4a2.861,2.861,0,0,1,.387,1.508A2.658,2.658,0,0,1,7.813-.676,4.6,4.6,0,0,1,4.93.156,5.347,5.347,0,0,1,2.742-.293a3.681,3.681,0,0,1-1.566-1.23A3,3,0,0,1,.625-3.3H2.133a1.959,1.959,0,0,0,.762,1.629,3.207,3.207,0,0,0,2.035.6,2.948,2.948,0,0,0,1.82-.484,1.573,1.573,0,0,0,.633-1.32A1.545,1.545,0,0,0,6.8-4.168,6.755,6.755,0,0,0,4.672-5.07Zm14.891-.25A7.037,7.037,0,0,1,19-2.4,4.261,4.261,0,0,1,17.406-.5,4.385,4.385,0,0,1,15,.156,4.347,4.347,0,0,1,12.617-.5,4.363,4.363,0,0,1,11-2.387a6.752,6.752,0,0,1-.59-2.832v-.82a6.953,6.953,0,0,1,.57-2.9A4.347,4.347,0,0,1,12.6-10.863a4.329,4.329,0,0,1,2.387-.668,4.41,4.41,0,0,1,2.41.66A4.253,4.253,0,0,1,19-8.957a7.071,7.071,0,0,1,.563,2.918ZM18.07-6.055a5.1,5.1,0,0,0-.812-3.105,2.68,2.68,0,0,0-2.273-1.082A2.651,2.651,0,0,0,12.746-9.16a5,5,0,0,0-.84,3v.836a5.107,5.107,0,0,0,.824,3.082A2.662,2.662,0,0,0,15-1.117a2.652,2.652,0,0,0,2.25-1.059,5.079,5.079,0,0,0,.82-3.035Z" transform="translate(103.782 734.049)"/>
      <path id="Path_102185" data-name="Path 102185" d="M5.227-4.164H3.359V0H1.016V-11.375H5.242a4.778,4.778,0,0,1,3.109.9A3.1,3.1,0,0,1,9.445-7.937,3.5,3.5,0,0,1,8.941-6,3.437,3.437,0,0,1,7.414-4.758L9.875-.109V0H7.359Zm-1.867-1.9H5.25a1.936,1.936,0,0,0,1.367-.449A1.606,1.606,0,0,0,7.1-7.75a1.719,1.719,0,0,0-.457-1.266,1.9,1.9,0,0,0-1.4-.461H3.359ZM14.969.156A4.15,4.15,0,0,1,11.941-.984a4.054,4.054,0,0,1-1.168-3.039v-.219a5.106,5.106,0,0,1,.492-2.277A3.612,3.612,0,0,1,12.66-8.066a3.914,3.914,0,0,1,2.059-.543,3.508,3.508,0,0,1,2.73,1.094,4.444,4.444,0,0,1,1,3.1v.922H13.063a2.1,2.1,0,0,0,.66,1.328,2,2,0,0,0,1.395.5,2.437,2.437,0,0,0,2.039-.945l1.109,1.242A3.389,3.389,0,0,1,16.891-.246,4.511,4.511,0,0,1,14.969.156Zm-.258-6.945a1.411,1.411,0,0,0-1.09.455,2.357,2.357,0,0,0-.535,1.3h3.141v-.181a1.681,1.681,0,0,0-.406-1.165A1.456,1.456,0,0,0,14.711-6.789ZM27.336-4.148a5.07,5.07,0,0,1-.887,3.129A2.843,2.843,0,0,1,24.055.156a2.633,2.633,0,0,1-2.07-.891V3.25H19.727v-11.7H21.82l.078.828a2.654,2.654,0,0,1,2.141-.984,2.862,2.862,0,0,1,2.43,1.156,5.207,5.207,0,0,1,.867,3.188Zm-2.258-.164a3.327,3.327,0,0,0-.418-1.82,1.361,1.361,0,0,0-1.215-.641,1.478,1.478,0,0,0-1.461.813V-2.5a1.5,1.5,0,0,0,1.477.836Q25.078-1.664,25.078-4.312Zm8.406-2.023a6.134,6.134,0,0,0-.812-.062,1.654,1.654,0,0,0-1.68.867V0H28.734V-8.453h2.133l.063,1.008a2.092,2.092,0,0,1,1.883-1.164,2.366,2.366,0,0,1,.7.1ZM38.313.156A4.15,4.15,0,0,1,35.285-.984a4.054,4.054,0,0,1-1.168-3.039v-.219a5.106,5.106,0,0,1,.492-2.277A3.612,3.612,0,0,1,36-8.066a3.914,3.914,0,0,1,2.059-.543,3.508,3.508,0,0,1,2.73,1.094,4.444,4.444,0,0,1,1,3.1v.922H36.406a2.1,2.1,0,0,0,.66,1.328,2,2,0,0,0,1.395.5A2.437,2.437,0,0,0,40.5-2.609l1.109,1.242A3.389,3.389,0,0,1,40.234-.246,4.511,4.511,0,0,1,38.313.156Zm-.258-6.945a1.411,1.411,0,0,0-1.09.455,2.357,2.357,0,0,0-.535,1.3H39.57v-.181a1.681,1.681,0,0,0-.406-1.165A1.456,1.456,0,0,0,38.055-6.789Zm9.594,4.453a.727.727,0,0,0-.41-.652,4.659,4.659,0,0,0-1.316-.426q-3.016-.633-3.016-2.562a2.323,2.323,0,0,1,.934-1.879,3.766,3.766,0,0,1,2.441-.754,4.053,4.053,0,0,1,2.574.758,2.388,2.388,0,0,1,.965,1.969H47.563a1.092,1.092,0,0,0-.312-.8A1.322,1.322,0,0,0,46.273-7a1.351,1.351,0,0,0-.883.258.814.814,0,0,0-.312.656.7.7,0,0,0,.355.605,3.657,3.657,0,0,0,1.2.4,9.8,9.8,0,0,1,1.422.379A2.336,2.336,0,0,1,49.844-2.43a2.2,2.2,0,0,1-.992,1.871,4.28,4.28,0,0,1-2.562.715A4.47,4.47,0,0,1,44.4-.223a3.166,3.166,0,0,1-1.293-1.039,2.414,2.414,0,0,1-.469-1.426h2.141a1.179,1.179,0,0,0,.445.922,1.766,1.766,0,0,0,1.109.32,1.635,1.635,0,0,0,.98-.246A.766.766,0,0,0,47.648-2.336ZM55.188.156A4.15,4.15,0,0,1,52.16-.984a4.054,4.054,0,0,1-1.168-3.039v-.219a5.106,5.106,0,0,1,.492-2.277,3.612,3.612,0,0,1,1.395-1.547,3.914,3.914,0,0,1,2.059-.543,3.508,3.508,0,0,1,2.73,1.094,4.444,4.444,0,0,1,1,3.1v.922H53.281a2.1,2.1,0,0,0,.66,1.328,2,2,0,0,0,1.395.5,2.437,2.437,0,0,0,2.039-.945l1.109,1.242A3.389,3.389,0,0,1,57.109-.246,4.511,4.511,0,0,1,55.188.156ZM54.93-6.789a1.411,1.411,0,0,0-1.09.455,2.357,2.357,0,0,0-.535,1.3h3.141v-.181a1.681,1.681,0,0,0-.406-1.165A1.456,1.456,0,0,0,54.93-6.789Zm7.094-1.664.07.977a2.951,2.951,0,0,1,2.43-1.133,2.453,2.453,0,0,1,2,.789A3.682,3.682,0,0,1,67.2-5.461V0H64.938V-5.406a1.465,1.465,0,0,0-.312-1.043,1.4,1.4,0,0,0-1.039-.324,1.553,1.553,0,0,0-1.43.813V0H59.9V-8.453Zm9.586-2.078v2.078h1.445V-6.8H71.609v4.219a1.007,1.007,0,0,0,.18.672.9.9,0,0,0,.688.2,3.6,3.6,0,0,0,.664-.055V-.047a4.648,4.648,0,0,1-1.367.2,2.156,2.156,0,0,1-2.422-2.4V-6.8H68.117V-8.453h1.234v-2.078ZM79.211,0a2.507,2.507,0,0,1-.227-.758,2.732,2.732,0,0,1-2.133.914,3,3,0,0,1-2.059-.719,2.312,2.312,0,0,1-.816-1.812,2.389,2.389,0,0,1,1-2.062,4.915,4.915,0,0,1,2.879-.727h1.039v-.484a1.393,1.393,0,0,0-.3-.937,1.183,1.183,0,0,0-.949-.352,1.345,1.345,0,0,0-.895.273.929.929,0,0,0-.324.75H74.164a2.268,2.268,0,0,1,.453-1.359,3,3,0,0,1,1.281-.98,4.669,4.669,0,0,1,1.859-.355,3.689,3.689,0,0,1,2.48.785,2.747,2.747,0,0,1,.918,2.207v3.664a4.041,4.041,0,0,0,.336,1.82V0ZM77.344-1.57a1.945,1.945,0,0,0,.922-.223,1.462,1.462,0,0,0,.625-.6V-3.844h-.844q-1.7,0-1.8,1.172l-.008.133a.9.9,0,0,0,.3.7A1.153,1.153,0,0,0,77.344-1.57Zm9.063-.094a1.481,1.481,0,0,0,1.016-.344,1.2,1.2,0,0,0,.406-.914h2.117a2.9,2.9,0,0,1-.469,1.574A3.093,3.093,0,0,1,88.215-.238a3.949,3.949,0,0,1-1.77.395A3.67,3.67,0,0,1,83.586-1,4.56,4.56,0,0,1,82.539-4.18v-.148a4.508,4.508,0,0,1,1.039-3.117A3.627,3.627,0,0,1,86.43-8.609a3.555,3.555,0,0,1,2.543.9,3.2,3.2,0,0,1,.973,2.4H87.828a1.551,1.551,0,0,0-.406-1.072,1.354,1.354,0,0,0-1.031-.412,1.36,1.36,0,0,0-1.191.575,3.333,3.333,0,0,0-.4,1.866v.235a3.375,3.375,0,0,0,.4,1.878A1.377,1.377,0,0,0,86.406-1.664ZM93.617,0H91.352V-8.453h2.266Zm-2.4-10.641a1.112,1.112,0,0,1,.34-.836,1.277,1.277,0,0,1,.926-.328,1.28,1.28,0,0,1,.922.328,1.105,1.105,0,0,1,.344.836A1.108,1.108,0,0,1,93.4-9.8a1.283,1.283,0,0,1-.918.328,1.283,1.283,0,0,1-.918-.328A1.108,1.108,0,0,1,91.219-10.641ZM95.125-4.3a5.013,5.013,0,0,1,.484-2.242A3.546,3.546,0,0,1,97-8.07a4.069,4.069,0,0,1,2.113-.539,3.849,3.849,0,0,1,2.793,1.047,4.2,4.2,0,0,1,1.207,2.844l.016.578a4.418,4.418,0,0,1-1.086,3.121A3.775,3.775,0,0,1,99.133.156a3.793,3.793,0,0,1-2.918-1.172A4.5,4.5,0,0,1,95.125-4.2Zm2.258.16A3.16,3.16,0,0,0,97.836-2.3a1.5,1.5,0,0,0,1.3.638,1.5,1.5,0,0,0,1.281-.63,3.457,3.457,0,0,0,.461-2.015,3.128,3.128,0,0,0-.461-1.831,1.5,1.5,0,0,0-1.3-.649,1.474,1.474,0,0,0-1.281.646A3.516,3.516,0,0,0,97.383-4.144ZM99.563-12h2.461L99.859-9.578H98.023ZM106.6-8.453l.07.977a2.951,2.951,0,0,1,2.43-1.133,2.453,2.453,0,0,1,2,.789,3.682,3.682,0,0,1,.672,2.359V0h-2.258V-5.406a1.465,1.465,0,0,0-.312-1.043,1.4,1.4,0,0,0-1.039-.324,1.553,1.553,0,0,0-1.43.813V0h-2.258V-8.453Z" transform="translate(62.474 783.459)" fill="#12263f"/>
      <path id="Path_102180" data-name="Path 102180" d="M10.273,0H7.93V-4.875H3.359V0H1.016V-11.375H3.359v4.609H7.93v-4.609h2.344Zm5.75-6.25,2.367-5.125h2.563l-3.734,7.25V0H14.836V-4.125L11.1-11.375h2.57Zm8.313,2.242V0H21.992V-11.375H26.43a5.134,5.134,0,0,1,2.254.469,3.454,3.454,0,0,1,1.5,1.332A3.714,3.714,0,0,1,30.7-7.609a3.266,3.266,0,0,1-1.145,2.637,4.767,4.767,0,0,1-3.168.965Zm0-1.9H26.43a2.059,2.059,0,0,0,1.418-.437,1.591,1.591,0,0,0,.488-1.25,1.876,1.876,0,0,0-.492-1.352,1.839,1.839,0,0,0-1.359-.531H24.336Zm14.82.977h-4.5v3.047h5.281V0H32.313V-11.375h7.609v1.9H34.656v2.711h4.5Zm6.367.766H43.656V0H41.313V-11.375h4.227a4.778,4.778,0,0,1,3.109.9,3.1,3.1,0,0,1,1.094,2.539A3.5,3.5,0,0,1,49.238-6a3.437,3.437,0,0,1-1.527,1.238L50.172-.109V0H47.656Zm-1.867-1.9h1.891a1.936,1.936,0,0,0,1.367-.449A1.606,1.606,0,0,0,47.4-7.75a1.719,1.719,0,0,0-.457-1.266,1.9,1.9,0,0,0-1.4-.461H43.656ZM55.578-2.82l2.578-8.555h2.609L56.8,0H54.359L50.414-11.375h2.6ZM64.328,0H61.984V-11.375h2.344ZM72.4-2.984A1.2,1.2,0,0,0,71.93-4a6.148,6.148,0,0,0-1.687-.75,11.963,11.963,0,0,1-1.93-.777,3.153,3.153,0,0,1-1.937-2.82A2.747,2.747,0,0,1,66.895-10a3.389,3.389,0,0,1,1.492-1.129,5.616,5.616,0,0,1,2.184-.406,5.112,5.112,0,0,1,2.172.441,3.458,3.458,0,0,1,1.48,1.246,3.261,3.261,0,0,1,.527,1.828H72.406a1.534,1.534,0,0,0-.492-1.215,2.023,2.023,0,0,0-1.383-.434A2.162,2.162,0,0,0,69.2-9.3a1.146,1.146,0,0,0-.477.957,1.1,1.1,0,0,0,.559.93,6.311,6.311,0,0,0,1.645.7,7.106,7.106,0,0,1,2.914,1.492A2.972,2.972,0,0,1,74.75-3,2.737,2.737,0,0,1,73.633-.684a4.891,4.891,0,0,1-3.008.84,5.808,5.808,0,0,1-2.391-.48A3.783,3.783,0,0,1,66.59-1.641a3.371,3.371,0,0,1-.566-1.937h2.352q0,1.883,2.25,1.883a2.189,2.189,0,0,0,1.3-.34A1.106,1.106,0,0,0,72.4-2.984ZM85.68-5.43a6.867,6.867,0,0,1-.594,2.945,4.472,4.472,0,0,1-1.7,1.953,4.7,4.7,0,0,1-2.535.688,4.732,4.732,0,0,1-2.523-.68,4.515,4.515,0,0,1-1.719-1.941,6.67,6.67,0,0,1-.617-2.9V-5.93A6.831,6.831,0,0,1,76.6-8.887a4.508,4.508,0,0,1,1.711-1.961,4.706,4.706,0,0,1,2.527-.684,4.706,4.706,0,0,1,2.527.684,4.508,4.508,0,0,1,1.711,1.961,6.811,6.811,0,0,1,.605,2.949ZM83.3-5.945a4.787,4.787,0,0,0-.641-2.719,2.088,2.088,0,0,0-1.828-.93,2.088,2.088,0,0,0-1.82.918,4.732,4.732,0,0,0-.648,2.691v.555a4.847,4.847,0,0,0,.641,2.7,2.082,2.082,0,0,0,1.844.961,2.064,2.064,0,0,0,1.813-.926,4.819,4.819,0,0,0,.641-2.7Zm8.289,1.781H89.727V0H87.383V-11.375h4.227a4.778,4.778,0,0,1,3.109.9,3.1,3.1,0,0,1,1.094,2.539A3.5,3.5,0,0,1,95.309-6a3.437,3.437,0,0,1-1.527,1.238L96.242-.109V0H93.727Zm-1.867-1.9h1.891a1.936,1.936,0,0,0,1.367-.449,1.606,1.606,0,0,0,.484-1.238,1.719,1.719,0,0,0-.457-1.266,1.9,1.9,0,0,0-1.4-.461H89.727Z" transform="translate(-400.465 645.32)" fill="#12263f"/>
    </g>
  </g>
</svg>
