<svg xmlns="http://www.w3.org/2000/svg" width="570" height="300" viewBox="0 0 570 300">
  <g id="t2-i4" transform="translate(-353.256 -952.271)">
    <rect id="Rectángulo_5238" data-name="Rectángulo 5238" width="570" height="300" transform="translate(353.256 952.271)" fill="none"/>
    <g id="Group_59128" data-name="Group 59128">
      <rect id="Rectangle_7627" data-name="Rectangle 7627" width="149.807" height="24.518" transform="translate(425.433 978.104)" fill="#ed1c24"/>
      <path id="Rectangle_7627_-_Outline" data-name="Rectangle 7627 - Outline" d="M-.5-.5H150.307V25.018H-.5ZM149.307.5H.5V24.018H149.307Z" transform="translate(425.433 978.104)" fill="#891c24"/>
      <rect id="Rectangle_7628" data-name="Rectangle 7628" width="478.184" height="40.268" transform="translate(903.618 1226.438) rotate(180)" fill="#58edf9"/>
      <path id="Rectangle_7628_-_Outline" data-name="Rectangle 7628 - Outline" d="M-.5-.5H478.684V40.768H-.5ZM477.684.5H.5V39.768H477.684Z" transform="translate(903.618 1226.438) rotate(180)" fill="#039be5"/>
      <rect id="Rectangle_7629" data-name="Rectangle 7629" width="478.184" height="40.268" transform="translate(903.618 1175.01) rotate(180)" fill="#ffca28"/>
      <path id="Rectangle_7629_-_Outline" data-name="Rectangle 7629 - Outline" d="M-.5-.5H478.684V40.768H-.5ZM477.684.5H.5V39.768H477.684Z" transform="translate(903.618 1175.01) rotate(180)" fill="#ffa726"/>
      <rect id="Rectangle_7630" data-name="Rectangle 7630" width="478.184" height="40.268" transform="translate(903.618 1123.581) rotate(180)" fill="#e2f8fa"/>
      <path id="Rectangle_7630_-_Outline" data-name="Rectangle 7630 - Outline" d="M0-.75H478.184a.75.75,0,0,1,.75.75V40.268a.75.75,0,0,1-.75.75H0a.75.75,0,0,1-.75-.75V0A.75.75,0,0,1,0-.75ZM477.434.75H.75V39.518H477.434Z" transform="translate(903.618 1123.581) rotate(180)" fill="#4dd0e1"/>
      <rect id="Rectangle_7631" data-name="Rectangle 7631" width="87.197" height="30.638" transform="translate(839.613 1118.766) rotate(180)" fill="#e2f8fa"/>
      <path id="Rectangle_7631_-_Outline" data-name="Rectangle 7631 - Outline" d="M0-.75H87.2a.75.75,0,0,1,.75.75V30.638a.75.75,0,0,1-.75.75H0a.75.75,0,0,1-.75-.75V0A.75.75,0,0,1,0-.75ZM86.447.75H.75V29.888h85.7Z" transform="translate(839.613 1118.766) rotate(180)" fill="#4dd0e1"/>
      <text id="App_A" data-name="App A" transform="translate(478.942 995.038)" fill="#fff" font-size="16" font-family="Roboto-Regular, Roboto"><tspan x="0" y="0">App A</tspan></text>
      <text id="Hipervisor" transform="translate(627.217 1108.123)" fill="#12263f" font-size="16" font-family="Roboto-Bold, Roboto" font-weight="700"><tspan x="0" y="0">Hipervisor</tspan></text>
      <text id="Sistema_Operativo_Host" data-name="Sistema Operativo Host" transform="translate(579.381 1159.552)" fill="#12263f" font-size="16" font-family="Roboto-Bold, Roboto" font-weight="700"><tspan x="0" y="0">Sistema Operativo Host</tspan></text>
      <text id="Hardware" transform="translate(629.897 1210.98)" fill="#12263f" font-size="16" font-family="Roboto-Bold, Roboto" font-weight="700"><tspan x="0" y="0">Hardware</tspan></text>
      <text id="VM" transform="translate(372.895 1025.253)" fill="#ed1c24" font-size="16" font-family="Roboto-Bold, Roboto" font-weight="700"><tspan x="0" y="0">VM</tspan></text>
      <rect id="Rectangle_7632" data-name="Rectangle 7632" width="149.807" height="24.518" transform="translate(425.433 1008.318)" fill="#ed1c24"/>
      <path id="Rectangle_7632_-_Outline" data-name="Rectangle 7632 - Outline" d="M-.5-.5H150.307V25.018H-.5ZM149.307.5H.5V24.018H149.307Z" transform="translate(425.433 1008.318)" fill="#891c24"/>
      <text id="Binarios_Librerías" data-name="Binarios Librerías" transform="translate(438.567 1025.252)" fill="#fff" font-size="16" font-family="Roboto-Regular, Roboto"><tspan x="0" y="0">Binarios Librerías</tspan></text>
      <rect id="Rectangle_7633" data-name="Rectangle 7633" width="149.807" height="24.518" transform="translate(425.433 1038.532)" fill="#ffca28"/>
      <path id="Rectangle_7633_-_Outline" data-name="Rectangle 7633 - Outline" d="M-.5-.5H150.307V25.018H-.5ZM149.307.5H.5V24.018H149.307Z" transform="translate(425.433 1038.532)" fill="#ffa726"/>
      <text id="S.O_Modificado" data-name="S.O Modificado" transform="translate(445.616 1055.467)" fill="#12263f" font-size="16" font-family="Roboto-Regular, Roboto"><tspan x="0" y="0">S.O Modificado</tspan></text>
      <rect id="Rectangle_7634" data-name="Rectangle 7634" width="149.807" height="24.518" transform="translate(589.622 978.104)" fill="#ed1c24"/>
      <path id="Rectangle_7634_-_Outline" data-name="Rectangle 7634 - Outline" d="M-.5-.5H150.307V25.018H-.5ZM149.307.5H.5V24.018H149.307Z" transform="translate(589.622 978.104)" fill="#891c24"/>
      <text id="App_A-2" data-name="App A" transform="translate(643.13 995.038)" fill="#fff" font-size="16" font-family="Roboto-Regular, Roboto"><tspan x="0" y="0">App A</tspan></text>
      <rect id="Rectangle_7635" data-name="Rectangle 7635" width="149.807" height="24.518" transform="translate(589.622 1008.318)" fill="#ed1c24"/>
      <path id="Rectangle_7635_-_Outline" data-name="Rectangle 7635 - Outline" d="M-.5-.5H150.307V25.018H-.5ZM149.307.5H.5V24.018H149.307Z" transform="translate(589.622 1008.318)" fill="#891c24"/>
      <text id="Binarios_Librerías-2" data-name="Binarios Librerías" transform="translate(602.756 1025.252)" fill="#fff" font-size="16" font-family="Roboto-Regular, Roboto"><tspan x="0" y="0">Binarios Librerías</tspan></text>
      <rect id="Rectangle_7636" data-name="Rectangle 7636" width="149.807" height="24.518" transform="translate(589.622 1038.532)" fill="#ffca28"/>
      <path id="Rectangle_7636_-_Outline" data-name="Rectangle 7636 - Outline" d="M-.5-.5H150.307V25.018H-.5ZM149.307.5H.5V24.018H149.307Z" transform="translate(589.622 1038.532)" fill="#ffa726"/>
      <text id="S.O_Modificado-2" data-name="S.O Modificado" transform="translate(609.861 1055.467)" fill="#12263f" font-size="16" font-family="Roboto-Regular, Roboto"><tspan x="0" y="0">S.O Modificado</tspan></text>
      <text id="Drive" transform="translate(778.058 1108.122)" fill="#12263f" font-size="16" font-family="Roboto-Regular, Roboto"><tspan x="0" y="0">Drive</tspan></text>
      <rect id="Rectangle_7637" data-name="Rectangle 7637" width="149.807" height="24.518" transform="translate(753.811 978.104)" fill="#ed1c24"/>
      <path id="Rectangle_7637_-_Outline" data-name="Rectangle 7637 - Outline" d="M-.5-.5H150.307V25.018H-.5ZM149.307.5H.5V24.018H149.307Z" transform="translate(753.811 978.104)" fill="#891c24"/>
      <text id="App_A-3" data-name="App A" transform="translate(807.32 995.038)" fill="#fff" font-size="16" font-family="Roboto-Regular, Roboto"><tspan x="0" y="0">App A</tspan></text>
      <rect id="Rectangle_7638" data-name="Rectangle 7638" width="149.807" height="24.518" transform="translate(753.811 1008.318)" fill="#ed1c24"/>
      <path id="Rectangle_7638_-_Outline" data-name="Rectangle 7638 - Outline" d="M-.5-.5H150.307V25.018H-.5ZM149.307.5H.5V24.018H149.307Z" transform="translate(753.811 1008.318)" fill="#891c24"/>
      <text id="Binarios_Librerías-3" data-name="Binarios Librerías" transform="translate(766.944 1025.252)" fill="#fff" font-size="16" font-family="Roboto-Regular, Roboto"><tspan x="0" y="0">Binarios Librerías</tspan></text>
      <rect id="Rectangle_7639" data-name="Rectangle 7639" width="149.807" height="24.518" transform="translate(753.811 1038.532)" fill="#ffca28"/>
      <path id="Rectangle_7639_-_Outline" data-name="Rectangle 7639 - Outline" d="M-.5-.5H150.307V25.018H-.5ZM149.307.5H.5V24.018H149.307Z" transform="translate(753.811 1038.532)" fill="#ffa726"/>
      <text id="S.O_Modificado-3" data-name="S.O Modificado" transform="translate(774.05 1055.467)" fill="#12263f" font-size="16" font-family="Roboto-Regular, Roboto"><tspan x="0" y="0">S.O Modificado</tspan></text>
      <path id="Path_102196" data-name="Path 102196" d="M419.683,1063.55h-8.759V977.6h8.759v1h-7.759v83.947h7.759Z" fill="#891c24"/>
      <path id="Line_160" data-name="Line 160" d="M293.9,25.429l-4.982-.423.085-1,4.982.423Zm-9.964-.845-4.982-.423.085-1,4.982.423Zm-9.964-.845-4.982-.423.085-1,4.982.423Zm-9.964-.845-4.982-.423.085-1,4.982.423Zm-9.964-.845-4.982-.423.085-1,4.982.423Zm-9.964-.845-4.982-.423.085-1,4.982.423Zm-9.964-.845-4.982-.423.085-1,4.982.423Zm-9.964-.845-4.982-.423.085-1,4.982.423Zm-9.964-.845-4.982-.423.085-1,4.982.423Zm-9.964-.845-4.982-.423.085-1,4.982.423Zm-9.964-.845-4.982-.423.085-1,4.982.423Zm-9.964-.845-4.982-.423.085-1,4.982.423Zm-9.964-.845-4.982-.423.084-1,4.982.423Zm-9.964-.845-4.982-.423.085-1,4.982.423ZM154.4,13.6l-4.982-.423.085-1,4.982.423Zm-9.964-.845-4.982-.423.085-1,4.982.423Zm-9.964-.845-4.982-.423.085-1,4.982.423Zm-9.964-.845-4.982-.423.085-1,4.982.423Zm-9.964-.845-4.982-.423.085-1,4.982.423Zm-9.964-.845L99.6,8.949l.084-1,4.982.423Zm-9.964-.845L89.636,8.1l.085-1L94.7,7.53Zm-9.964-.845-4.982-.423.085-1,4.982.423Zm-9.964-.845-4.982-.423.085-1,4.982.423Zm-9.964-.845-4.982-.423.084-1L64.81,5Zm-9.964-.845-4.982-.423.084-1,4.982.423ZM44.8,4.3l-4.982-.423.084-1,4.982.423Zm-9.964-.845L29.85,3.034l.085-1,4.982.423Zm-9.964-.845-4.982-.423.084-1,4.982.423ZM14.9,1.766,9.922,1.343l.085-1,4.982.423ZM4.94.921-.042.5l.085-1,4.982.423Z" transform="translate(500.337 1063.05)" fill="#891c24"/>
      <path id="Line_161" data-name="Line 161" d="M131.4,25.569l-3.791-.723.187-.982,3.791.723Zm-8.7-1.66-4.911-.937.187-.982,4.911.937Zm-9.823-1.873-4.911-.937.187-.982,4.911.937Zm-9.823-1.873-4.911-.937.187-.982,4.911.937Zm-9.823-1.873-4.911-.937.187-.982,4.911.937ZM83.4,16.415l-4.911-.937.187-.982,4.911.937Zm-9.823-1.873-4.911-.937.187-.982,4.911.937Zm-9.823-1.873-4.911-.937.187-.982,4.911.937ZM53.933,10.8l-4.911-.937.187-.982,4.911.937ZM44.11,8.922,39.2,7.985,39.385,7l4.911.937ZM34.287,7.048l-4.911-.937.187-.982,4.911.937ZM24.464,5.175l-4.911-.937.187-.982,4.911.937ZM14.641,3.3,9.729,2.365l.187-.982,4.911.937ZM4.818,1.428-.094.491.094-.491,5.005.446Z" transform="translate(664.526 1063.05)" fill="#891c24"/>
      <path id="Line_162" data-name="Line 162" d="M.3,25.475-.3,24.681l.959-.735.609.793ZM5.231,21.7,4.622,20.9,8.59,17.86l.609.794Zm7.935-6.086-.609-.793,3.968-3.043.609.794ZM21.1,9.525l-.609-.794L24.46,5.689l.609.794ZM29.036,3.44l-.609-.794L32.395-.4,33,.4Z" transform="translate(796.015 1063.05)" fill="#891c24"/>
    </g>
  </g>
</svg>
