<svg xmlns="http://www.w3.org/2000/svg" width="570" height="300" viewBox="0 0 570 300">
  <g id="t2-i5" transform="translate(-209.378 -1310.215)">
    <rect id="Rectángulo_5275" data-name="Rectángulo 5275" width="570" height="300" transform="translate(209.378 1310.215)" fill="none"/>
    <g id="Group_59129" data-name="Group 59129">
      <rect id="Rectangle_7640" data-name="Rectangle 7640" width="125.836" height="24.518" transform="translate(336.5 1341.051)" fill="#ed1c24"/>
      <path id="Rectangle_7640_-_Outline" data-name="Rectangle 7640 - Outline" d="M-.5-.5H126.336V25.018H-.5ZM125.336.5H.5V24.018H125.336Z" transform="translate(336.5 1341.051)" fill="#891c24"/>
      <rect id="Rectangle_7641" data-name="Rectangle 7641" width="423.239" height="40.268" transform="translate(759.74 1579.38) rotate(180)" fill="#58edf9"/>
      <path id="Rectangle_7641_-_Outline" data-name="Rectangle 7641 - Outline" d="M-.5-.5H423.739V40.768H-.5ZM422.739.5H.5V39.768H422.739Z" transform="translate(759.74 1579.38) rotate(180)" fill="#039be5"/>
      <rect id="Rectangle_7642" data-name="Rectangle 7642" width="423.239" height="40.268" transform="translate(759.74 1527.951) rotate(180)" fill="#ffca28"/>
      <path id="Rectangle_7642_-_Outline" data-name="Rectangle 7642 - Outline" d="M-.5-.5H423.739V40.768H-.5ZM422.739.5H.5V39.768H422.739Z" transform="translate(759.74 1527.951) rotate(180)" fill="#ffa726"/>
      <rect id="Rectangle_7643" data-name="Rectangle 7643" width="423.239" height="40.268" transform="translate(759.74 1476.522) rotate(180)" fill="#e2f8fa"/>
      <path id="Rectangle_7643_-_Outline" data-name="Rectangle 7643 - Outline" d="M0-.75H423.239a.75.75,0,0,1,.75.75V40.268a.75.75,0,0,1-.75.75H0a.75.75,0,0,1-.75-.75V0A.75.75,0,0,1,0-.75ZM422.489.75H.75V39.518H422.489Z" transform="translate(759.74 1476.522) rotate(180)" fill="#4dd0e1"/>
      <text id="App_A" data-name="App A" transform="translate(378.023 1357.986)" fill="#fff" font-size="16" font-family="Roboto-Regular, Roboto"><tspan x="0" y="0">App A</tspan></text>
      <text id="Motor_de_contenedores" data-name="Motor de contenedores" transform="translate(474.244 1461.064)" fill="#12263f" font-size="16" font-family="Roboto-Bold, Roboto" font-weight="700"><tspan x="0" y="0">Motor de contenedores</tspan></text>
      <text id="Sistema_Operativo_Host" data-name="Sistema Operativo Host" transform="translate(472.795 1512.493)" fill="#12263f" font-size="16" font-family="Roboto-Bold, Roboto" font-weight="700"><tspan x="0" y="0">Sistema Operativo Host</tspan></text>
      <text id="Hardware" transform="translate(523.311 1563.921)" fill="#12263f" font-size="16" font-family="Roboto-Bold, Roboto" font-weight="700"><tspan x="0" y="0">Hardware</tspan></text>
      <text id="Contenedor" transform="translate(229.017 1388.201)" fill="#ed1c24" font-size="16" font-family="Roboto-Bold, Roboto" font-weight="700"><tspan x="0" y="0">Contenedor</tspan></text>
      <rect id="Rectangle_7644" data-name="Rectangle 7644" width="125.836" height="43.167" transform="translate(336.5 1371.266)" fill="#ed1c24"/>
      <path id="Rectangle_7644_-_Outline" data-name="Rectangle 7644 - Outline" d="M-.5-.5H126.336V43.667H-.5ZM125.336.5H.5V42.667H125.336Z" transform="translate(336.5 1371.266)" fill="#891c24"/>
      <text id="Binarios_Librerías" data-name="Binarios
Librerías" transform="translate(368.653 1388.2)" fill="#fff" font-size="16" font-family="Roboto-Regular, Roboto"><tspan x="0" y="0">Binarios</tspan><tspan x="0" y="19.2">Librerías</tspan></text>
      <rect id="Rectangle_7645" data-name="Rectangle 7645" width="125.836" height="24.518" transform="translate(485.202 1341.051)" fill="#ed1c24"/>
      <path id="Rectangle_7645_-_Outline" data-name="Rectangle 7645 - Outline" d="M-.5-.5H126.336V25.018H-.5ZM125.336.5H.5V24.018H125.336Z" transform="translate(485.202 1341.051)" fill="#891c24"/>
      <text id="App_2" data-name="App 2" transform="translate(527.452 1357.986)" fill="#fff" font-size="16" font-family="Roboto-Regular, Roboto"><tspan x="0" y="0">App 2</tspan></text>
      <rect id="Rectangle_7646" data-name="Rectangle 7646" width="125.836" height="43.167" transform="translate(485.202 1371.266)" fill="#ed1c24"/>
      <path id="Rectangle_7646_-_Outline" data-name="Rectangle 7646 - Outline" d="M-.5-.5H126.336V43.667H-.5ZM125.336.5H.5V42.667H125.336Z" transform="translate(485.202 1371.266)" fill="#891c24"/>
      <text id="Binarios_Librerías-2" data-name="Binarios
Librerías" transform="translate(517.354 1388.2)" fill="#fff" font-size="16" font-family="Roboto-Regular, Roboto"><tspan x="0" y="0">Binarios</tspan><tspan x="0" y="19.2">Librerías</tspan></text>
      <rect id="Rectangle_7647" data-name="Rectangle 7647" width="125.836" height="24.518" transform="translate(633.904 1341.051)" fill="#ed1c24"/>
      <path id="Rectangle_7647_-_Outline" data-name="Rectangle 7647 - Outline" d="M-.5-.5H126.336V25.018H-.5ZM125.336.5H.5V24.018H125.336Z" transform="translate(633.904 1341.051)" fill="#891c24"/>
      <text id="App_3" data-name="App 3" transform="translate(676.154 1357.986)" fill="#fff" font-size="16" font-family="Roboto-Regular, Roboto"><tspan x="0" y="0">App 3</tspan></text>
      <rect id="Rectangle_7648" data-name="Rectangle 7648" width="125.836" height="43.167" transform="translate(633.904 1371.266)" fill="#ed1c24"/>
      <path id="Rectangle_7648_-_Outline" data-name="Rectangle 7648 - Outline" d="M-.5-.5H126.336V43.667H-.5ZM125.336.5H.5V42.667H125.336Z" transform="translate(633.904 1371.266)" fill="#891c24"/>
      <text id="Binarios_Librerías-3" data-name="Binarios
Librerías" transform="translate(666.056 1388.2)" fill="#fff" font-size="16" font-family="Roboto-Regular, Roboto"><tspan x="0" y="0">Binarios</tspan><tspan x="0" y="19.2">Librerías</tspan></text>
      <path id="Path_102197" data-name="Path 102197" d="M330.75,1414.933h-8.759v-74.382h8.759v1h-7.759v72.382h7.759Z" fill="#891c24"/>
    </g>
  </g>
</svg>
