<svg xmlns="http://www.w3.org/2000/svg" xmlns:xlink="http://www.w3.org/1999/xlink" width="234.052" height="270" viewBox="0 0 234.052 270">
  <defs>
    <clipPath id="clip-path">
      <path id="Path_102035" data-name="Path 102035" d="M856.454,772.684l-8.668,5.793,50.636,28.2,7.9-4.142,10.638,5.689s21.5,8.679,10.92-7.5l20.942-14.773s7.084,5.611,11.1,3.016-2.841-7.029-2.841-7.029l-36.459-17.093Z" transform="translate(-847.786 -764.838)" fill="none"/>
    </clipPath>
  </defs>
  <g id="t4-i5" transform="translate(-420.474 -2478)">
    <g id="t4-i5-2" data-name="t4-i5">
      <rect id="Rectangle_6810" data-name="Rectangle 6810" width="173" height="158" rx="40" transform="translate(532.197 2495.974) rotate(45)" fill="#fff5d4"/>
      <g id="Group_59065" data-name="Group 59065" transform="translate(-377.786 1851.784)">
        <g id="Group_58975" data-name="Group 58975" transform="translate(847.786 850.51)">
          <g id="Group_58974" data-name="Group 58974" clip-path="url(#clip-path)">
            <g id="Group_58973" data-name="Group 58973" transform="translate(-5.007 -19.148)">
              <g id="Group_58946" data-name="Group 58946" transform="translate(10.994 6.065)">
                <rect id="Rectangle_7507" data-name="Rectangle 7507" width="71.245" height="1.037" transform="translate(0 35.588) rotate(-29.968)" fill="#150035"/>
              </g>
              <g id="Group_58947" data-name="Group 58947" transform="translate(13.816 7.572)">
                <rect id="Rectangle_7508" data-name="Rectangle 7508" width="71.245" height="1.037" transform="translate(0 35.582) rotate(-29.962)" fill="#150035"/>
              </g>
              <g id="Group_58948" data-name="Group 58948" transform="translate(16.378 9.176)">
                <rect id="Rectangle_7509" data-name="Rectangle 7509" width="71.245" height="1.037" transform="translate(0 35.582) rotate(-29.962)" fill="#150035"/>
              </g>
              <g id="Group_58949" data-name="Group 58949" transform="translate(19.255 10.654)">
                <path id="Path_102033" data-name="Path 102033" d="M857.108,796.063l-.517-.9,61.727-35.575.517.9Z" transform="translate(-856.592 -759.589)" fill="#150035"/>
              </g>
              <g id="Group_58950" data-name="Group 58950" transform="translate(21.612 12.337)">
                <rect id="Rectangle_7510" data-name="Rectangle 7510" width="71.245" height="1.037" transform="translate(0 35.516) rotate(-29.901)" fill="#150035"/>
              </g>
              <g id="Group_58951" data-name="Group 58951" transform="translate(24.454 13.808)">
                <rect id="Rectangle_7511" data-name="Rectangle 7511" width="71.246" height="1.037" transform="translate(0 35.582) rotate(-29.962)" fill="#150035"/>
              </g>
              <g id="Group_58952" data-name="Group 58952" transform="translate(27.018 15.408)">
                <rect id="Rectangle_7512" data-name="Rectangle 7512" width="71.245" height="1.037" transform="translate(0 35.592) rotate(-29.972)" fill="#150035"/>
              </g>
              <g id="Group_58953" data-name="Group 58953" transform="translate(29.896 16.881)">
                <rect id="Rectangle_7513" data-name="Rectangle 7513" width="71.246" height="1.037" transform="translate(0 35.592) rotate(-29.972)" fill="#150035"/>
              </g>
              <g id="Group_58954" data-name="Group 58954" transform="translate(32.455 18.49)">
                <rect id="Rectangle_7514" data-name="Rectangle 7514" width="71.246" height="1.037" transform="translate(0 35.582) rotate(-29.962)" fill="#150035"/>
              </g>
              <g id="Group_58955" data-name="Group 58955" transform="translate(35.325 19.991)">
                <rect id="Rectangle_7515" data-name="Rectangle 7515" width="71.246" height="1.037" transform="translate(0 35.582) rotate(-29.962)" fill="#150035"/>
              </g>
              <g id="Group_58956" data-name="Group 58956" transform="translate(37.89 21.59)">
                <rect id="Rectangle_7516" data-name="Rectangle 7516" width="71.246" height="1.037" transform="translate(0 35.592) rotate(-29.972)" fill="#150035"/>
              </g>
              <g id="Group_58957" data-name="Group 58957" transform="translate(40.765 23.069)">
                <rect id="Rectangle_7517" data-name="Rectangle 7517" width="71.245" height="1.037" transform="translate(0 35.582) rotate(-29.962)" fill="#150035"/>
              </g>
              <g id="Group_58958" data-name="Group 58958" transform="translate(43.121 24.755)">
                <rect id="Rectangle_7518" data-name="Rectangle 7518" width="71.245" height="1.037" transform="translate(0 35.516) rotate(-29.901)" fill="#150035"/>
              </g>
              <g id="Group_58959" data-name="Group 58959" transform="translate(45.943 26.263)">
                <rect id="Rectangle_7519" data-name="Rectangle 7519" width="71.245" height="1.037" transform="translate(0 35.51) rotate(-29.895)" fill="#150035"/>
              </g>
              <g id="Group_58960" data-name="Group 58960" transform="translate(48.505 27.867)">
                <rect id="Rectangle_7520" data-name="Rectangle 7520" width="71.245" height="1.037" transform="matrix(0.867, -0.498, 0.498, 0.867, 0, 35.51)" fill="#150035"/>
              </g>
              <g id="Group_58961" data-name="Group 58961" transform="translate(51.392 29.325)">
                <rect id="Rectangle_7521" data-name="Rectangle 7521" width="71.245" height="1.037" transform="translate(0 35.541) rotate(-29.925)" fill="#150035"/>
              </g>
              <g id="Group_58962" data-name="Group 58962" transform="translate(53.945 30.945)">
                <rect id="Rectangle_7522" data-name="Rectangle 7522" width="71.245" height="1.037" transform="translate(0 35.51) rotate(-29.895)" fill="#150035"/>
              </g>
              <g id="Group_58963" data-name="Group 58963" transform="translate(55.186 33.216)">
                <rect id="Rectangle_7523" data-name="Rectangle 7523" width="71.245" height="1.036" transform="translate(0 35.516) rotate(-29.901)" fill="#150035"/>
              </g>
              <g id="Group_58964" data-name="Group 58964" transform="translate(58.026 34.691)">
                <path id="Path_102034" data-name="Path 102034" d="M881.071,810.918l-.517-.9,61.727-35.575.517.9Z" transform="translate(-880.554 -774.444)" fill="#150035"/>
              </g>
              <g id="Group_58965" data-name="Group 58965" transform="translate(60.569 36.328)">
                <rect id="Rectangle_7524" data-name="Rectangle 7524" width="71.245" height="1.037" transform="translate(0 35.51) rotate(-29.895)" fill="#150035"/>
              </g>
              <g id="Group_58966" data-name="Group 58966" transform="translate(63.459 37.781)">
                <rect id="Rectangle_7525" data-name="Rectangle 7525" width="71.245" height="1.037" transform="translate(0 35.551) rotate(-29.934)" fill="#150035"/>
              </g>
              <g id="Group_58967" data-name="Group 58967" transform="translate(66.009 39.406)">
                <rect id="Rectangle_7526" data-name="Rectangle 7526" width="71.245" height="1.037" transform="translate(0 35.51) rotate(-29.895)" fill="#150035"/>
              </g>
              <g id="Group_58968" data-name="Group 58968">
                <rect id="Rectangle_7527" data-name="Rectangle 7527" width="71.245" height="1.037" transform="translate(0 35.516) rotate(-29.901)" fill="#150035"/>
              </g>
              <g id="Group_58969" data-name="Group 58969" transform="translate(2.846 1.464)">
                <rect id="Rectangle_7528" data-name="Rectangle 7528" width="71.246" height="1.037" transform="translate(0 35.598) rotate(-29.977)" fill="#150035"/>
              </g>
              <g id="Group_58970" data-name="Group 58970" transform="translate(5.405 3.073)">
                <rect id="Rectangle_7529" data-name="Rectangle 7529" width="71.245" height="1.037" transform="translate(0 35.588) rotate(-29.968)" fill="#150035"/>
              </g>
              <g id="Group_58971" data-name="Group 58971" transform="translate(8.283 4.547)">
                <rect id="Rectangle_7530" data-name="Rectangle 7530" width="71.245" height="1.037" transform="translate(0 35.587) rotate(-29.967)" fill="#150035"/>
              </g>
              <g id="Group_58972" data-name="Group 58972" transform="translate(10.845 6.151)">
                <rect id="Rectangle_7531" data-name="Rectangle 7531" width="71.246" height="1.037" transform="translate(0 35.588) rotate(-29.968)" fill="#150035"/>
              </g>
            </g>
          </g>
        </g>
        <g id="Group_58995" data-name="Group 58995" transform="translate(879.532 626.216)">
          <g id="Group_58993" data-name="Group 58993">
            <g id="Group_58988" data-name="Group 58988" transform="translate(0 25.003)">
              <g id="Group_58985" data-name="Group 58985">
                <g id="Group_58983" data-name="Group 58983">
                  <g id="Group_58982" data-name="Group 58982">
                    <g id="Group_58976" data-name="Group 58976" transform="translate(44.704 71.935)">
                      <path id="Path_102036" data-name="Path 102036" d="M909.864,717.521l-13.688-8.844a.241.241,0,0,1-.057-.358l17.384-21.1a.243.243,0,0,1,.426.1l2.772,12.838,0,.036.662,8.81a.25.25,0,0,1-.057.175l-7.129,8.292A.242.242,0,0,1,909.864,717.521Z" transform="translate(-894.399 -685.506)" fill="#150035"/>
                      <path id="Path_102037" data-name="Path 102037" d="M909.62,719.51l-13.689-8.842a1.863,1.863,0,0,1-.835-1.283l-.062-.914,17.844-21.656a1.845,1.845,0,0,1,1.887-.631,1.869,1.869,0,0,1,1.388,1.417l2.76,12.786.71,9.114-.006.846-7.559,8.794a1.873,1.873,0,0,1-2.438.369Zm6.111-18.449-2.155-9.975L899,708.773l11.368,7.349,5.971-6.945Z" transform="translate(-895.035 -686.127)" fill="#150035"/>
                    </g>
                    <g id="Group_58977" data-name="Group 58977">
                      <path id="Path_102038" data-name="Path 102038" d="M875.106,681.254l65.334-37.723a4.78,4.78,0,0,1,4.262-.6h0l12.781,7.656a.353.353,0,0,1,.079.545l-15.269,16.143a.352.352,0,0,0-.094.244v26.67a14.843,14.843,0,0,1-6.7,11.592l-9.74,5.623c-.236.338-.443.626-.681.963a35.943,35.943,0,0,1-15.15,22.767c-.466.319-.778-.147-.469-.736,1.573-2.985,4.534-9.482,3.628-14.593-.5-.215-.576-.249-1.074-.461l-20.156,11.634a.354.354,0,0,0-.152.183L883.3,753.615a.351.351,0,0,1-.5.181l-12.645-7.606h0a4.685,4.685,0,0,1-1.734-4.09V692.844A14.842,14.842,0,0,1,875.106,681.254Z" transform="translate(-866.785 -641.056)" fill="#fff"/>
                      <path id="Path_102039" data-name="Path 102039" d="M882.575,755.8l-12.713-7.653a6.245,6.245,0,0,1-2.456-5.438V693.458a16.367,16.367,0,0,1,7.508-13l65.333-37.723a6.392,6.392,0,0,1,5.916-.586l12.747,7.635a1.98,1.98,0,0,1,.458,3.076l-14.92,15.777V694.8a16.358,16.358,0,0,1-7.5,13l-9.436,5.45-.267.375a37.433,37.433,0,0,1-15.764,23.461,1.987,1.987,0,0,1-2.479-.1,2.213,2.213,0,0,1-.351-2.736c1.2-2.277,3.759-7.7,3.6-12.2l-18.557,10.718L885.439,754.8a1.967,1.967,0,0,1-1.181,1.168,1.927,1.927,0,0,1-.667.12A2.025,2.025,0,0,1,882.575,755.8Zm32.587-36.528.152.859c.642,3.621-.414,7.754-1.736,11.145A34.383,34.383,0,0,0,924.1,712.7l.065-.364,1.107-1.555,10.043-5.8a13.2,13.2,0,0,0,5.883-10.179v-26.67a1.981,1.981,0,0,1,.537-1.361l14.179-14.991-11.221-6.741a3.275,3.275,0,0,0-2.815.511l-65.333,37.723a13.221,13.221,0,0,0-5.881,10.184v49.254a3.225,3.225,0,0,0,.947,2.7l11.324,6.817,7.881-21.037.361-.719,21.36-12.331Z" transform="translate(-867.406 -641.668)" fill="#150035"/>
                    </g>
                    <g id="Group_58978" data-name="Group 58978" transform="translate(13.002 7.768)">
                      <path id="Path_102040" data-name="Path 102040" d="M882.966,686.19l65.507-37.823c3.6-2.076,6.519-.392,6.519,3.763v49.458a14.4,14.4,0,0,1-6.519,11.286L938.4,718.693a1.185,1.185,0,0,0-.508.775,35.883,35.883,0,0,1-15.158,22.861c-.472.319-.783-.147-.476-.734,1.628-3.087,4.746-9.943,3.521-15.124-.058-.248-.293-.324-.539-.18L882.966,750.7c-3.6,2.078-6.517.395-6.517-3.763V697.476A14.407,14.407,0,0,1,882.966,686.19Z" transform="translate(-874.82 -645.845)" fill="#ffca28"/>
                      <path id="Path_102041" data-name="Path 102041" d="M878.165,753.186c-1.754-1.015-2.723-3.013-2.723-5.624V698.1a15.983,15.983,0,0,1,7.331-12.693l65.506-37.823c2.272-1.311,4.487-1.468,6.237-.458s2.723,3.014,2.723,5.629v49.458a15.984,15.984,0,0,1-7.331,12.7l-9.831,5.676a37.847,37.847,0,0,1-15.81,23.709,1.981,1.981,0,0,1-2.474-.091,2.216,2.216,0,0,1-.358-2.739c1.218-2.312,3.76-7.71,3.6-12.2L884.4,752.731a7.527,7.527,0,0,1-3.726,1.112A4.945,4.945,0,0,1,878.165,753.186Zm48.709-27.809a1.921,1.921,0,0,1,1.105,1.343c.888,3.765-.206,8.173-1.607,11.769a34.211,34.211,0,0,0,10.533-18.661,2.762,2.762,0,0,1,1.3-1.919l10.075-5.815a12.835,12.835,0,0,0,5.705-9.881V652.755c0-1.383-.4-2.409-1.1-2.812a3.157,3.157,0,0,0-2.98.456L884.4,688.219A12.833,12.833,0,0,0,878.7,698.1v49.461c0,1.383.4,2.406,1.1,2.807s1.785.236,2.982-.455l42.271-24.406a2.113,2.113,0,0,1,1.057-.294A1.945,1.945,0,0,1,926.874,725.377Z" transform="translate(-875.442 -646.469)" fill="#150035"/>
                    </g>
                    <g id="Group_58979" data-name="Group 58979" transform="translate(5.926 40.518)">
                      <rect id="Rectangle_7532" data-name="Rectangle 7532" width="3.254" height="13.355" transform="translate(0 2.781) rotate(-58.709)" fill="#150035"/>
                    </g>
                    <g id="Group_58980" data-name="Group 58980" transform="translate(67.022 5.471)">
                      <rect id="Rectangle_7533" data-name="Rectangle 7533" width="3.253" height="13.357" transform="translate(0 2.781) rotate(-58.748)" fill="#150035"/>
                    </g>
                    <g id="Group_58981" data-name="Group 58981" transform="translate(1.174 52.946)">
                      <rect id="Rectangle_7534" data-name="Rectangle 7534" width="3.255" height="14.889" transform="matrix(0.534, -0.846, 0.846, 0.534, 0, 2.753)" fill="#150035"/>
                    </g>
                  </g>
                </g>
                <g id="Group_58984" data-name="Group 58984" transform="translate(1.627 61.154)">
                  <path id="Path_102042" data-name="Path 102042" d="M868.411,679.464l13,7.875v42.885l-12.584-6.9-.419-3.071Z" transform="translate(-868.411 -679.464)" fill="#150035"/>
                </g>
              </g>
              <g id="Group_58987" data-name="Group 58987" transform="translate(31.497 37.519)">
                <g id="Group_58986" data-name="Group 58986">
                  <path id="Path_102043" data-name="Path 102043" d="M921.673,679.84c0,11.095-7.791,24.588-17.4,30.136s-17.4,1.05-17.4-10.045,7.789-24.592,17.4-30.139S921.673,668.742,921.673,679.84Z" transform="translate(-886.872 -663.275)" fill="#fff"/>
                  <path id="Path_102044" data-name="Path 102044" d="M894.868,711.68c-3.811-2.2-5.907-6.7-5.907-12.672,0-11.595,8.169-25.748,18.213-31.547,5.176-2.989,10.124-3.419,13.931-1.218s5.909,6.7,5.909,12.674c0,11.6-8.171,25.748-18.209,31.545a17.416,17.416,0,0,1-8.593,2.6A10.529,10.529,0,0,1,894.868,711.68Zm13.936-41.4c-9.148,5.285-16.59,18.174-16.59,28.731,0,4.76,1.521,8.26,4.281,9.855s6.559,1.165,10.677-1.217c9.148-5.28,16.585-18.169,16.585-28.73,0-4.76-1.518-8.263-4.281-9.857a7.349,7.349,0,0,0-3.723-.945A14.257,14.257,0,0,0,908.8,670.276Z" transform="translate(-885.582 -664.857)" fill="#150035"/>
                </g>
                <path id="Path_102045" data-name="Path 102045" d="M903.708,688.354l-2.251,2.234-3.536-13.9,5.714-5.7Z" transform="translate(-880.043 -661.067)" fill="#150035"/>
                <path id="Path_102046" data-name="Path 102046" d="M900.328,690.52a2.152,2.152,0,0,1-.926-1.984,6.314,6.314,0,0,1,2.853-4.941,1.91,1.91,0,0,1,3.108,1.794,6.317,6.317,0,0,1-2.853,4.942,2.737,2.737,0,0,1-1.346.408A1.647,1.647,0,0,1,900.328,690.52Z" transform="translate(-879.128 -653.528)" fill="#150035"/>
              </g>
            </g>
            <g id="Group_58992" data-name="Group 58992" transform="translate(70.042)">
              <g id="Group_58989" data-name="Group 58989" transform="translate(0 0.122)">
                <rect id="Rectangle_7535" data-name="Rectangle 7535" width="3.252" height="14.321" transform="matrix(0.997, -0.083, 0.083, 0.997, 0, 0.269)" fill="#150035"/>
              </g>
              <g id="Group_58990" data-name="Group 58990" transform="translate(10.827)">
                <path id="Path_102047" data-name="Path 102047" d="M920.368,642.629l6.625-15.11-2.981-1.3-6.625,15.11Z" transform="translate(-917.386 -626.216)" fill="#150035"/>
              </g>
              <g id="Group_58991" data-name="Group 58991" transform="translate(19.87 12.603)">
                <rect id="Rectangle_7536" data-name="Rectangle 7536" width="13.743" height="3.251" transform="translate(0 6.764) rotate(-29.485)" fill="#150035"/>
              </g>
            </g>
          </g>
          <g id="Group_58994" data-name="Group 58994" transform="translate(1 113.776)">
            <rect id="Rectangle_7537" data-name="Rectangle 7537" width="1.253" height="5.977" fill="#ffca28"/>
          </g>
        </g>
        <g id="Group_58998" data-name="Group 58998" transform="translate(871.215 823.293)">
          <g id="Group_58996" data-name="Group 58996" transform="translate(0.049 3.022)">
            <path id="Path_102048" data-name="Path 102048" d="M872.665,750.363a.468.468,0,0,1,.464.513l-1.377,6.92c0,.83-.811,1.658-2.432,2.06a5.745,5.745,0,0,1-2.734,0c-1.623-.4-2.433-1.23-2.433-2.06l-1.375-6.92a.466.466,0,0,1,.464-.513Z" transform="translate(-862 -749.588)" fill="#150035"/>
            <path id="Path_102049" data-name="Path 102049" d="M866.7,760.9c-1.851-.456-2.972-1.471-3.019-2.728l-1.374-6.927a1.239,1.239,0,0,1,1.234-1.364h9.423a1.249,1.249,0,0,1,.921.408,1.28,1.28,0,0,1,.3,1.031l-1.364,6.852c-.047,1.256-1.168,2.272-3.019,2.728a6.466,6.466,0,0,1-3.107,0Zm-2.78-9.469,1.293,6.506.015.151c0,.426.571.995,1.843,1.309a5,5,0,0,0,2.366,0c1.273-.316,1.843-.883,1.843-1.309l1.311-6.657Z" transform="translate(-862.296 -749.884)" fill="#150035"/>
          </g>
          <g id="Group_58997" data-name="Group 58997">
            <path id="Path_102050" data-name="Path 102050" d="M864.276,749.383c-2.042,1.178-2.042,3.089,0,4.267a8.172,8.172,0,0,0,7.391,0c2.042-1.178,2.042-3.089,0-4.267A8.161,8.161,0,0,0,864.276,749.383Z" transform="translate(-861.97 -747.719)" fill="#39a1ff"/>
            <path id="Path_102051" data-name="Path 102051" d="M864.185,754.619a3.009,3.009,0,0,1,0-5.61,8.894,8.894,0,0,1,8.166,0,3.01,3.01,0,0,1,0,5.61,8.913,8.913,0,0,1-8.166,0Zm.775-4.268a1.507,1.507,0,0,0,0,2.926,7.42,7.42,0,0,0,6.614,0,1.507,1.507,0,0,0,0-2.926,7.43,7.43,0,0,0-6.614,0Z" transform="translate(-862.266 -748.017)" fill="#150035"/>
          </g>
        </g>
        <g id="Group_59006" data-name="Group 59006" transform="translate(850.779 780.862)">
          <g id="Group_59005" data-name="Group 59005">
            <g id="Group_59002" data-name="Group 59002">
              <g id="Group_58999" data-name="Group 58999" transform="translate(0.031 8.656)">
                <path id="Path_102052" data-name="Path 102052" d="M898.515,819.631l44.214-23.986a1,1,0,0,0,.633-.911h0c0-.021,0-.04,0-.061l-.081-50.251a.369.369,0,0,0-.379-.353l-29.833-8.419a.394.394,0,0,1-.188-.047l-14.007-7.386a4.366,4.366,0,0,0-3.691-.155l-30.057,16.423a.405.405,0,0,1-.194.049l-14.271-.112a.37.37,0,0,0-.385.359l.06,50.288a1.477,1.477,0,0,0,.891,1.063l43.6,23.343A4.362,4.362,0,0,0,898.515,819.631Z" transform="translate(-849.272 -726.783)" fill="#ffca28"/>
                <path id="Path_102053" data-name="Path 102053" d="M894.709,820.649,851.1,797.3a2.37,2.37,0,0,1-1.39-1.866l-.058-50.288a1.241,1.241,0,0,1,.406-.926,1.58,1.58,0,0,1,.99-.377l14.1.11,29.916-16.345a5.363,5.363,0,0,1,4.683.152l13.891,7.323,29.841,8.42a1.335,1.335,0,0,1,1.186,1.269l.081,50.269a1.9,1.9,0,0,1-1.131,1.773L899.4,820.8l-.006,0a4.517,4.517,0,0,1-2.1.466A5.545,5.545,0,0,1,894.709,820.649Zm47.9-25.458c.094-.049.134-.091.128-.151l-.076-49.808-29.409-8.3a1.435,1.435,0,0,1-.487-.155l-14.019-7.393a3.352,3.352,0,0,0-2.676-.155L866,745.662a1.481,1.481,0,0,1-.693.168l-13.64-.105.05,49.623a.875.875,0,0,0,.392.33l43.606,23.348a3.351,3.351,0,0,0,2.683.152Z" transform="translate(-849.655 -727.142)" fill="#150035"/>
              </g>
              <g id="Group_59000" data-name="Group 59000" transform="translate(0.031 25.353)">
                <path id="Path_102054" data-name="Path 102054" d="M863.3,738.047c-.032-.011-12.519,0-12.519,0a.48.48,0,0,0-.5.466l.058,50.18a1.477,1.477,0,0,0,.891,1.063l43.425,23.249a.116.116,0,0,0,.173-.1l-.079-50.557-.011-.016h0C895.833,759.654,863.3,738.047,863.3,738.047Z" transform="translate(-849.271 -737.103)" fill="#150035"/>
                <path id="Path_102055" data-name="Path 102055" d="M851.1,790.923a2.367,2.367,0,0,1-1.392-1.866l-.058-50.178a1.339,1.339,0,0,1,.44-1,1.509,1.509,0,0,1,1.065-.409c12.663-.015,12.666-.011,12.863.057l.238.116c.082.053,8.242,5.477,16.162,11.16,15.394,11.043,16.005,13.045,15.711,14.017l.076,50.442a1.036,1.036,0,0,1-.553.913l-.618.273Zm42.907-28.155.105-.257c-.893-2.3-16.179-13.475-30.764-23.17-1.511-.008-8.368,0-11.685,0l.05,49.628a.862.862,0,0,0,.392.33l42.078,22.529-.062-48.871Z" transform="translate(-849.655 -737.462)" fill="#150035"/>
              </g>
              <g id="Group_59001" data-name="Group 59001">
                <path id="Path_102056" data-name="Path 102056" d="M850.9,746.7l44.213-23.986a4.371,4.371,0,0,1,3.691.154l43.6,23.345c1.089.592,1.205,1.482.257,1.989l-44.214,23.986a4.362,4.362,0,0,1-3.689-.155l-43.6-23.343C850.066,748.094,849.951,747.2,850.9,746.7Z" transform="translate(-849.252 -721.434)" fill="#fff"/>
                <path id="Path_102057" data-name="Path 102057" d="M894.64,773.2l-43.6-23.346a2.321,2.321,0,0,1-1.4-1.942,1.942,1.942,0,0,1,1.146-1.67L895,722.258a5.384,5.384,0,0,1,4.689.155l43.6,23.348a2.316,2.316,0,0,1,1.4,1.94,1.94,1.94,0,0,1-1.142,1.668l-44.219,23.989a4.538,4.538,0,0,1-2.1.464A5.55,5.55,0,0,1,894.64,773.2Zm47.646-25.82-43.6-23.346a3.342,3.342,0,0,0-2.681-.154l-44.213,23.984,0,0a.68.68,0,0,1-.121.063,1.093,1.093,0,0,0,.379.3l43.606,23.348a3.346,3.346,0,0,0,2.679.154l44.219-23.987a.578.578,0,0,1,.118-.063A1.081,1.081,0,0,0,942.286,747.382Z" transform="translate(-849.636 -721.793)" fill="#150035"/>
              </g>
            </g>
            <g id="Group_59003" data-name="Group 59003" transform="translate(86.962 29.781)">
              <path id="Path_102058" data-name="Path 102058" d="M903.654,790.771l2.009-.056-.272-50.516-2.009.056Z" transform="translate(-903.382 -740.199)" fill="#150035"/>
            </g>
            <g id="Group_59004" data-name="Group 59004" transform="translate(8.221 31.852)">
              <path id="Path_102059" data-name="Path 102059" d="M854.834,790.943l1.546-.021-.117-49.444-1.546.021Z" transform="translate(-854.717 -741.478)" fill="#ffca28"/>
            </g>
          </g>
        </g>
        <g id="Group_59064" data-name="Group 59064" transform="translate(871.613 722.509)">
          <g id="Group_59007" data-name="Group 59007" transform="translate(69.338 124.429)">
            <path id="Path_102060" data-name="Path 102060" d="M914.541,766.667a13.7,13.7,0,0,0,.807,6.127c1.193,2.633-.3,5.215-4.668,4.024l-4.718-2.683a24.153,24.153,0,0,0,1.434-7.606c.057-4.115,3.186-3.369,3.186-3.369Z" transform="translate(-904.996 -762.335)" fill="#fff"/>
            <path id="Path_102061" data-name="Path 102061" d="M910.845,777.859l-5.48-3.087.246-.625a23.6,23.6,0,0,0,1.379-7.334,4.3,4.3,0,0,1,1.4-3.529,3.479,3.479,0,0,1,2.741-.583l.189.045,4.4,3.9-.044.4a12.925,12.925,0,0,0,.744,5.725,3.877,3.877,0,0,1-.3,4.192,3.832,3.832,0,0,1-3.069,1.225A8.363,8.363,0,0,1,910.845,777.859Zm-.238-13.672a1.857,1.857,0,0,0-1.267.319,3.063,3.063,0,0,0-.8,2.328,24.956,24.956,0,0,1-1.259,7.244l4.066,2.312c1.683.438,2.992.285,3.6-.434a2.393,2.393,0,0,0,.065-2.547,13.939,13.939,0,0,1-.906-6.124Z" transform="translate(-905.365 -762.63)" fill="#150035"/>
          </g>
          <g id="Group_59008" data-name="Group 59008" transform="translate(40.299 144.323)">
            <path id="Path_102062" data-name="Path 102062" d="M895.92,778.688a12.65,12.65,0,0,0,.746,5.66c1.1,2.432-.447,5.49-4.482,4.388L888,785.586a22.33,22.33,0,0,0,1.322-7.026c.053-3.8,2.943-3.11,2.943-3.11Z" transform="translate(-887.06 -774.631)" fill="#fff"/>
            <path id="Path_102063" data-name="Path 102063" d="M892.338,789.778l-4.92-3.632.217-.549a21.653,21.653,0,0,0,1.27-6.752,4.025,4.025,0,0,1,1.316-3.306,3.288,3.288,0,0,1,2.581-.548l.189.045,4.1,3.631-.045.4a11.856,11.856,0,0,0,.683,5.257,4.149,4.149,0,0,1-.477,4.395,3.981,3.981,0,0,1-3.134,1.314A6.8,6.8,0,0,1,892.338,789.778Zm-.057-13.3a1.607,1.607,0,0,0-1.12.291,2.787,2.787,0,0,0-.709,2.1,23.193,23.193,0,0,1-1.176,6.739l3.608,2.715c1.422.354,2.552.142,3.189-.608a2.6,2.6,0,0,0,.244-2.751,12.887,12.887,0,0,1-.843-5.655Z" transform="translate(-887.418 -774.925)" fill="#150035"/>
          </g>
          <g id="Group_59014" data-name="Group 59014" transform="translate(67.474 131.555)">
            <g id="Group_59009" data-name="Group 59009">
              <path id="Path_102064" data-name="Path 102064" d="M914.683,768.594a1.828,1.828,0,0,1,2.113.938c.913,1.762,3.461,6.134,7.184,8.1,4.721,2.495,2,5.328-.267,5.825-1.391.306-3.99-.672-6.016-1.6a17.9,17.9,0,0,1-3.864-2.5,6.212,6.212,0,0,0-3.11-1.356,16.871,16.871,0,0,1-5.59-2.246.911.911,0,0,1-.438-.853c.113-1.633.51-6.346,1.306-6.953.964-.734,2.066-.726,2.241,1.254s3.34,2.849,3.734,1.54A4.321,4.321,0,0,1,914.683,768.594Z" transform="translate(-903.917 -766.738)" fill="#ffca28"/>
              <path id="Path_102065" data-name="Path 102065" d="M917.672,782.867a18.408,18.408,0,0,1-4.032-2.6,5.4,5.4,0,0,0-2.725-1.186,17.325,17.325,0,0,1-5.883-2.351,1.684,1.684,0,0,1-.814-1.569c.466-6.645,1.3-7.278,1.61-7.516a2.208,2.208,0,0,1,2.243-.464,2.47,2.47,0,0,1,1.239,2.267,1.768,1.768,0,0,0,1.267,1.34,1.2,1.2,0,0,0,.955.044,5.015,5.015,0,0,1,3.231-2.679,2.6,2.6,0,0,1,3.019,1.325c.888,1.717,3.336,5.912,6.856,7.773,2.731,1.445,3.132,3.006,2.988,4.063-.225,1.657-1.906,2.867-3.45,3.205a3.426,3.426,0,0,1-.736.073A15.59,15.59,0,0,1,917.672,782.867ZM915.2,769.634h0a3.682,3.682,0,0,0-2.184,1.642,1.837,1.837,0,0,1-2.126,1.157,3.44,3.44,0,0,1-3.121-2.854c-.063-.72-.254-.956-.322-.987s-.312,0-.644.251c-.257.309-.746,2.273-1.037,6.422a.138.138,0,0,0,.066.133,16.155,16.155,0,0,0,5.3,2.144,7.033,7.033,0,0,1,3.495,1.523,16.86,16.86,0,0,0,3.694,2.391c3.681,1.679,5.092,1.641,5.529,1.545.985-.217,2.124-1,2.246-1.9.11-.8-.663-1.684-2.176-2.484-3.907-2.066-6.553-6.584-7.509-8.432a1.086,1.086,0,0,0-.945-.587A.9.9,0,0,0,915.2,769.634Z" transform="translate(-904.213 -767.034)" fill="#150035"/>
            </g>
            <g id="Group_59010" data-name="Group 59010" transform="translate(0.006)">
              <path id="Path_102066" data-name="Path 102066" d="M908.244,769.215a2.01,2.01,0,0,0,.385,1h0c-.527,2.529.081,4.822.976,5.021a17.451,17.451,0,0,1,5.362,1.887c1.59,1.094,6.158,4.173,8.443,4.37,2.262.2,2.506-.82,2.836-1.379.748,1.746-.919,2.992-2.529,3.344-1.392.306-3.99-.672-6.016-1.6a17.891,17.891,0,0,1-3.864-2.5,6.212,6.212,0,0,0-3.11-1.356,16.873,16.873,0,0,1-5.59-2.246.911.911,0,0,1-.438-.853c.113-1.633.51-6.346,1.306-6.953C906.969,767.227,908.071,767.235,908.244,769.215Z" transform="translate(-903.921 -766.738)" fill="#150035"/>
              <path id="Path_102067" data-name="Path 102067" d="M917.676,782.867a18.447,18.447,0,0,1-4.032-2.6,5.4,5.4,0,0,0-2.725-1.186,17.324,17.324,0,0,1-5.883-2.351,1.683,1.683,0,0,1-.814-1.569c.464-6.644,1.3-7.276,1.61-7.516a2.207,2.207,0,0,1,2.243-.464,2.466,2.466,0,0,1,1.238,2.267h0a1.233,1.233,0,0,0,.241.615l.2.278-.069.335c-.468,2.243.086,3.924.383,4.107l.147.031a17.578,17.578,0,0,1,5.488,1.974c5.123,3.521,7.255,4.165,8.071,4.236,1.51.128,1.731-.307,1.974-.77.044-.081.084-.16.128-.231l.777-1.315.6,1.4a2.684,2.684,0,0,1-.049,2.351,4.512,4.512,0,0,1-3.026,2.057,3.416,3.416,0,0,1-.736.073A15.592,15.592,0,0,1,917.676,782.867Zm5.964-.3c-1.718-.149-4.684-1.665-8.815-4.5a16.279,16.279,0,0,0-4.943-1.736l-.149-.034c-1.537-.341-2.061-3.118-1.624-5.621a2.676,2.676,0,0,1-.338-1.089h0c-.065-.72-.254-.956-.322-.987s-.312,0-.644.251c-.259.309-.748,2.275-1.037,6.422a.138.138,0,0,0,.066.133,16.156,16.156,0,0,0,5.3,2.144,7.033,7.033,0,0,1,3.495,1.523,16.832,16.832,0,0,0,3.692,2.391c3.683,1.679,5.094,1.641,5.53,1.545a3.912,3.912,0,0,0,1.2-.476A5.38,5.38,0,0,1,923.64,782.562Z" transform="translate(-904.217 -767.034)" fill="#150035"/>
            </g>
            <g id="Group_59011" data-name="Group 59011" transform="translate(10.115 4.5)">
              <path id="Path_102068" data-name="Path 102068" d="M911.334,772.782A6.187,6.187,0,0,1,914.649,771l-.157-1.183a7.382,7.382,0,0,0-4.027,2.15Z" transform="translate(-910.465 -769.815)" fill="#150035"/>
            </g>
            <g id="Group_59012" data-name="Group 59012" transform="translate(11.591 6.081)">
              <path id="Path_102069" data-name="Path 102069" d="M912.246,773.759a6.211,6.211,0,0,1,3.315-1.786l-.159-1.181a7.385,7.385,0,0,0-4.026,2.15Z" transform="translate(-911.377 -770.792)" fill="#150035"/>
            </g>
            <g id="Group_59013" data-name="Group 59013" transform="translate(1.852 3.063)">
              <path id="Path_102070" data-name="Path 102070" d="M905.774,775.1l1.123-.4a9.394,9.394,0,0,1,.16-5.377l-1.125-.395A10.447,10.447,0,0,0,905.774,775.1Z" transform="translate(-905.358 -768.927)" fill="#ffca28"/>
            </g>
          </g>
          <g id="Group_59021" data-name="Group 59021" transform="translate(38.429 150.125)">
            <g id="Group_59015" data-name="Group 59015">
              <path id="Path_102071" data-name="Path 102071" d="M894.719,781.485a3.606,3.606,0,0,0-2.032,3.008.872.872,0,0,1-1.5.443c-.981-1.057-2.086-2.435-1.916-3.115.3-1.191.539-2.424.539-2.424s-1.238-1.4-2.385.987-.5,5.137-.5,6.284,2.477,2.751,4.4,4.218,3.574,4.422,5.993,6.656c2.365,2.188,9.1,1.463,6.574-3.675s-3.3-5.825-3.67-7.477-1.54-6.433-3.408-6.449a5.422,5.422,0,0,0,.71,2.393A2.168,2.168,0,0,0,894.719,781.485Z" transform="translate(-885.966 -778.215)" fill="#ffca28"/>
              <path id="Path_102072" data-name="Path 102072" d="M897.088,798.41a30.4,30.4,0,0,1-3.141-3.552,18.154,18.154,0,0,0-2.8-3.057c-.312-.239-.641-.482-.971-.725-2-1.482-3.738-2.764-3.738-4.111,0-.233-.031-.536-.063-.892a10.637,10.637,0,0,1,.644-5.729c.528-1.1,1.189-1.707,1.969-1.815a2,2,0,0,1,1.694.652l.254.286-.074.375s-.244,1.254-.542,2.425c0,.006.026.6,1.728,2.438l.165-.045a4.26,4.26,0,0,1,2.527-3.607,3.384,3.384,0,0,1,1.644-.219,3.879,3.879,0,0,1-.053-.608l.011-.77.77.006c.642.006,2.6.023,4.157,7.056a9.775,9.775,0,0,0,1.212,2.705c.553,1.008,1.312,2.39,2.4,4.6,1.469,2.992.016,4.518-.676,5.034a5.336,5.336,0,0,1-3.155.911A5.977,5.977,0,0,1,897.088,798.41ZM897.141,783a1.392,1.392,0,0,0-1.856-.494,2.791,2.791,0,0,0-1.539,2.409,1.647,1.647,0,0,1-2.832.843c-2.134-2.3-2.243-3.255-2.1-3.83.173-.7.328-1.406.426-1.869a.142.142,0,0,0-.039,0c-.058.008-.374.1-.783.951a9.348,9.348,0,0,0-.5,4.914c.039.413.07.765.07,1.036,0,.568,2.024,2.063,3.111,2.866.335.247.668.495.987.738a19.055,19.055,0,0,1,3.069,3.327,29.666,29.666,0,0,0,2.979,3.377,4.731,4.731,0,0,0,5.144.344c.843-.631.914-1.676.21-3.11-1.068-2.178-1.817-3.54-2.364-4.537a10.971,10.971,0,0,1-1.366-3.113,19.457,19.457,0,0,0-1.45-4.484Z" transform="translate(-886.262 -778.511)" fill="#150035"/>
            </g>
            <g id="Group_59016" data-name="Group 59016" transform="translate(0 0.003)">
              <path id="Path_102073" data-name="Path 102073" d="M889.81,779.4s-.241,1.233-.539,2.424a.861.861,0,0,0,0,.113,6.044,6.044,0,0,0-.209.636,5.115,5.115,0,0,0-.146,1.181,6.541,6.541,0,0,0,2.566,5.139,30.716,30.716,0,0,1,6.307,6.568c2.743,4.166,6.021,2.006,6.021,2.006,0,1.082-4.827,1.616-6.49.079-2.419-2.236-4.066-5.189-5.993-6.656s-4.4-3.074-4.4-4.22-.641-3.9.5-6.284S889.81,779.4,889.81,779.4Z" transform="translate(-885.966 -778.217)" fill="#150035"/>
              <path id="Path_102074" data-name="Path 102074" d="M897.088,798.41a30.268,30.268,0,0,1-3.142-3.552,18.212,18.212,0,0,0-2.794-3.056c-.314-.24-.642-.482-.971-.725-2.006-1.482-3.738-2.762-3.738-4.111,0-.233-.031-.536-.063-.892a10.637,10.637,0,0,1,.644-5.729c.528-1.1,1.189-1.707,1.969-1.816a2.011,2.011,0,0,1,1.694.652l.254.286-.074.377s-.234,1.2-.526,2.377v.018l-.057.283a4.986,4.986,0,0,0-.178.532,4.524,4.524,0,0,0-.121,1.006,5.8,5.8,0,0,0,2.273,4.522,31.2,31.2,0,0,1,6.472,6.747c2.228,3.383,4.679,1.956,4.946,1.785l1.2-.791v1.438c0,.39-.189.938-1.089,1.333a7.363,7.363,0,0,1-2.776.477A6,6,0,0,1,897.088,798.41Zm-8.3-16.368.029-.112c.173-.7.328-1.406.426-1.867l-.036,0c-.162.023-.466.285-.786.953a9.342,9.342,0,0,0-.5,4.912c.039.413.07.765.07,1.036,0,.568,2.022,2.061,3.11,2.866.335.248.67.493.989.738a19.16,19.16,0,0,1,3.069,3.325,29.242,29.242,0,0,0,2.979,3.379,1.97,1.97,0,0,0,.416.286,8.364,8.364,0,0,1-1.118-1.377,29.616,29.616,0,0,0-6.144-6.386,7.351,7.351,0,0,1-2.857-5.757,6.116,6.116,0,0,1,.168-1.356,5.791,5.791,0,0,1,.186-.586Z" transform="translate(-886.262 -778.513)" fill="#150035"/>
            </g>
            <g id="Group_59017" data-name="Group 59017" transform="translate(7.957 6.933)">
              <path id="Path_102075" data-name="Path 102075" d="M891.908,785.775c1.938-1.5,5.433-1.788,5.467-1.791l-.094-1.188c-.157.013-3.885.327-6.1,2.035Z" transform="translate(-891.18 -782.796)" fill="#150035"/>
            </g>
            <g id="Group_59018" data-name="Group 59018" transform="translate(9.119 9.085)">
              <path id="Path_102076" data-name="Path 102076" d="M892.625,787.006a10.579,10.579,0,0,1,4.988-1.691l-.073-1.189a11.62,11.62,0,0,0-5.642,1.937Z" transform="translate(-891.898 -784.126)" fill="#150035"/>
            </g>
            <g id="Group_59019" data-name="Group 59019" transform="translate(10.931 3.675)">
              <rect id="Rectangle_7538" data-name="Rectangle 7538" width="1.192" height="2.111" transform="translate(0 0.482) rotate(-23.843)" fill="#150035"/>
            </g>
            <g id="Group_59020" data-name="Group 59020" transform="translate(1.314 4)">
              <path id="Path_102077" data-name="Path 102077" d="M887.465,786.25l1.136-.359a12.329,12.329,0,0,1-.183-4.715l-1.178-.193A13.4,13.4,0,0,0,887.465,786.25Z" transform="translate(-887.075 -780.983)" fill="#ffca28"/>
            </g>
          </g>
          <g id="Group_59028" data-name="Group 59028" transform="translate(18.643 76.701)">
            <g id="Group_59022" data-name="Group 59022">
              <path id="Path_102078" data-name="Path 102078" d="M905.88,804.328a178.443,178.443,0,0,1,.113-25.223c.489-5.385.74-9.273.867-11.927a13.216,13.216,0,0,0-2.388-8.237l-7.933-11.281a.18.18,0,0,1,.218-.269c2.361,1.032,11.351,4.668,20.559,4.5l7.739.859a.2.2,0,0,1,.157.293c-.508.938-2.1,4.412-1.515,10.121.7,6.755,2.236,12.069,2.459,21.107a6.739,6.739,0,0,0,9.038-.3s-.3-21.455,0-30,.2-10.529-6.456-14.6-21.853-5.661-28.9-5.762-19.667,4.471-19.667,4.471L875.2,741.46s-4.471,10.132,9.038,18.376c0,0,7.868,6.045,10.873,8.326a.2.2,0,0,1,.052.272c-.44.723-2.171,4.016-2.084,10.87.1,7.846,2.383,13.905,3.079,22.051l.2,2.781S900.12,807.21,905.88,804.328Z" transform="translate(-873.751 -732.836)" fill="#150035"/>
              <path id="Path_102079" data-name="Path 102079" d="M896.152,805.032l-.26-.212-.22-3.105a91.424,91.424,0,0,0-1.511-9.8,66.644,66.644,0,0,1-1.571-12.307c-.078-6.1,1.252-9.488,1.946-10.833-3.23-2.458-10.42-7.982-10.415-7.985-13.928-8.5-9.391-19.241-9.344-19.348l.089-.2,5.15-3.5.172-.089c.521-.188,12.818-4.606,19.942-4.516,7.794.11,22.641,1.8,29.3,5.877,6.94,4.246,7.132,6.485,6.825,15.287-.294,8.427,0,29.746,0,29.959l0,.348-.256.235c-5.019,4.582-10.019.354-10.069.312l-.259-.225-.008-.341a96.621,96.621,0,0,0-1.471-14.03c-.375-2.348-.731-4.564-.984-7.017a19.628,19.628,0,0,1,1.239-9.813l-6.836-.765c-7.684.134-15.169-2.3-18.986-3.781l6.76,9.613a14.056,14.056,0,0,1,2.529,8.721c-.162,3.37-.455,7.394-.869,11.96a178.829,178.829,0,0,0-.112,25.1l.039.518-.466.231a11.559,11.559,0,0,1-5.2,1.323A8.538,8.538,0,0,1,896.152,805.032Zm9.352-25.7c.413-4.545.7-8.546.864-11.894a12.5,12.5,0,0,0-2.247-7.754L896.19,748.4a.954.954,0,0,1,1.162-1.425c2.474,1.082,11.245,4.576,20.334,4.438l7.741.859a.974.974,0,0,1,.751,1.432c-.477.882-1.989,4.187-1.424,9.672.248,2.409.6,4.606.972,6.932a98.942,98.942,0,0,1,1.479,13.868,5.859,5.859,0,0,0,7.495-.259c-.037-2.843-.268-21.817.005-29.676.3-8.556.17-10.085-6.086-13.913-6.63-4.056-22.071-5.556-28.511-5.647-6.5-.094-18.157,3.984-19.3,4.391l-4.684,3.186c-.5,1.39-2.964,10.027,8.873,17.256,0,0,7.869,6.045,10.868,8.323a.975.975,0,0,1,.248,1.291c-.345.568-2.057,3.738-1.972,10.459a65.57,65.57,0,0,0,1.544,12.033,92.2,92.2,0,0,1,1.534,9.97l.173,2.417c.857.555,3.762,2.037,7.967.141A179,179,0,0,1,905.5,779.332Z" transform="translate(-874.034 -733.132)" fill="#150035"/>
            </g>
            <g id="Group_59023" data-name="Group 59023" transform="translate(51.168 16.622)">
              <path id="Path_102080" data-name="Path 102080" d="M906.643,746.868a7.394,7.394,0,0,1,2.752-2.374l-.485-1.089a8.59,8.59,0,0,0-3.252,2.791Z" transform="translate(-905.658 -743.405)" fill="#ffca28"/>
            </g>
            <g id="Group_59024" data-name="Group 59024" transform="translate(21.392 33.001)">
              <path id="Path_102081" data-name="Path 102081" d="M888.181,756a3.7,3.7,0,0,1,2.992-1.272l.108-1.188a4.906,4.906,0,0,0-4.026,1.709Z" transform="translate(-887.255 -753.528)" fill="#ffca28"/>
            </g>
            <g id="Group_59025" data-name="Group 59025" transform="translate(52.921 49.165)">
              <path id="Path_102082" data-name="Path 102082" d="M910.421,765.337a12.914,12.914,0,0,0,4.158-.7l-.417-1.115c-.037.015-3.8,1.385-6.943.011l-.477,1.092A9.2,9.2,0,0,0,910.421,765.337Z" transform="translate(-906.741 -763.518)" fill="#ffca28"/>
            </g>
            <g id="Group_59026" data-name="Group 59026" transform="translate(7.1 14.492)">
              <path id="Path_102083" data-name="Path 102083" d="M879.009,751.192c5.679-3.208,3.186-9.045,3.16-9.1l-1.09.481a5.884,5.884,0,0,1-2.657,7.584Z" transform="translate(-878.422 -742.089)" fill="#ffca28"/>
            </g>
            <g id="Group_59027" data-name="Group 59027" transform="translate(23.369 69.177)">
              <path id="Path_102084" data-name="Path 102084" d="M892.156,777.706a12.984,12.984,0,0,0,4.16-.7l-.417-1.116c-.039.015-3.8,1.387-6.945.013l-.477,1.092A9.2,9.2,0,0,0,892.156,777.706Z" transform="translate(-888.477 -775.886)" fill="#ffca28"/>
            </g>
          </g>
          <g id="Group_59031" data-name="Group 59031" transform="translate(27.854 29.281)">
            <g id="Group_59029" data-name="Group 59029" transform="translate(2.179 13.302)">
              <path id="Path_102085" data-name="Path 102085" d="M892.661,713.323s.136.385.354,1.052a61.373,61.373,0,0,1,2.93,15.674l.083,1.442a.331.331,0,0,0,.254.312,22.342,22.342,0,0,1,6.241,3.149c2.608,1.788,9.461,8.047,9.461,8.047l-8.491,3.6-18.549-9.632-3.352-12.516L886.371,717l4.382-4.395Z" transform="translate(-880.754 -711.702)" fill="#fff"/>
              <path id="Path_102086" data-name="Path 102086" d="M884.6,737.837l-3.529-13.176,4.966-7.738,4.838-4.878,2.712,1.023.121.338s.139.393.361,1.071a62.28,62.28,0,0,1,2.967,15.871l.065,1.133a24.528,24.528,0,0,1,6.178,3.175c2.623,1.8,9.263,7.855,9.545,8.113l.893.814-9.941,4.212Zm17.8-1.9a21.986,21.986,0,0,0-5.985-3.034,1.106,1.106,0,0,1-.846-1.023l-.082-1.442a60.742,60.742,0,0,0-2.893-15.478c-.094-.288-.173-.523-.231-.694l-1.1-.416L887.3,717.83l-4.552,7.092,3.176,11.855,17.923,9.305,7.039-2.982C908.945,741.353,904.382,737.291,902.405,735.935Z" transform="translate(-881.073 -712.046)" fill="#150035"/>
            </g>
            <g id="Group_59030" data-name="Group 59030">
              <path id="Path_102087" data-name="Path 102087" d="M888.729,721.829c.3.249,3.3-1.738,5.521-4.121,0,0-4.162-12.964-10.454-13.386s-2.4,6.275-2.4,6.275Z" transform="translate(-879.431 -703.529)" fill="#fff"/>
              <path id="Path_102088" data-name="Path 102088" d="M888.53,722.72l-7.511-11.439c-.225-.387-2.158-3.844-.83-5.984.679-1.094,2-1.584,3.956-1.451,6.739.45,10.962,13.37,11.139,13.92l.139.434-.311.332c-.045.05-4.255,4.351-6.082,4.351A.752.752,0,0,1,888.53,722.72Zm-4.488-17.329c-1.328-.089-2.183.154-2.535.722-.714,1.146.406,3.616.832,4.356l7.025,10.758a21.264,21.264,0,0,0,4.3-3.422C892.385,714.072,888.585,705.7,884.041,705.391Z" transform="translate(-879.726 -703.825)" fill="#150035"/>
            </g>
          </g>
          <g id="Group_59052" data-name="Group 59052" transform="translate(3.931)">
            <g id="Group_59032" data-name="Group 59032" transform="translate(0 28.377)">
              <path id="Path_102089" data-name="Path 102089" d="M892.247,705.114s4.967,1.628,6.009,10.418,5.165,27.5,9.412,33.757c0,0,2.234,3.576-3.95,5.661s-10.422,2.613-16.361,7.5c-5.885,4.841-9.14,6.729-10.258.7s-5.338-20.339-7.87-25.777S865.43,713,865.43,713s3.226-4.883,11.918-8.336C883.141,702.365,892.247,705.114,892.247,705.114Z" transform="translate(-864.639 -702.969)" fill="#ffca28"/>
              <path id="Path_102090" data-name="Path 102090" d="M879.188,767.835c-1.288-.469-2.1-1.82-2.547-4.251-1.12-6.047-5.349-20.3-7.813-25.589-2.563-5.506-3.817-23.864-3.869-24.644l-.018-.26.144-.219c.137-.207,3.464-5.127,12.279-8.629,5.974-2.374,15.027.312,15.41.427l.016.005c.222.073,5.449,1.886,6.538,11.062.989,8.346,5.05,27.178,9.3,33.438a3.881,3.881,0,0,1,.295,3.173c-.557,1.558-2.123,2.78-4.652,3.634-1.251.421-2.421.78-3.54,1.123-4.443,1.358-7.949,2.432-12.579,6.239-3.652,3.006-6.056,4.666-7.951,4.666A2.918,2.918,0,0,1,879.188,767.835Zm-1.251-62.152c-7.341,2.916-10.7,6.907-11.414,7.844.17,2.358,1.43,18.92,3.71,23.813,2.571,5.524,6.783,19.761,7.93,25.963.332,1.786.854,2.822,1.555,3.078,1.469.529,4.62-1.9,7.449-4.231,4.865-4,8.684-5.173,13.108-6.526,1.108-.34,2.265-.693,3.5-1.11,2.016-.68,3.289-1.6,3.681-2.665a2.3,2.3,0,0,0-.126-1.827c-4.432-6.534-8.5-25.384-9.538-34.1-.951-8.017-5.187-9.668-5.479-9.771C891.917,706.031,883.309,703.549,877.937,705.683Z" transform="translate(-864.941 -703.267)" fill="#150035"/>
            </g>
            <g id="Group_59046" data-name="Group 59046" transform="translate(8.74)">
              <g id="Group_59033" data-name="Group 59033" transform="translate(0.76 9.878)">
                <path id="Path_102091" data-name="Path 102091" d="M879.816,711.347c2.43,1.824,6.148,1.98,8.119,1.917a2.27,2.27,0,0,0,1.943-1.207,24.53,24.53,0,0,0,1.9-18.394l-13.04-1.325-2.929,4.254a5.1,5.1,0,0,0-.791,4.042c.314,1.364.283,3.534-1.327,6.525-4.511,8.377-2.364,10.2,3.759,15.035,4.346,3.432,11.6.788,6.878-9.135Z" transform="translate(-870.52 -691.521)" fill="#fff"/>
                <path id="Path_102092" data-name="Path 102092" d="M877.266,723.114c-6.063-4.786-8.83-6.971-3.961-16.01,1.524-2.83,1.523-4.817,1.254-5.985a5.9,5.9,0,0,1,.909-4.655l3.189-4.631,13.98,1.421.165.455a25.1,25.1,0,0,1-1.943,19.017,3.037,3.037,0,0,1-2.607,1.625,21.2,21.2,0,0,1-2.375-.052c2.359,5.851.219,8.438-.872,9.308a5.283,5.283,0,0,1-3.323,1.1A7.2,7.2,0,0,1,877.266,723.114Zm2.379-10.834.93-1.241c2.234,1.676,5.736,1.828,7.627,1.762a1.487,1.487,0,0,0,1.281-.79,24.264,24.264,0,0,0,2-17.318l-12.074-1.226-2.668,3.875a4.344,4.344,0,0,0-.676,3.429c.328,1.429.354,3.812-1.4,7.068-4.251,7.894-2.442,9.325,3.556,14.059,1.875,1.479,4.318,1.689,5.814.5,1.8-1.435,1.812-4.458.053-8.328A10.6,10.6,0,0,1,879.645,712.28Z" transform="translate(-870.813 -691.833)" fill="#150035"/>
              </g>
              <g id="Group_59034" data-name="Group 59034">
                <path id="Path_102093" data-name="Path 102093" d="M874.252,691.267c5.4-4.592,13.612-.646,15.3-1.612,1.409-.806.863-2.673.639-3.273a.128.128,0,0,1,.136-.173,7.421,7.421,0,0,1,6.8,6.508c.887,6.281-4.087,8.255-4.087,8.255a12.874,12.874,0,0,1-6.513.968,4.76,4.76,0,0,0-2.639.605,3.959,3.959,0,0,0-1.812,2.307,1.369,1.369,0,0,1-1.39,1.016l-2.11-.147-2.126-.637a2.773,2.773,0,0,0-.587,1.5v2.244a9.981,9.981,0,0,1-4.993-9.142A9.059,9.059,0,0,1,874.252,691.267Z" transform="translate(-870.048 -685.431)" fill="#150035"/>
                <path id="Path_102094" data-name="Path 102094" d="M875.806,709.814a10.618,10.618,0,0,1-5.414-9.774,9.776,9.776,0,0,1,3.652-9.066h0c3.928-3.341,9.129-2.493,12.569-1.933a9.246,9.246,0,0,0,2.854.239c.888-.508.451-1.912.3-2.332a.9.9,0,0,1,.133-.867.888.888,0,0,1,.809-.346,8.21,8.21,0,0,1,7.483,7.171c.959,6.8-4.5,9.056-4.506,9.056h0a13.642,13.642,0,0,1-6.891,1.05,3.971,3.971,0,0,0-2.21.5,3.2,3.2,0,0,0-1.469,1.867,2.156,2.156,0,0,1-2.184,1.565l-2.112-.149-1.717-.5a1.356,1.356,0,0,0-.167.584v3.506Zm3.2-4.563,2.026.142a.6.6,0,0,0,.592-.469,4.772,4.772,0,0,1,2.16-2.749,5.561,5.561,0,0,1,3.065-.712,12.382,12.382,0,0,0,6.194-.913c.18-.074,4.395-1.854,3.608-7.428a6.437,6.437,0,0,0-5.157-5.684,2.856,2.856,0,0,1-1.262,3.188c-.783.447-2.013.246-3.872-.057-3.349-.545-7.933-1.293-11.315,1.584h0c-2.474,2.105-3.377,4.356-3.111,7.857a9.12,9.12,0,0,0,3.445,7.661v-.793a3.44,3.44,0,0,1,.727-1.942l.322-.46Z" transform="translate(-870.343 -685.728)" fill="#150035"/>
              </g>
              <g id="Group_59035" data-name="Group 59035" transform="translate(6.875 12.687)">
                <path id="Path_102095" data-name="Path 102095" d="M884.511,696.7l.7-.963c-.207-.152-5.161-3.7-10.621-1.391l.463,1.1C879.883,693.405,884.465,696.669,884.511,696.7Z" transform="translate(-874.592 -693.569)" fill="#ffca28"/>
              </g>
              <g id="Group_59036" data-name="Group 59036" transform="translate(4.306 14.541)">
                <path id="Path_102096" data-name="Path 102096" d="M873.485,699.147l1.014-.626c-.874-1.414.456-3.021.469-3.037l-.911-.769C873.978,694.809,872.163,697.008,873.485,699.147Z" transform="translate(-873.004 -694.715)" fill="#ffca28"/>
              </g>
              <g id="Group_59037" data-name="Group 59037" transform="translate(3.356 8.892)">
                <path id="Path_102097" data-name="Path 102097" d="M873.467,695.9c2.055-3.832,7.322-3.479,7.378-3.476l.089-1.189c-.248-.016-6.1-.4-8.517,4.1Z" transform="translate(-872.417 -691.224)" fill="#ffca28"/>
              </g>
              <g id="Group_59038" data-name="Group 59038" transform="translate(13.459 9.129)">
                <path id="Path_102098" data-name="Path 102098" d="M881.219,693.329l.62-1.019a8.581,8.581,0,0,0-3-.94l-.175,1.18A7.549,7.549,0,0,1,881.219,693.329Z" transform="translate(-878.661 -691.37)" fill="#ffca28"/>
              </g>
              <g id="Group_59039" data-name="Group 59039" transform="translate(4.359 18.153)">
                <path id="Path_102099" data-name="Path 102099" d="M877.257,703.584h0a4.342,4.342,0,0,1-2.917-1.989,4.254,4.254,0,0,1-.788-2.8c.363-2.013,2.336-1.531,3.181-.281l.725,1.128Z" transform="translate(-872.741 -696.651)" fill="#fff"/>
                <path id="Path_102100" data-name="Path 102100" d="M877.412,704.642l.281-1.523a3.582,3.582,0,0,1-2.4-1.636,3.468,3.468,0,0,1-.686-2.259c.078-.426.233-.667.466-.715a1.494,1.494,0,0,1,1.312.731l.714,1.112,1.3-.838-.725-1.128a2.981,2.981,0,0,0-2.925-1.393,2.228,2.228,0,0,0-1.67,1.956,4.841,4.841,0,0,0,.891,3.348A5.129,5.129,0,0,0,877.412,704.642Z" transform="translate(-873.037 -696.947)" fill="#150035"/>
              </g>
              <g id="Group_59040" data-name="Group 59040" transform="translate(17.03 22.212)">
                <path id="Path_102101" data-name="Path 102101" d="M883.357,703.823l.3-.176a.729.729,0,0,0,.277-.489,28.928,28.928,0,0,0-.04-3.7l-1.189.081c0,.021.123,1.848.081,2.99a4.546,4.546,0,0,1-1.309-.464l-.605,1.026a6.394,6.394,0,0,0,2.243.7Z" transform="translate(-880.868 -699.456)" fill="#150035"/>
              </g>
              <g id="Group_59041" data-name="Group 59041" transform="translate(15.623 19.708)">
                <path id="Path_102102" data-name="Path 102102" d="M880.006,699.441c-.07.89.34,1.647.914,1.691s1.092-.641,1.162-1.531-.341-1.647-.914-1.691S880.074,698.552,880.006,699.441Z" transform="translate(-879.998 -697.909)" fill="#150035"/>
              </g>
              <g id="Group_59042" data-name="Group 59042" transform="translate(20.995 19.909)">
                <path id="Path_102103" data-name="Path 102103" d="M883.326,699.567c-.068.888.341,1.646.914,1.691s1.094-.642,1.163-1.532-.341-1.646-.914-1.691S883.4,698.677,883.326,699.567Z" transform="translate(-883.318 -698.033)" fill="#150035"/>
              </g>
              <g id="Group_59043" data-name="Group 59043" transform="translate(15.892 27.327)">
                <path id="Path_102104" data-name="Path 102104" d="M882.252,704.267a2.762,2.762,0,0,0,.532-.045l-.244-1.167.121.582-.118-.584a2.07,2.07,0,0,1-1.615-.437l-.764.916A3.243,3.243,0,0,0,882.252,704.267Z" transform="translate(-880.165 -702.617)" fill="#150035"/>
              </g>
              <g id="Group_59045" data-name="Group 59045" transform="translate(20.96 2.661)">
                <g id="Group_59044" data-name="Group 59044">
                  <path id="Path_102105" data-name="Path 102105" d="M886.51,691.177l1.129-.382c-.045-.133-1.129-3.239-4.273-3.422l-.07,1.191A3.954,3.954,0,0,1,886.51,691.177Z" transform="translate(-883.297 -687.373)" fill="#ffca28"/>
                </g>
              </g>
            </g>
            <g id="Group_59047" data-name="Group 59047" transform="translate(6.675 26.029)">
              <path id="Path_102106" data-name="Path 102106" d="M881.494,717.217,879.6,720.36a.474.474,0,0,1-.638.176,22.926,22.926,0,0,1-7.148-6.092c-2.722-3.874-3.817-8.843,1.448-11.771a14,14,0,0,0,1.455,7.3C876.555,713.153,881.494,717.217,881.494,717.217Z" transform="translate(-868.772 -701.285)" fill="#fff"/>
              <path id="Path_102107" data-name="Path 102107" d="M878.882,721.743a23.393,23.393,0,0,1-7.4-6.323c-1.993-2.837-2.789-5.71-2.244-8.092a7.41,7.41,0,0,1,3.95-4.8l1.28-.712-.133,1.459a13.3,13.3,0,0,0,1.353,6.843c1.746,3.019,6.55,6.992,6.6,7.032l.516.424-2.236,3.715a1.243,1.243,0,0,1-1.679.455Zm-4.54-10.85a13.606,13.606,0,0,1-1.586-6.233,5.35,5.35,0,0,0-2.011,3.014c-.447,1.948.264,4.382,2,6.854a21.936,21.936,0,0,0,6.637,5.717l1.4-2.332C879.45,716.766,875.892,713.573,874.342,710.892Z" transform="translate(-869.067 -701.815)" fill="#150035"/>
            </g>
            <g id="Group_59048" data-name="Group 59048" transform="translate(20.784 29.954)">
              <path id="Path_102108" data-name="Path 102108" d="M883.341,714.4a9.6,9.6,0,0,0-2.788-1.063s1.057-5.063-1.472-8.241a12.241,12.241,0,0,0,3.81.4,11.687,11.687,0,0,1,.887,8.726A.307.307,0,0,1,883.341,714.4Z" transform="translate(-876.986 -703.711)" fill="#fff"/>
              <path id="Path_102109" data-name="Path 102109" d="M883.773,715.614a9.047,9.047,0,0,0-2.526-.977l-.819-.115.167-.809c.01-.047.948-4.752-1.32-7.6l-1.489-1.87,2.3.641a11.438,11.438,0,0,0,3.526.372l.49-.05.252.424a12.388,12.388,0,0,1,.963,9.349,1.091,1.091,0,0,1-1.037.769A1.055,1.055,0,0,1,883.773,715.614Zm-2.327-8.89a12.725,12.725,0,0,1,.786,6.55,11.161,11.161,0,0,1,1.754.706,11.115,11.115,0,0,0-.751-7.15A11.715,11.715,0,0,1,881.446,706.725Z" transform="translate(-877.786 -704.241)" fill="#150035"/>
            </g>
            <g id="Group_59049" data-name="Group 59049" transform="translate(22.88 40.403)">
              <path id="Path_102110" data-name="Path 102110" d="M881.5,721l1.539-.183a46.926,46.926,0,0,0-2.514-10.116l-1.447.558A46.116,46.116,0,0,1,881.5,721Z" transform="translate(-879.082 -710.699)" fill="#150035"/>
            </g>
            <g id="Group_59050" data-name="Group 59050" transform="translate(21.167 45.078)">
              <circle id="Ellipse_4053" data-name="Ellipse 4053" cx="0.939" cy="0.939" r="0.939" fill="#150035"/>
            </g>
            <g id="Group_59051" data-name="Group 59051" transform="translate(21.725 48.156)">
              <circle id="Ellipse_4054" data-name="Ellipse 4054" cx="0.939" cy="0.939" r="0.939" fill="#150035"/>
            </g>
          </g>
          <g id="Group_59055" data-name="Group 59055" transform="translate(18.129 66.125)">
            <g id="Group_59053" data-name="Group 59053">
              <path id="Path_102111" data-name="Path 102111" d="M921.644,739.068l-27.969,16.146a.18.18,0,0,1-.184,0l-19.206-11.441a.182.182,0,0,1,0-.314L902.042,727.1a.182.182,0,0,1,.186,0l19.419,11.651A.184.184,0,0,1,921.644,739.068Z" transform="translate(-873.42 -726.3)" fill="#fff"/>
              <path id="Path_102112" data-name="Path 102112" d="M893.39,756.175l-19.206-11.439a.959.959,0,0,1,0-1.649l27.754-16.357a.955.955,0,0,1,.982,0l19.416,11.65a.958.958,0,0,1-.011,1.65l-27.971,16.148a.946.946,0,0,1-.477.128A.956.956,0,0,1,893.39,756.175Zm9.038-27.932-26.594,15.672,18.051,10.752,26.8-15.472Z" transform="translate(-873.716 -726.596)" fill="#150035"/>
            </g>
            <g id="Group_59054" data-name="Group 59054" transform="translate(7.676 12.386)">
              <path id="Path_102113" data-name="Path 102113" d="M888.945,745.833l.8-1.33-9.247-5.529,5.765-3.386-.783-1.337-6.5,3.815a1.033,1.033,0,0,0-.518.9,1.05,1.05,0,0,0,.51.9Z" transform="translate(-878.46 -734.251)" fill="#150035"/>
            </g>
          </g>
          <g id="Group_59060" data-name="Group 59060" transform="translate(0 35.574)">
            <g id="Group_59056" data-name="Group 59056" transform="translate(1.485 13.675)">
              <path id="Path_102114" data-name="Path 102114" d="M873.943,723.791a50.461,50.461,0,0,1,1.9,9.388,75.867,75.867,0,0,1,.506,8.946l0,0a27.152,27.152,0,0,1,11.338.492c5.254,1.633,12.349.838,12.349.838s3.632-2.687,5.221-2.536.794,1.7.794,1.7,7.548,2.581,4.768,4.987-10.784.833-10.784.833-18.759,2.027-28.689.607a1.344,1.344,0,0,1-1-.7c-1.1-2.057-5.15-9.706-6.322-23.541-1.4-16.551,9.941-2.8,9.941-2.8Z" transform="translate(-863.134 -715.873)" fill="#fff"/>
              <path id="Path_102115" data-name="Path 102115" d="M871.532,750.106A2.13,2.13,0,0,1,869.963,749c-3.466-6.5-5.623-14.52-6.412-23.84-.434-5.128.3-8,2.231-8.794,3.349-1.366,8.5,4.736,9.08,5.437l.181.22-.027,1.943a52.413,52.413,0,0,1,1.9,9.417,78.078,78.078,0,0,1,.51,8.137,27.037,27.037,0,0,1,10.791.654c4.55,1.412,10.653.937,11.833.827.929-.672,3.922-2.709,5.58-2.557a1.77,1.77,0,0,1,1.5.866,1.8,1.8,0,0,1,.175,1.128c1.576.61,4.8,2.076,5.17,3.963a2.136,2.136,0,0,1-.846,2.087c-2.875,2.485-10.048,1.27-11.324,1.029-1.262.134-10.768,1.108-19.565,1.107A68.082,68.082,0,0,1,871.532,750.106Zm28.948-2.134c2.123.417,8.08,1.113,10.127-.658.393-.34.354-.542.34-.618-.2-1.015-3.011-2.419-4.851-3.048l-.832-.293.39-.79a1.05,1.05,0,0,0,.117-.5.6.6,0,0,0-.293-.078c-.9-.071-3.276,1.346-4.687,2.388l-.167.123-.207.024c-.3.034-7.318.793-12.664-.867a26.153,26.153,0,0,0-10.964-.473l-.938.168.023-.955a75.9,75.9,0,0,0-.5-8.831,50.065,50.065,0,0,0-1.869-9.229l-.042-.128.023-1.634c-2.069-2.438-5.524-5.425-7.118-4.771-.547.223-1.768,1.375-1.273,7.229.531,6.262,2.044,15.376,6.236,23.241a.564.564,0,0,0,.421.3c9.721,1.393,28.311-.589,28.5-.608l.118-.013Z" transform="translate(-863.429 -716.166)" fill="#150035"/>
            </g>
            <g id="Group_59057" data-name="Group 59057">
              <path id="Path_102116" data-name="Path 102116" d="M875.514,729.011a4.221,4.221,0,0,0,.875-2.791c-.131-3.828-.93-15.612-5.825-17.769-5.86-2.582-7.847,15-7.548,19.421s10.2,2.372,11.485,1.933A2.382,2.382,0,0,0,875.514,729.011Z" transform="translate(-862.218 -707.419)" fill="#fff"/>
              <path id="Path_102117" data-name="Path 102117" d="M864,730.709a3.159,3.159,0,0,1-1.466-2.49c-.214-3.17.909-16.821,5.254-19.866a3.3,3.3,0,0,1,3.38-.316c5.183,2.283,6.124,13.664,6.288,18.45a5,5,0,0,1-1.047,3.3,3.079,3.079,0,0,1-1.366,1.042,25.464,25.464,0,0,1-6.43.9A8.6,8.6,0,0,1,864,730.709Zm4.678-21.088c-3.388,2.375-4.851,14.745-4.6,18.494a1.6,1.6,0,0,0,.777,1.3c2.234,1.487,8.362.4,9.684-.052a1.548,1.548,0,0,0,.659-.547h0a3.44,3.44,0,0,0,.707-2.28c-.248-7.226-1.786-15.51-5.364-17.086a2.033,2.033,0,0,0-.825-.191A1.782,1.782,0,0,0,868.68,709.621Z" transform="translate(-862.512 -707.714)" fill="#150035"/>
            </g>
            <g id="Group_59058" data-name="Group 59058" transform="translate(9.48 42.72)">
              <path id="Path_102118" data-name="Path 102118" d="M870.973,736.481a3.442,3.442,0,0,0,.8-.092l-.384-1.5a1.652,1.652,0,0,1-1.1-.115.992.992,0,0,1-.419-.655l-1.506.361A2.514,2.514,0,0,0,869.5,736.1,2.855,2.855,0,0,0,870.973,736.481Z" transform="translate(-868.371 -734.117)" fill="#150035"/>
            </g>
            <g id="Group_59059" data-name="Group 59059" transform="translate(0.319 17.374)">
              <path id="Path_102119" data-name="Path 102119" d="M869.141,721.381a19.656,19.656,0,0,0,3.639-.335l-.312-1.518c-.058.011-5.749,1.144-8.859-1.076l-.9,1.26A11.26,11.26,0,0,0,869.141,721.381Z" transform="translate(-862.709 -718.452)" fill="#150035"/>
            </g>
          </g>
          <g id="Group_59063" data-name="Group 59063" transform="translate(37.458 55.253)">
            <g id="Group_59061" data-name="Group 59061">
              <path id="Path_102120" data-name="Path 102120" d="M886.243,759.187l9.509-21.733a.072.072,0,0,1,.034-.039l28.734-17.048a.083.083,0,0,1,.118.105L914.482,743.04a.089.089,0,0,1-.034.039l-28.086,16.216A.085.085,0,0,1,886.243,759.187Z" transform="translate(-885.308 -719.581)" fill="#ffca28"/>
              <path id="Path_102121" data-name="Path 102121" d="M885.662,759.686l9.737-22.251.133-.264L924.478,720a.859.859,0,0,1,1.008.1l.448.476-10.4,23.1-.138.254-28.29,16.332-.584.273Zm37.728-37.24-26.662,15.818-8.577,19.6,26.071-15.052Z" transform="translate(-885.662 -719.877)" fill="#150035"/>
            </g>
            <g id="Group_59062" data-name="Group 59062" transform="translate(17.164 17.028)">
              <path id="Path_102122" data-name="Path 102122" d="M900.516,734.8c-1.2,1.524-2.738,2.319-3.43,1.773s-.28-2.225.922-3.749,2.736-2.319,3.429-1.773S901.716,733.281,900.516,734.8Z" transform="translate(-895.974 -730.102)" fill="#fff"/>
              <path id="Path_102123" data-name="Path 102123" d="M896.9,737.485a2.067,2.067,0,0,1-.523-2.3,6.972,6.972,0,0,1,1.315-2.537c1.32-1.673,3.293-2.867,4.516-1.9s.527,3.163-.791,4.836a6.985,6.985,0,0,1-2.158,1.872,2.9,2.9,0,0,1-1.328.369A1.636,1.636,0,0,1,896.9,737.485Zm2.01-3.878c-1.039,1.32-1.2,2.466-1.055,2.657.228.105,1.3-.319,2.344-1.641h0c1.04-1.319,1.205-2.466,1.057-2.657a.229.229,0,0,0-.089-.014A3.98,3.98,0,0,0,898.912,733.607Z" transform="translate(-896.27 -730.4)" fill="#150035"/>
            </g>
          </g>
        </g>
      </g>
    </g>
  </g>
</svg>
